font.ufo
<glyph name="numbersign" format="2">
	<unicode hex="0023"/>
	<advance width="477"/>
	<outline>
		<contour>
			<point x="93" y="0" type="line"/>
			<point x="127" y="0" type="line"/>
			<point x="153" y="214" type="line"/>
			<point x="303" y="214" type="line"/>
			<point x="277" y="0" type="line"/>
			<point x="312" y="0" type="line"/>
			<point x="337" y="214" type="line"/>
			<point x="428" y="214" type="line"/>
			<point x="428" y="250" type="line"/>
			<point x="342" y="250" type="line"/>
			<point x="363" y="420" type="line"/>
			<point x="448" y="420" type="line"/>
			<point x="448" y="456" type="line"/>
			<point x="366" y="456" type="line"/>
			<point x="392" y="650" type="line"/>
			<point x="357" y="650" type="line"/>
			<point x="331" y="456" type="line"/>
			<point x="182" y="456" type="line"/>
			<point x="207" y="650" type="line"/>
			<point x="173" y="650" type="line"/>
			<point x="147" y="456" type="line"/>
			<point x="56" y="456" type="line"/>
			<point x="56" y="420" type="line"/>
			<point x="144" y="420" type="line"/>
			<point x="123" y="250" type="line"/>
			<point x="36" y="250" type="line"/>
			<point x="36" y="214" type="line"/>
			<point x="118" y="214" type="line"/>
		</contour>
		<contour>
			<point x="158" y="250" type="line"/>
			<point x="179" y="420" type="line"/>
			<point x="328" y="420" type="line"/>
			<point x="307" y="250" type="line"/>
		</contour>
	</outline>
</glyph>
<glyph name="dollar" format="2">
	<unicode hex="0024"/>
	<advance width="477"/>
	<outline>
		<contour>
			<point x="244" y="-12" type="curve" smooth="yes"/>
			<point x="341" y="-12"/>
			<point x="417" y="54"/>
			<point x="417" y="161" type="curve" smooth="yes"/>
			<point x="417" y="354"/>
			<point x="128" y="345"/>
			<point x="128" y="498" type="curve" smooth="yes"/>
			<point x="128" y="564"/>
			<point x="176" y="615"/>
			<point x="245" y="615" type="curve" smooth="yes"/>
			<point x="307" y="615"/>
			<point x="345" y="593"/>
			<point x="375" y="556" type="curve"/>
			<point x="400" y="578" type="line"/>
			<point x="367" y="621"/>
			<point x="320" y="652"/>
			<point x="246" y="652" type="curve" smooth="yes"/>
			<point x="155" y="652"/>
			<point x="86" y="587"/>
			<point x="86" y="496" type="curve" smooth="yes"/>
			<point x="86" y="316"/>
			<point x="375" y="325"/>
			<point x="375" y="158" type="curve" smooth="yes"/>
			<point x="375" y="79"/>
			<point x="329" y="25"/>
			<point x="244" y="25" type="curve" smooth="yes"/>
			<point x="174" y="25"/>
			<point x="120" y="55"/>
			<point x="82" y="93" type="curve"/>
			<point x="60" y="68" type="line"/>
			<point x="98" y="21"/>
			<point x="166" y="-12"/>
		</contour>
		<contour>
			<point x="227" y="-110" type="line"/>
			<point x="263" y="-110" type="line"/>
			<point x="263" y="-3" type="line"/>
			<point x="227" y="-3" type="line"/>
		</contour>
		<contour>
			<point x="227" y="631" type="line"/>
			<point x="263" y="631" type="line"/>
			<point x="263" y="750" type="line"/>
			<point x="227" y="750" type="line"/>
		</contour>
	</outline>
</glyph>
<glyph name="ampersand" format="2">
	<unicode hex="0026"/>
	<advance width="572"/>
	<outline>
		<contour>
			<point x="226" y="-12" type="curve" smooth="yes"/>
			<point x="307" y="-12"/>
			<point x="367" y="28"/>
			<point x="418" y="86" type="curve" smooth="yes"/>
			<point x="477" y="156"/>
			<point x="520" y="246"/>
			<point x="548" y="344" type="curve"/>
			<point x="508" y="344" type="line"/>
			<point x="483" y="251"/>
			<point x="444" y="171"/>
			<point x="389" y="108" type="curve" smooth="yes"/>
			<point x="345" y="59"/>
			<point x="290" y="24"/>
			<point x="229" y="24" type="curve" smooth="yes"/>
			<point x="148" y="24"/>
			<point x="79" y="81"/>
			<point x="79" y="169" type="curve" smooth="yes"/>
			<point x="79" y="329"/>
			<point x="371" y="387"/>
			<point x="371" y="552" type="curve" smooth="yes"/>
			<point x="371" y="620"/>
			<point x="333" y="671"/>
			<point x="262" y="671" type="curve" smooth="yes"/>
			<point x="183" y="671"/>
			<point x="128" y="610"/>
			<point x="128" y="525" type="curve" smooth="yes"/>
			<point x="128" y="380"/>
			<point x="262" y="195"/>
			<point x="394" y="81" type="curve" smooth="yes"/>
			<point x="449" y="34"/>
			<point x="501" y="4"/>
			<point x="545" y="-12" type="curve"/>
			<point x="559" y="25" type="line"/>
			<point x="517" y="40"/>
			<point x="469" y="69"/>
			<point x="418" y="112" type="curve" smooth="yes"/>
			<point x="297" y="214"/>
			<point x="166" y="392"/>
			<point x="166" y="527" type="curve" smooth="yes"/>
			<point x="166" y="587"/>
			<point x="201" y="637"/>
			<point x="260" y="637" type="curve" smooth="yes"/>
			<point x="314" y="637"/>
			<point x="334" y="593"/>
			<point x="334" y="550" type="curve" smooth="yes"/>
			<point x="334" y="401"/>
			<point x="37" y="350"/>
			<point x="37" y="167" type="curve" smooth="yes"/>
			<point x="37" y="58"/>
			<point x="122" y="-12"/>
		</contour>
	</outline>
</glyph>
<glyph name="quotesingle" format="2">
	<unicode hex="0027"/>
	<advance width="217"/>
	<outline>
		<contour>
			<point x="92" y="481" type="line"/>
			<point x="123" y="481" type="line"/>
			<point x="131" y="626" type="line"/>
			<point x="132" y="693" type="line"/>
			<point x="83" y="693" type="line"/>
			<point x="84" y="626" type="line"/>
		</contour>
	</outline>
</glyph>
<glyph name="parenleft" format="2">
	<unicode hex="0028"/>
	<advance width="277"/>
	<outline>
		<contour>
			<point x="220" y="-174" type="curve"/>
			<point x="245" y="-160" type="line"/>
			<point x="166" y="-34"/>
			<point x="125" y="120"/>
			<point x="125" y="278" type="curve" smooth="yes"/>
			<point x="125" y="436"/>
			<point x="166" y="590"/>
			<point x="245" y="716" type="curve"/>
			<point x="220" y="730" type="line"/>
			<point x="138" y="598"/>
			<point x="88" y="454"/>
			<point x="88" y="278" type="curve" smooth="yes"/>
			<point x="88" y="102"/>
			<point x="138" y="-42"/>
		</contour>
	</outline>
</glyph>
<glyph name="parenright" format="2">
	<unicode hex="0029"/>
	<advance width="277"/>
	<outline>
		<contour>
			<point x="57" y="-174" type="line"/>
			<point x="139" y="-42"/>
			<point x="189" y="102"/>
			<point x="189" y="278" type="curve" smooth="yes"/>
			<point x="189" y="454"/>
			<point x="139" y="598"/>
			<point x="57" y="730" type="curve"/>
			<point x="32" y="716" type="line"/>
			<point x="111" y="590"/>
			<point x="152" y="436"/>
			<point x="152" y="278" type="curve" smooth="yes"/>
			<point x="152" y="120"/>
			<point x="111" y="-34"/>
			<point x="32" y="-160" type="curve"/>
		</contour>
	</outline>
</glyph>
<glyph name="asterisk" format="2">
	<unicode hex="002A"/>
	<advance width="393"/>
	<outline>
		<contour>
			<point x="132" y="466" type="line"/>
			<point x="197" y="549" type="line"/>
			<point x="261" y="466" type="line"/>
			<point x="287" y="485" type="line"/>
			<point x="232" y="572" type="line"/>
			<point x="322" y="608" type="line"/>
			<point x="313" y="636" type="line"/>
			<point x="218" y="612" type="line"/>
			<point x="212" y="712" type="line"/>
			<point x="181" y="712" type="line"/>
			<point x="174" y="610" type="line"/>
			<point x="80" y="636" type="line"/>
			<point x="71" y="608" type="line"/>
			<point x="160" y="572" type="line"/>
			<point x="106" y="485" type="line"/>
		</contour>
	</outline>
</glyph>
<glyph name="plus" format="2">
	<unicode hex="002B"/>
	<advance width="477"/>
	<outline>
		<contour>
			<point x="219" y="110" type="line"/>
			<point x="258" y="110" type="line"/>
			<point x="258" y="312" type="line"/>
			<point x="443" y="312" type="line"/>
			<point x="443" y="348" type="line"/>
			<point x="258" y="348" type="line"/>
			<point x="258" y="550" type="line"/>
			<point x="219" y="550" type="line"/>
			<point x="219" y="348" type="line"/>
			<point x="34" y="348" type="line"/>
			<point x="34" y="312" type="line"/>
			<point x="219" y="312" type="line"/>
		</contour>
	</outline>
</glyph>
<glyph name="comma" format="2">
	<unicode hex="002C"/>
	<advance width="217"/>
	<outline>
		<contour>
			<point x="62" y="-154" type="line"/>
			<point x="120" y="-122"/>
			<point x="162" y="-65"/>
			<point x="162" y="7" type="curve" smooth="yes"/>
			<point x="162" y="49"/>
			<point x="142" y="76"/>
			<point x="112" y="76" type="curve" smooth="yes"/>
			<point x="91" y="76"/>
			<point x="71" y="62"/>
			<point x="71" y="36" type="curve" smooth="yes"/>
			<point x="71" y="9"/>
			<point x="90" y="-5"/>
			<point x="112" y="-5" type="curve" smooth="yes"/>
			<point x="125" y="-5"/>
			<point x="137" y="-3"/>
			<point x="146" y="11" type="curve"/>
			<point x="111" y="57" type="line"/>
			<point x="124" y="-1" type="line"/>
			<point x="124" y="-58"/>
			<point x="93" y="-101"/>
			<point x="48" y="-125" type="curve"/>
		</contour>
	</outline>
</glyph>
<glyph name="hyphen" format="1">
	<unicode hex="002D"/>
	<advance width="299"/>
	<outline>
		<contour>
			<point x="40" y="230" type="line"/>
			<point x="260" y="230" type="line"/>
			<point x="260" y="269" type="line"/>
			<point x="40" y="269" type="line"/>
		</contour>
	</outline>
</glyph>
<glyph name="period" format="2">
	<unicode hex="002E"/>
	<advance width="217"/>
	<outline>
		<contour>
			<point x="108" y="-12" type="curve" smooth="yes"/>
			<point x="129" y="-12"/>
			<point x="149" y="4"/>
			<point x="149" y="31" type="curve" smooth="yes"/>
			<point x="149" y="60"/>
			<point x="129" y="76"/>
			<point x="108" y="76" type="curve" smooth="yes"/>
			<point x="87" y="76"/>
			<point x="67" y="60"/>
			<point x="67" y="31" type="curve" smooth="yes"/>
			<point x="67" y="4"/>
			<point x="87" y="-12"/>
		</contour>
	</outline>
</glyph>
<glyph name="slash" format="2">
	<unicode hex="002F"/>
	<advance width="358"/>
	<outline>
		<contour>
			<point x="8" y="-160" type="line"/>
			<point x="45" y="-160" type="line"/>
			<point x="353" y="710" type="line"/>
			<point x="317" y="710" type="line"/>
		</contour>
	</outline>
</glyph>
<glyph name="zero" format="2">
	<unicode hex="0030"/>
	<advance width="477"/>
	<outline>
		<contour>
			<point x="239" y="-12" type="curve" smooth="yes"/>
			<point x="360" y="-12"/>
			<point x="429" y="109"/>
			<point x="429" y="322" type="curve" smooth="yes"/>
			<point x="429" y="534"/>
			<point x="360" y="652"/>
			<point x="239" y="652" type="curve" smooth="yes"/>
			<point x="117" y="652"/>
			<point x="49" y="534"/>
			<point x="49" y="322" type="curve" smooth="yes"/>
			<point x="49" y="109"/>
			<point x="117" y="-12"/>
		</contour>
		<contour>
			<point x="239" y="24" type="curve" smooth="yes"/>
			<point x="149" y="24"/>
			<point x="91" y="126"/>
			<point x="91" y="322" type="curve" smooth="yes"/>
			<point x="91" y="518"/>
			<point x="149" y="615"/>
			<point x="239" y="615" type="curve" smooth="yes"/>
			<point x="328" y="615"/>
			<point x="386" y="518"/>
			<point x="386" y="322" type="curve" smooth="yes"/>
			<point x="386" y="126"/>
			<point x="328" y="24"/>
		</contour>
	</outline>
</glyph>
<glyph name="one" format="2">
	<unicode hex="0031"/>
	<advance width="477"/>
	<outline>
		<contour>
			<point x="84" y="0" type="line"/>
			<point x="416" y="0" type="line"/>
			<point x="416" y="37" type="line"/>
			<point x="276" y="37" type="line"/>
			<point x="276" y="640" type="line"/>
			<point x="242" y="640" type="line"/>
			<point x="213" y="622"/>
			<point x="172" y="608"/>
			<point x="121" y="600" type="curve"/>
			<point x="121" y="571" type="line"/>
			<point x="235" y="571" type="line"/>
			<point x="235" y="37" type="line"/>
			<point x="84" y="37" type="line"/>
		</contour>
	</outline>
</glyph>
<glyph name="two" format="2">
	<unicode hex="0032"/>
	<advance width="477"/>
	<outline>
		<contour>
			<point x="42" y="0" type="line"/>
			<point x="431" y="0" type="line"/>
			<point x="431" y="37" type="line"/>
			<point x="208" y="37" type="line" smooth="yes"/>
			<point x="173" y="37"/>
			<point x="136" y="35"/>
			<point x="100" y="33" type="curve"/>
			<point x="283" y="222"/>
			<point x="400" y="345"/>
			<point x="400" y="473" type="curve" smooth="yes"/>
			<point x="400" y="581"/>
			<point x="334" y="652"/>
			<point x="220" y="652" type="curve" smooth="yes"/>
			<point x="143" y="652"/>
			<point x="87" y="610"/>
			<point x="39" y="557" type="curve"/>
			<point x="67" y="531" type="line"/>
			<point x="106" y="580"/>
			<point x="158" y="615"/>
			<point x="217" y="615" type="curve" smooth="yes"/>
			<point x="314" y="615"/>
			<point x="357" y="552"/>
			<point x="357" y="472" type="curve" smooth="yes"/>
			<point x="357" y="361"/>
			<point x="252" y="239"/>
			<point x="42" y="25" type="curve"/>
		</contour>
	</outline>
</glyph>
<glyph name="three" format="2">
	<unicode hex="0033"/>
	<advance width="477"/>
	<outline>
		<contour>
			<point x="231" y="-12" type="curve" smooth="yes"/>
			<point x="341" y="-12"/>
			<point x="426" y="58"/>
			<point x="426" y="168" type="curve" smooth="yes"/>
			<point x="426" y="260"/>
			<point x="359" y="319"/>
			<point x="280" y="335" type="curve"/>
			<point x="280" y="339" type="line"/>
			<point x="349" y="363"/>
			<point x="402" y="413"/>
			<point x="402" y="497" type="curve" smooth="yes"/>
			<point x="402" y="595"/>
			<point x="327" y="652"/>
			<point x="229" y="652" type="curve" smooth="yes"/>
			<point x="155" y="652"/>
			<point x="100" y="616"/>
			<point x="56" y="573" type="curve"/>
			<point x="81" y="545" type="line"/>
			<point x="118" y="584"/>
			<point x="170" y="615"/>
			<point x="228" y="615" type="curve" smooth="yes"/>
			<point x="307" y="615"/>
			<point x="359" y="568"/>
			<point x="359" y="495" type="curve" smooth="yes"/>
			<point x="359" y="417"/>
			<point x="307" y="354"/>
			<point x="158" y="354" type="curve"/>
			<point x="158" y="317" type="line"/>
			<point x="318" y="317"/>
			<point x="383" y="256"/>
			<point x="383" y="168" type="curve" smooth="yes"/>
			<point x="383" y="81"/>
			<point x="319" y="25"/>
			<point x="232" y="25" type="curve" smooth="yes"/>
			<point x="143" y="25"/>
			<point x="92" y="65"/>
			<point x="54" y="107" type="curve"/>
			<point x="29" y="78" type="line"/>
			<point x="70" y="35"/>
			<point x="129" y="-12"/>
		</contour>
	</outline>
</glyph>
<glyph name="four" format="2">
	<unicode hex="0034"/>
	<advance width="477"/>
	<outline>
		<contour>
			<point x="310" y="0" type="line"/>
			<point x="350" y="0" type="line"/>
			<point x="350" y="640" type="line"/>
			<point x="315" y="640" type="line"/>
			<point x="16" y="216" type="line"/>
			<point x="16" y="192" type="line"/>
			<point x="446" y="192" type="line"/>
			<point x="446" y="228" type="line"/>
			<point x="68" y="228" type="line"/>
			<point x="258" y="496" type="line"/>
			<point x="276" y="525"/>
			<point x="294" y="548"/>
			<point x="310" y="575" type="curve"/>
			<point x="314" y="575" type="line"/>
			<point x="312" y="546"/>
			<point x="310" y="495"/>
			<point x="310" y="466" type="curve" smooth="yes"/>
		</contour>
	</outline>
</glyph>
<glyph name="five" format="2">
	<unicode hex="0035"/>
	<advance width="477"/>
	<outline>
		<contour>
			<point x="226" y="-12" type="curve" smooth="yes"/>
			<point x="328" y="-12"/>
			<point x="429" y="64"/>
			<point x="429" y="201" type="curve" smooth="yes"/>
			<point x="429" y="340"/>
			<point x="343" y="402"/>
			<point x="235" y="402" type="curve" smooth="yes"/>
			<point x="187" y="402"/>
			<point x="152" y="388"/>
			<point x="119" y="368" type="curve"/>
			<point x="140" y="603" type="line"/>
			<point x="396" y="603" type="line"/>
			<point x="396" y="640" type="line"/>
			<point x="103" y="640" type="line"/>
			<point x="79" y="341" type="line"/>
			<point x="109" y="323" type="line"/>
			<point x="147" y="349"/>
			<point x="180" y="366"/>
			<point x="228" y="366" type="curve" smooth="yes"/>
			<point x="325" y="366"/>
			<point x="386" y="303"/>
			<point x="386" y="199" type="curve" smooth="yes"/>
			<point x="386" y="95"/>
			<point x="312" y="25"/>
			<point x="226" y="25" type="curve" smooth="yes"/>
			<point x="138" y="25"/>
			<point x="88" y="63"/>
			<point x="50" y="103" type="curve"/>
			<point x="26" y="74" type="line"/>
			<point x="67" y="33"/>
			<point x="124" y="-12"/>
		</contour>
	</outline>
</glyph>
<glyph name="six" format="2">
	<unicode hex="0036"/>
	<advance width="477"/>
	<outline>
		<contour>
			<point x="260" y="-12" type="curve" smooth="yes"/>
			<point x="354" y="-12"/>
			<point x="434" y="72"/>
			<point x="434" y="187" type="curve" smooth="yes"/>
			<point x="434" y="316"/>
			<point x="369" y="385"/>
			<point x="257" y="385" type="curve" smooth="yes"/>
			<point x="195" y="385"/>
			<point x="135" y="348"/>
			<point x="90" y="291" type="curve"/>
			<point x="91" y="246" type="line"/>
			<point x="144" y="321"/>
			<point x="206" y="350"/>
			<point x="252" y="350" type="curve" smooth="yes"/>
			<point x="351" y="350"/>
			<point x="392" y="281"/>
			<point x="392" y="187" type="curve" smooth="yes"/>
			<point x="392" y="95"/>
			<point x="336" y="24"/>
			<point x="262" y="24" type="curve" smooth="yes"/>
			<point x="146" y="24"/>
			<point x="94" y="133"/>
			<point x="94" y="289" type="curve" smooth="yes"/>
			<point x="94" y="532"/>
			<point x="183" y="615"/>
			<point x="286" y="615" type="curve" smooth="yes"/>
			<point x="328" y="615"/>
			<point x="367" y="597"/>
			<point x="395" y="562" type="curve"/>
			<point x="421" y="590" type="line"/>
			<point x="388" y="626"/>
			<point x="346" y="652"/>
			<point x="287" y="652" type="curve" smooth="yes"/>
			<point x="164" y="652"/>
			<point x="53" y="558"/>
			<point x="53" y="289" type="curve" smooth="yes"/>
			<point x="53" y="96"/>
			<point x="133" y="-12"/>
		</contour>
	</outline>
</glyph>
<glyph name="seven" format="2">
	<unicode hex="0037"/>
	<advance width="477"/>
	<outline>
		<contour>
			<point x="189" y="0" type="curve"/>
			<point x="234" y="0" type="line"/>
			<point x="244" y="250"/>
			<point x="282" y="411"/>
			<point x="435" y="615" type="curve"/>
			<point x="435" y="640" type="line"/>
			<point x="44" y="640" type="line"/>
			<point x="44" y="603" type="line"/>
			<point x="382" y="603" type="line"/>
			<point x="253" y="422"/>
			<point x="199" y="259"/>
		</contour>
	</outline>
</glyph>
<glyph name="eight" format="2">
	<unicode hex="0038"/>
	<advance width="477"/>
	<outline>
		<contour>
			<point x="242" y="-12" type="curve" smooth="yes"/>
			<point x="358" y="-12"/>
			<point x="435" y="62"/>
			<point x="435" y="155" type="curve" smooth="yes"/>
			<point x="435" y="241"/>
			<point x="378" y="283"/>
			<point x="324" y="317" type="curve"/>
			<point x="324" y="321" type="line"/>
			<point x="360" y="351"/>
			<point x="415" y="414"/>
			<point x="415" y="485" type="curve" smooth="yes"/>
			<point x="415" y="580"/>
			<point x="351" y="652"/>
			<point x="243" y="652" type="curve" smooth="yes"/>
			<point x="150" y="652"/>
			<point x="77" y="587"/>
			<point x="77" y="496" type="curve" smooth="yes"/>
			<point x="77" y="428"/>
			<point x="122" y="380"/>
			<point x="168" y="349" type="curve"/>
			<point x="168" y="345" type="line"/>
			<point x="108" y="313"/>
			<point x="40" y="251"/>
			<point x="40" y="164" type="curve" smooth="yes"/>
			<point x="40" y="64"/>
			<point x="125" y="-12"/>
		</contour>
		<contour>
			<point x="289" y="334" type="curve"/>
			<point x="205" y="367"/>
			<point x="118" y="404"/>
			<point x="118" y="496" type="curve" smooth="yes"/>
			<point x="118" y="565"/>
			<point x="170" y="617"/>
			<point x="242" y="617" type="curve" smooth="yes"/>
			<point x="327" y="617"/>
			<point x="375" y="555"/>
			<point x="375" y="484" type="curve" smooth="yes"/>
			<point x="375" y="428"/>
			<point x="344" y="378"/>
		</contour>
		<contour>
			<point x="242" y="23" type="curve" smooth="yes"/>
			<point x="149" y="23"/>
			<point x="81" y="86"/>
			<point x="81" y="165" type="curve" smooth="yes"/>
			<point x="81" y="236"/>
			<point x="130" y="290"/>
			<point x="196" y="329" type="curve"/>
			<point x="296" y="289"/>
			<point x="394" y="255"/>
			<point x="394" y="155" type="curve" smooth="yes"/>
			<point x="394" y="82"/>
			<point x="334" y="23"/>
		</contour>
	</outline>
</glyph>
<glyph name="nine" format="2">
	<unicode hex="0039"/>
	<advance width="477"/>
	<outline>
		<contour>
			<point x="190" y="-12" type="curve" smooth="yes"/>
			<point x="313" y="-12"/>
			<point x="424" y="81"/>
			<point x="424" y="350" type="curve" smooth="yes"/>
			<point x="424" y="543"/>
			<point x="344" y="652"/>
			<point x="217" y="652" type="curve" smooth="yes"/>
			<point x="123" y="652"/>
			<point x="43" y="568"/>
			<point x="43" y="452" type="curve" smooth="yes"/>
			<point x="43" y="324"/>
			<point x="109" y="254"/>
			<point x="220" y="254" type="curve" smooth="yes"/>
			<point x="282" y="254"/>
			<point x="342" y="291"/>
			<point x="387" y="348" type="curve"/>
			<point x="386" y="394" type="line"/>
			<point x="333" y="318"/>
			<point x="271" y="289"/>
			<point x="225" y="289" type="curve" smooth="yes"/>
			<point x="126" y="289"/>
			<point x="85" y="359"/>
			<point x="85" y="452" type="curve" smooth="yes"/>
			<point x="85" y="544"/>
			<point x="141" y="616"/>
			<point x="215" y="616" type="curve" smooth="yes"/>
			<point x="331" y="616"/>
			<point x="383" y="506"/>
			<point x="383" y="350" type="curve" smooth="yes"/>
			<point x="383" y="108"/>
			<point x="294" y="25"/>
			<point x="191" y="25" type="curve" smooth="yes"/>
			<point x="149" y="25"/>
			<point x="110" y="43"/>
			<point x="82" y="78" type="curve"/>
			<point x="57" y="50" type="line"/>
			<point x="88" y="13"/>
			<point x="131" y="-12"/>
		</contour>
	</outline>
</glyph>
<glyph name="less" format="1">
	<unicode hex="003C"/>
	<advance width="479"/>
	<outline>
		<contour>
			<point x="445" y="146" type="line"/>
			<point x="445" y="189" type="line"/>
			<point x="213" y="279" type="line"/>
			<point x="80" y="330" type="line"/>
			<point x="80" y="334" type="line"/>
			<point x="213" y="385" type="line"/>
			<point x="445" y="475" type="line"/>
			<point x="445" y="518" type="line"/>
			<point x="34" y="354" type="line"/>
			<point x="34" y="310" type="line"/>
		</contour>
	</outline>
</glyph>
<glyph name="greater" format="2">
	<unicode hex="003E"/>
	<advance width="477"/>
	<outline>
		<contour>
			<point x="34" y="147" type="line"/>
			<point x="443" y="311" type="line"/>
			<point x="443" y="353" type="line"/>
			<point x="34" y="517" type="line"/>
			<point x="34" y="476" type="line"/>
			<point x="268" y="386" type="line"/>
			<point x="400" y="334" type="line"/>
			<point x="400" y="330" type="line"/>
			<point x="268" y="278" type="line"/>
			<point x="34" y="188" type="line"/>
		</contour>
	</outline>
</glyph>
<glyph name="question" format="2">
	<unicode hex="003F"/>
	<advance width="401"/>
	<outline>
		<contour>
			<point x="163" y="178" type="curve"/>
			<point x="201" y="178" type="line"/>
			<point x="181" y="331"/>
			<point x="349" y="393"/>
			<point x="349" y="530" type="curve" smooth="yes"/>
			<point x="349" y="615"/>
			<point x="293" y="682"/>
			<point x="196" y="682" type="curve" smooth="yes"/>
			<point x="127" y="682"/>
			<point x="75" y="648"/>
			<point x="36" y="605" type="curve"/>
			<point x="62" y="581" type="line"/>
			<point x="96" y="622"/>
			<point x="143" y="645"/>
			<point x="192" y="645" type="curve" smooth="yes"/>
			<point x="272" y="645"/>
			<point x="307" y="589"/>
			<point x="307" y="527" type="curve" smooth="yes"/>
			<point x="307" y="402"/>
			<point x="141" y="344"/>
		</contour>
		<contour>
			<point x="185" y="-12" type="curve" smooth="yes"/>
			<point x="207" y="-12"/>
			<point x="226" y="4"/>
			<point x="226" y="31" type="curve" smooth="yes"/>
			<point x="226" y="60"/>
			<point x="207" y="76"/>
			<point x="185" y="76" type="curve" smooth="yes"/>
			<point x="164" y="76"/>
			<point x="144" y="60"/>
			<point x="144" y="31" type="curve" smooth="yes"/>
			<point x="144" y="4"/>
			<point x="164" y="-12"/>
		</contour>
	</outline>
</glyph>
<glyph name="at" format="2">
	<unicode hex="0040"/>
	<advance width="814"/>
	<outline>
		<contour>
			<point x="388" y="-146" type="curve" smooth="yes"/>
			<point x="456" y="-146"/>
			<point x="518" y="-128"/>
			<point x="575" y="-92" type="curve"/>
			<point x="558" y="-60" type="line"/>
			<point x="511" y="-89"/>
			<point x="457" y="-108"/>
			<point x="391" y="-108" type="curve" smooth="yes"/>
			<point x="213" y="-108"/>
			<point x="92" y="12"/>
			<point x="92" y="205" type="curve" smooth="yes"/>
			<point x="92" y="442"/>
			<point x="264" y="595"/>
			<point x="446" y="595" type="curve" smooth="yes"/>
			<point x="618" y="595"/>
			<point x="723" y="484"/>
			<point x="723" y="313" type="curve" smooth="yes"/>
			<point x="723" y="172"/>
			<point x="645" y="92"/>
			<point x="582" y="92" type="curve" smooth="yes"/>
			<point x="521" y="92"/>
			<point x="500" y="135"/>
			<point x="522" y="226" type="curve" smooth="yes"/>
			<point x="558" y="415" type="line"/>
			<point x="524" y="415" type="line"/>
			<point x="515" y="375" type="line"/>
			<point x="513" y="375" type="line"/>
			<point x="493" y="407"/>
			<point x="466" y="423"/>
			<point x="430" y="423" type="curve" smooth="yes"/>
			<point x="312" y="423"/>
			<point x="243" y="296"/>
			<point x="243" y="198" type="curve" smooth="yes"/>
			<point x="243" y="108"/>
			<point x="296" y="61"/>
			<point x="358" y="61" type="curve" smooth="yes"/>
			<point x="404" y="61"/>
			<point x="445" y="92"/>
			<point x="480" y="132" type="curve"/>
			<point x="482" y="132" type="line"/>
			<point x="487" y="79"/>
			<point x="526" y="55"/>
			<point x="579" y="55" type="curve" smooth="yes"/>
			<point x="662" y="55"/>
			<point x="763" y="145"/>
			<point x="763" y="316" type="curve" smooth="yes"/>
			<point x="763" y="506"/>
			<point x="642" y="633"/>
			<point x="449" y="633" type="curve" smooth="yes"/>
			<point x="238" y="633"/>
			<point x="52" y="463"/>
			<point x="52" y="202" type="curve" smooth="yes"/>
			<point x="52" y="-18"/>
			<point x="195" y="-146"/>
		</contour>
		<contour>
			<point x="364" y="98" type="curve" smooth="yes"/>
			<point x="320" y="98"/>
			<point x="284" y="126"/>
			<point x="284" y="201" type="curve" smooth="yes"/>
			<point x="284" y="285"/>
			<point x="339" y="386"/>
			<point x="429" y="386" type="curve" smooth="yes"/>
			<point x="459" y="386"/>
			<point x="479" y="375"/>
			<point x="503" y="338" type="curve"/>
			<point x="472" y="165" type="line"/>
			<point x="432" y="119"/>
			<point x="396" y="98"/>
		</contour>
	</outline>
</glyph>
<glyph name="A" format="2">
	<unicode hex="0041"/>
	<advance width="525"/>
	<outline>
		<contour>
			<point x="8" y="0" type="line"/>
			<point x="52" y="0" type="line"/>
			<point x="187" y="390" type="line" smooth="yes"/>
			<point x="214" y="468"/>
			<point x="237" y="537"/>
			<point x="260" y="618" type="curve"/>
			<point x="264" y="618" type="line"/>
			<point x="288" y="537"/>
			<point x="311" y="468"/>
			<point x="338" y="390" type="curve" smooth="yes"/>
			<point x="471" y="0" type="line"/>
			<point x="517" y="0" type="line"/>
			<point x="283" y="659" type="line"/>
			<point x="241" y="659" type="line"/>
		</contour>
		<contour>
			<point x="114" y="228" type="line"/>
			<point x="408" y="228" type="line"/>
			<point x="408" y="265" type="line"/>
			<point x="114" y="265" type="line"/>
		</contour>
	</outline>
	<anchor name="aboveUC" x="262" y="681"/>
	<anchor name="belowLC" x="262" y="-22"/>
	<anchor name="ogonekUC" x="477" y="0"/>
</glyph>
<glyph name="B" format="2">
	<unicode hex="0042"/>
	<advance width="577"/>
	<outline>
		<contour>
			<point x="98" y="0" type="line"/>
			<point x="287" y="0" type="line" smooth="yes"/>
			<point x="436" y="0"/>
			<point x="532" y="65"/>
			<point x="532" y="192" type="curve" smooth="yes"/>
			<point x="532" y="284"/>
			<point x="475" y="337"/>
			<point x="389" y="351" type="curve"/>
			<point x="389" y="355" type="line"/>
			<point x="455" y="375"/>
			<point x="491" y="430"/>
			<point x="491" y="499" type="curve" smooth="yes"/>
			<point x="491" y="609"/>
			<point x="407" y="659"/>
			<point x="275" y="659" type="curve" smooth="yes"/>
			<point x="98" y="659" type="line"/>
		</contour>
		<contour>
			<point x="141" y="368" type="line"/>
			<point x="141" y="623" type="line"/>
			<point x="261" y="623" type="line" smooth="yes"/>
			<point x="384" y="623"/>
			<point x="449" y="589"/>
			<point x="449" y="495" type="curve" smooth="yes"/>
			<point x="449" y="416"/>
			<point x="393" y="368"/>
			<point x="256" y="368" type="curve" smooth="yes"/>
		</contour>
		<contour>
			<point x="141" y="36" type="line"/>
			<point x="141" y="333" type="line"/>
			<point x="275" y="333" type="line" smooth="yes"/>
			<point x="412" y="333"/>
			<point x="490" y="287"/>
			<point x="490" y="191" type="curve" smooth="yes"/>
			<point x="490" y="84"/>
			<point x="408" y="36"/>
			<point x="275" y="36" type="curve" smooth="yes"/>
		</contour>
	</outline>
	<anchor name="aboveUC" x="278" y="681"/>
	<anchor name="belowLC" x="294" y="-22"/>
</glyph>
<glyph name="C" format="2">
	<unicode hex="0043"/>
	<advance width="564"/>
	<outline>
		<contour>
			<point x="330" y="-12" type="curve" smooth="yes"/>
			<point x="416" y="-12"/>
			<point x="475" y="24"/>
			<point x="526" y="82" type="curve"/>
			<point x="500" y="109" type="line"/>
			<point x="452" y="55"/>
			<point x="401" y="27"/>
			<point x="332" y="27" type="curve" smooth="yes"/>
			<point x="189" y="27"/>
			<point x="100" y="147"/>
			<point x="100" y="332" type="curve" smooth="yes"/>
			<point x="100" y="516"/>
			<point x="190" y="632"/>
			<point x="336" y="632" type="curve" smooth="yes"/>
			<point x="397" y="632"/>
			<point x="445" y="605"/>
			<point x="481" y="564" type="curve"/>
			<point x="507" y="593" type="line"/>
			<point x="472" y="633"/>
			<point x="413" y="671"/>
			<point x="336" y="671" type="curve" smooth="yes"/>
			<point x="168" y="671"/>
			<point x="55" y="540"/>
			<point x="55" y="331" type="curve" smooth="yes"/>
			<point x="55" y="122"/>
			<point x="168" y="-12"/>
		</contour>
	</outline>
	<anchor name="aboveUC" x="320" y="681"/>
	<anchor name="baseLC" x="339" y="0"/>
	<anchor name="belowLC" x="339" y="-22"/>
</glyph>
<glyph name="D" format="2">
	<unicode hex="0044"/>
	<advance width="603"/>
	<outline>
		<contour>
			<point x="98" y="0" type="line"/>
			<point x="250" y="0" type="line" smooth="yes"/>
			<point x="453" y="0"/>
			<point x="548" y="133"/>
			<point x="548" y="332" type="curve" smooth="yes"/>
			<point x="548" y="530"/>
			<point x="453" y="659"/>
			<point x="249" y="659" type="curve" smooth="yes"/>
			<point x="98" y="659" type="line"/>
		</contour>
		<contour>
			<point x="141" y="37" type="line"/>
			<point x="141" y="623" type="line"/>
			<point x="245" y="623" type="line" smooth="yes"/>
			<point x="425" y="623"/>
			<point x="503" y="504"/>
			<point x="503" y="332" type="curve" smooth="yes"/>
			<point x="503" y="159"/>
			<point x="425" y="37"/>
			<point x="245" y="37" type="curve" smooth="yes"/>
		</contour>
	</outline>
	<anchor name="aboveUC" x="302" y="681"/>
	<anchor name="belowLC" x="299" y="-22"/>
</glyph>
<glyph name="E" format="2">
	<unicode hex="0045"/>
	<advance width="515"/>
	<outline>
		<contour>
			<point x="97" y="0" type="line"/>
			<point x="468" y="0" type="line"/>
			<point x="468" y="40" type="line"/>
			<point x="143" y="40" type="line"/>
			<point x="143" y="330" type="line"/>
			<point x="407" y="330" type="line"/>
			<point x="407" y="370" type="line"/>
			<point x="143" y="370" type="line"/>
			<point x="143" y="619" type="line"/>
			<point x="458" y="619" type="line"/>
			<point x="458" y="659" type="line"/>
			<point x="97" y="659" type="line"/>
		</contour>
	</outline>
	<anchor name="aboveUC" x="290" y="681"/>
	<anchor name="baseLC" x="300" y="0"/>
	<anchor name="belowLC" x="300" y="-22"/>
	<anchor name="ogonekUC" x="404" y="0"/>
</glyph>
<glyph name="F" format="2">
	<unicode hex="0046"/>
	<advance width="475"/>
	<outline>
		<contour>
			<point x="98" y="0" type="line"/>
			<point x="141" y="0" type="line"/>
			<point x="141" y="319" type="line"/>
			<point x="407" y="319" type="line"/>
			<point x="407" y="356" type="line"/>
			<point x="141" y="356" type="line"/>
			<point x="141" y="622" type="line"/>
			<point x="455" y="622" type="line"/>
			<point x="455" y="659" type="line"/>
			<point x="98" y="659" type="line"/>
		</contour>
	</outline>
	<anchor name="aboveUC" x="284" y="681"/>
	<anchor name="belowLC" x="120" y="-22"/>
</glyph>
<glyph name="G" format="2">
	<unicode hex="0047"/>
	<advance width="604"/>
	<outline>
		<contour>
			<point x="337" y="-12" type="curve" smooth="yes"/>
			<point x="423" y="-12"/>
			<point x="491" y="18"/>
			<point x="531" y="62" type="curve"/>
			<point x="531" y="323" type="line"/>
			<point x="331" y="323" type="line"/>
			<point x="331" y="286" type="line"/>
			<point x="490" y="286" type="line"/>
			<point x="490" y="78" type="line"/>
			<point x="458" y="46"/>
			<point x="401" y="27"/>
			<point x="340" y="27" type="curve" smooth="yes"/>
			<point x="189" y="27"/>
			<point x="100" y="147"/>
			<point x="100" y="332" type="curve" smooth="yes"/>
			<point x="100" y="516"/>
			<point x="194" y="632"/>
			<point x="346" y="632" type="curve" smooth="yes"/>
			<point x="419" y="632"/>
			<point x="465" y="601"/>
			<point x="499" y="564" type="curve"/>
			<point x="525" y="593" type="line"/>
			<point x="490" y="630"/>
			<point x="434" y="671"/>
			<point x="346" y="671" type="curve" smooth="yes"/>
			<point x="172" y="671"/>
			<point x="55" y="540"/>
			<point x="55" y="331" type="curve" smooth="yes"/>
			<point x="55" y="122"/>
			<point x="168" y="-12"/>
		</contour>
	</outline>
	<anchor name="aboveUC" x="342" y="681"/>
	<anchor name="belowLC" x="342" y="-22"/>
</glyph>
<glyph name="H" format="1">
	<unicode hex="0048"/>
	<advance width="639"/>
	<outline>
		<contour>
			<point x="97" y="0" type="line"/>
			<point x="143" y="0" type="line"/>
			<point x="143" y="330" type="line"/>
			<point x="496" y="330" type="line"/>
			<point x="496" y="0" type="line"/>
			<point x="542" y="0" type="line"/>
			<point x="542" y="659" type="line"/>
			<point x="496" y="659" type="line"/>
			<point x="496" y="370" type="line"/>
			<point x="143" y="370" type="line"/>
			<point x="143" y="659" type="line"/>
			<point x="97" y="659" type="line"/>
		</contour>
		<contour>
			<point name="aboveUC" x="318" y="681" type="move"/>
		</contour>
		<contour>
			<point name="belowLC" x="318" y="-22" type="move"/>
		</contour>
	</outline>
</glyph>
<glyph name="I" format="2">
	<unicode hex="0049"/>
	<advance width="239"/>
	<outline>
		<contour>
			<point x="98" y="0" type="line"/>
			<point x="141" y="0" type="line"/>
			<point x="141" y="659" type="line"/>
			<point x="98" y="659" type="line"/>
		</contour>
	</outline>
	<anchor name="aboveUC" x="119" y="681"/>
	<anchor name="belowLC" x="119" y="-22"/>
	<anchor name="ogonekUC" x="114" y="0"/>
</glyph>
<glyph name="J" format="2">
	<unicode hex="004A"/>
	<advance width="461"/>
	<outline>
		<contour>
			<point x="202" y="-12" type="curve" smooth="yes"/>
			<point x="321" y="-12"/>
			<point x="365" y="72"/>
			<point x="365" y="179" type="curve" smooth="yes"/>
			<point x="365" y="659" type="line"/>
			<point x="322" y="659" type="line"/>
			<point x="322" y="183" type="line" smooth="yes"/>
			<point x="322" y="75"/>
			<point x="284" y="27"/>
			<point x="202" y="27" type="curve" smooth="yes"/>
			<point x="146" y="27"/>
			<point x="107" y="49"/>
			<point x="74" y="105" type="curve"/>
			<point x="42" y="84" type="line"/>
			<point x="75" y="22"/>
			<point x="130" y="-12"/>
		</contour>
	</outline>
	<anchor name="aboveUC" x="340" y="681"/>
	<anchor name="belowLC" x="242" y="-22"/>
</glyph>
<glyph name="K" format="1">
	<unicode hex="004B"/>
	<advance width="558"/>
	<outline>
		<contour>
			<point x="97" y="0" type="line"/>
			<point x="143" y="0" type="line"/>
			<point x="143" y="227" type="line"/>
			<point x="277" y="380" type="line"/>
			<point x="495" y="0" type="line"/>
			<point x="548" y="0" type="line"/>
			<point x="309" y="415" type="line"/>
			<point x="519" y="659" type="line"/>
			<point x="464" y="659" type="line"/>
			<point x="145" y="293" type="line"/>
			<point x="143" y="293" type="line"/>
			<point x="143" y="659" type="line"/>
			<point x="97" y="659" type="line"/>
		</contour>
		<contour>
			<point name="aboveUC" x="306" y="681" type="move"/>
		</contour>
		<contour>
			<point name="belowLC" x="325" y="-22" type="move"/>
		</contour>
	</outline>
</glyph>
<glyph name="L" format="2">
	<unicode hex="004C"/>
	<advance width="467"/>
	<outline>
		<contour>
			<point x="97" y="0" type="line"/>
			<point x="447" y="0" type="line"/>
			<point x="447" y="40" type="line"/>
			<point x="143" y="40" type="line"/>
			<point x="143" y="659" type="line"/>
			<point x="97" y="659" type="line"/>
		</contour>
	</outline>
	<anchor name="aboveUC" x="124" y="681"/>
	<anchor name="belowLC" x="281" y="-22"/>
</glyph>
<glyph name="M" format="2">
	<unicode hex="004D"/>
	<advance width="706"/>
	<outline>
		<contour>
			<point x="97" y="0" type="line"/>
			<point x="140" y="0" type="line"/>
			<point x="140" y="433" type="line" smooth="yes"/>
			<point x="140" y="487"/>
			<point x="137" y="558"/>
			<point x="134" y="613" type="curve"/>
			<point x="138" y="613" type="line"/>
			<point x="189" y="464" type="line"/>
			<point x="332" y="72" type="line"/>
			<point x="373" y="72" type="line"/>
			<point x="515" y="464" type="line"/>
			<point x="566" y="613" type="line"/>
			<point x="570" y="613" type="line"/>
			<point x="567" y="558"/>
			<point x="564" y="487"/>
			<point x="564" y="433" type="curve" smooth="yes"/>
			<point x="564" y="0" type="line"/>
			<point x="609" y="0" type="line"/>
			<point x="609" y="659" type="line"/>
			<point x="542" y="659" type="line"/>
			<point x="405" y="272" type="line"/>
			<point x="388" y="224"/>
			<point x="373" y="176"/>
			<point x="356" y="126" type="curve"/>
			<point x="352" y="126" type="line"/>
			<point x="335" y="176"/>
			<point x="318" y="224"/>
			<point x="301" y="272" type="curve"/>
			<point x="164" y="659" type="line"/>
			<point x="97" y="659" type="line"/>
		</contour>
	</outline>
	<anchor name="aboveUC" x="354" y="681"/>
	<anchor name="belowLC" x="354" y="-22"/>
</glyph>
<glyph name="N" format="2">
	<unicode hex="004E"/>
	<advance width="636"/>
	<outline>
		<contour>
			<point x="97" y="0" type="line"/>
			<point x="141" y="0" type="line"/>
			<point x="141" y="409" type="line" smooth="yes"/>
			<point x="141" y="473"/>
			<point x="137" y="533"/>
			<point x="135" y="596" type="curve"/>
			<point x="139" y="596" type="line"/>
			<point x="162" y="553"/>
			<point x="188" y="509"/>
			<point x="213" y="465" type="curve" smooth="yes"/>
			<point x="491" y="0" type="line"/>
			<point x="539" y="0" type="line"/>
			<point x="539" y="659" type="line"/>
			<point x="495" y="659" type="line"/>
			<point x="495" y="255" type="line" smooth="yes"/>
			<point x="495" y="191"/>
			<point x="499" y="127"/>
			<point x="501" y="63" type="curve"/>
			<point x="497" y="63" type="line"/>
			<point x="474" y="106"/>
			<point x="448" y="150"/>
			<point x="423" y="194" type="curve" smooth="yes"/>
			<point x="145" y="659" type="line"/>
			<point x="97" y="659" type="line"/>
		</contour>
	</outline>
	<anchor name="aboveUC" x="331" y="681"/>
	<anchor name="belowLC" x="323" y="-22"/>
</glyph>
<glyph name="O" format="2">
	<unicode hex="004F"/>
	<advance width="652"/>
	<outline>
		<contour>
			<point x="326" y="-12" type="curve" smooth="yes"/>
			<point x="485" y="-12"/>
			<point x="598" y="123"/>
			<point x="598" y="332" type="curve" smooth="yes"/>
			<point x="598" y="540"/>
			<point x="485" y="671"/>
			<point x="326" y="671" type="curve" smooth="yes"/>
			<point x="168" y="671"/>
			<point x="55" y="540"/>
			<point x="55" y="332" type="curve" smooth="yes"/>
			<point x="55" y="123"/>
			<point x="168" y="-12"/>
		</contour>
		<contour>
			<point x="326" y="30" type="curve" smooth="yes"/>
			<point x="192" y="30"/>
			<point x="103" y="149"/>
			<point x="103" y="332" type="curve" smooth="yes"/>
			<point x="103" y="514"/>
			<point x="192" y="629"/>
			<point x="326" y="629" type="curve" smooth="yes"/>
			<point x="460" y="629"/>
			<point x="549" y="514"/>
			<point x="549" y="332" type="curve" smooth="yes"/>
			<point x="549" y="149"/>
			<point x="460" y="30"/>
		</contour>
	</outline>
	<anchor name="aboveUC" x="326" y="681"/>
	<anchor name="belowLC" x="326" y="-22"/>
	<anchor name="hornLC" x="459" y="651"/>
	<anchor name="ogonekUC" x="326" y="0"/>
	<anchor name="aboverightUC" x="520" y="681"/>
</glyph>
<glyph name="P" format="2">
	<unicode hex="0050"/>
	<advance width="547"/>
	<outline>
		<contour>
			<point x="98" y="0" type="line"/>
			<point x="141" y="0" type="line"/>
			<point x="141" y="285" type="line"/>
			<point x="266" y="285" type="line" smooth="yes"/>
			<point x="413" y="285"/>
			<point x="500" y="348"/>
			<point x="500" y="476" type="curve" smooth="yes"/>
			<point x="500" y="611"/>
			<point x="411" y="659"/>
			<point x="262" y="659" type="curve" smooth="yes"/>
			<point x="98" y="659" type="line"/>
		</contour>
		<contour>
			<point x="141" y="322" type="line"/>
			<point x="141" y="623" type="line"/>
			<point x="250" y="623" type="line" smooth="yes"/>
			<point x="388" y="623"/>
			<point x="456" y="588"/>
			<point x="456" y="476" type="curve" smooth="yes"/>
			<point x="456" y="367"/>
			<point x="391" y="322"/>
			<point x="254" y="322" type="curve" smooth="yes"/>
		</contour>
	</outline>
	<anchor name="aboveUC" x="294" y="681"/>
	<anchor name="belowLC" x="122" y="-22"/>
</glyph>
<glyph name="Q" format="2">
	<unicode hex="0051"/>
	<advance width="651"/>
	<outline>
		<contour>
			<point x="326" y="-12" type="curve" smooth="yes"/>
			<point x="484" y="-12"/>
			<point x="596" y="123"/>
			<point x="596" y="332" type="curve" smooth="yes"/>
			<point x="596" y="540"/>
			<point x="484" y="671"/>
			<point x="326" y="671" type="curve" smooth="yes"/>
			<point x="168" y="671"/>
			<point x="55" y="540"/>
			<point x="55" y="332" type="curve" smooth="yes"/>
			<point x="55" y="123"/>
			<point x="168" y="-12"/>
		</contour>
		<contour>
			<point x="326" y="25" type="curve" smooth="yes"/>
			<point x="191" y="25"/>
			<point x="100" y="147"/>
			<point x="100" y="332" type="curve" smooth="yes"/>
			<point x="100" y="516"/>
			<point x="191" y="632"/>
			<point x="326" y="632" type="curve" smooth="yes"/>
			<point x="461" y="632"/>
			<point x="551" y="516"/>
			<point x="551" y="332" type="curve" smooth="yes"/>
			<point x="551" y="147"/>
			<point x="461" y="25"/>
		</contour>
		<contour>
			<point x="518" y="-155" type="curve" smooth="yes"/>
			<point x="550" y="-155"/>
			<point x="581" y="-148"/>
			<point x="598" y="-142" type="curve"/>
			<point x="588" y="-107" type="line"/>
			<point x="572" y="-111"/>
			<point x="551" y="-115"/>
			<point x="521" y="-115" type="curve" smooth="yes"/>
			<point x="434" y="-115"/>
			<point x="372" y="-73"/>
			<point x="344" y="2" type="curve"/>
			<point x="297" y="0" type="line"/>
			<point x="327" y="-88"/>
			<point x="403" y="-155"/>
		</contour>
	</outline>
	<anchor name="aboveUC" x="326" y="681"/>
</glyph>
<glyph name="R" format="2">
	<unicode hex="0052"/>
	<advance width="541"/>
	<outline>
		<contour>
			<point x="98" y="0" type="line"/>
			<point x="141" y="0" type="line"/>
			<point x="141" y="305" type="line"/>
			<point x="285" y="305" type="line" smooth="yes"/>
			<point x="416" y="305"/>
			<point x="501" y="367"/>
			<point x="501" y="486" type="curve" smooth="yes"/>
			<point x="501" y="611"/>
			<point x="416" y="659"/>
			<point x="285" y="659" type="curve" smooth="yes"/>
			<point x="98" y="659" type="line"/>
		</contour>
		<contour>
			<point x="141" y="341" type="line"/>
			<point x="141" y="623" type="line"/>
			<point x="273" y="623" type="line" smooth="yes"/>
			<point x="391" y="623"/>
			<point x="456" y="586"/>
			<point x="456" y="486" type="curve" smooth="yes"/>
			<point x="456" y="388"/>
			<point x="391" y="341"/>
			<point x="273" y="341" type="curve" smooth="yes"/>
		</contour>
		<contour>
			<point x="463" y="0" type="line"/>
			<point x="513" y="0" type="line"/>
			<point x="317" y="328" type="line"/>
			<point x="275" y="317" type="line"/>
		</contour>
	</outline>
	<anchor name="aboveUC" x="285" y="681"/>
	<anchor name="belowLC" x="299" y="-22"/>
</glyph>
<glyph name="S" format="2">
	<unicode hex="0053"/>
	<advance width="520"/>
	<outline>
		<contour>
			<point x="269" y="-12" type="curve" smooth="yes"/>
			<point x="396" y="-12"/>
			<point x="479" y="64"/>
			<point x="479" y="165" type="curve" smooth="yes"/>
			<point x="479" y="266"/>
			<point x="413" y="306"/>
			<point x="340" y="339" type="curve" smooth="yes"/>
			<point x="239" y="384" type="line" smooth="yes"/>
			<point x="191" y="405"/>
			<point x="125" y="434"/>
			<point x="125" y="512" type="curve" smooth="yes"/>
			<point x="125" y="585"/>
			<point x="184" y="632"/>
			<point x="272" y="632" type="curve" smooth="yes"/>
			<point x="338" y="632"/>
			<point x="391" y="605"/>
			<point x="430" y="564" type="curve"/>
			<point x="455" y="593" type="line"/>
			<point x="415" y="635"/>
			<point x="352" y="671"/>
			<point x="272" y="671" type="curve" smooth="yes"/>
			<point x="163" y="671"/>
			<point x="82" y="605"/>
			<point x="82" y="510" type="curve" smooth="yes"/>
			<point x="82" y="412"/>
			<point x="159" y="372"/>
			<point x="216" y="346" type="curve" smooth="yes"/>
			<point x="316" y="301" type="line" smooth="yes"/>
			<point x="381" y="272"/>
			<point x="435" y="245"/>
			<point x="435" y="162" type="curve" smooth="yes"/>
			<point x="435" y="82"/>
			<point x="371" y="27"/>
			<point x="269" y="27" type="curve" smooth="yes"/>
			<point x="191" y="27"/>
			<point x="122" y="62"/>
			<point x="74" y="117" type="curve"/>
			<point x="47" y="88" type="line"/>
			<point x="98" y="29"/>
			<point x="172" y="-12"/>
		</contour>
	</outline>
	<anchor name="aboveUC" x="270" y="681"/>
	<anchor name="baseLC" x="269" y="0"/>
	<anchor name="belowLC" x="269" y="-22"/>
</glyph>
<glyph name="T" format="2">
	<unicode hex="0054"/>
	<advance width="523"/>
	<outline>
		<contour>
			<point x="240" y="0" type="line"/>
			<point x="283" y="0" type="line"/>
			<point x="283" y="622" type="line"/>
			<point x="494" y="622" type="line"/>
			<point x="494" y="659" type="line"/>
			<point x="30" y="659" type="line"/>
			<point x="30" y="622" type="line"/>
			<point x="240" y="622" type="line"/>
		</contour>
	</outline>
	<anchor name="aboveUC" x="262" y="681"/>
	<anchor name="baseLC" x="262" y="0"/>
	<anchor name="belowLC" x="262" y="-22"/>
</glyph>
<glyph name="U" format="2">
	<unicode hex="0055"/>
	<advance width="633"/>
	<outline>
		<contour>
			<point x="316" y="-12" type="curve" smooth="yes"/>
			<point x="428" y="-12"/>
			<point x="538" y="46"/>
			<point x="538" y="251" type="curve" smooth="yes"/>
			<point x="538" y="659" type="line"/>
			<point x="497" y="659" type="line"/>
			<point x="497" y="257" type="line" smooth="yes"/>
			<point x="497" y="80"/>
			<point x="412" y="27"/>
			<point x="316" y="27" type="curve" smooth="yes"/>
			<point x="222" y="27"/>
			<point x="139" y="80"/>
			<point x="139" y="257" type="curve" smooth="yes"/>
			<point x="139" y="659" type="line"/>
			<point x="96" y="659" type="line"/>
			<point x="96" y="251" type="line" smooth="yes"/>
			<point x="96" y="46"/>
			<point x="204" y="-12"/>
		</contour>
	</outline>
	<anchor name="aboveUC" x="316" y="681"/>
	<anchor name="belowLC" x="316" y="-22"/>
	<anchor name="hornLC" x="513" y="669"/>
	<anchor name="ogonekUC" x="316" y="0"/>
</glyph>
<glyph name="V" format="2">
	<unicode hex="0056"/>
	<advance width="491"/>
	<outline>
		<contour>
			<point x="218" y="0" type="line"/>
			<point x="267" y="0" type="line"/>
			<point x="487" y="659" type="line"/>
			<point x="440" y="659" type="line"/>
			<point x="314" y="274" type="line" smooth="yes"/>
			<point x="288" y="194"/>
			<point x="272" y="133"/>
			<point x="245" y="53" type="curve"/>
			<point x="241" y="53" type="line"/>
			<point x="214" y="133"/>
			<point x="196" y="194"/>
			<point x="171" y="274" type="curve" smooth="yes"/>
			<point x="53" y="659" type="line"/>
			<point x="4" y="659" type="line"/>
		</contour>
	</outline>
	<anchor name="aboveUC" x="245" y="681"/>
	<anchor name="belowLC" x="248" y="-22"/>
</glyph>
<glyph name="W" format="2">
	<unicode hex="0057"/>
	<advance width="769"/>
	<outline>
		<contour>
			<point x="178" y="0" type="line"/>
			<point x="225" y="0" type="line"/>
			<point x="346" y="458" type="line"/>
			<point x="358" y="510"/>
			<point x="371" y="554"/>
			<point x="382" y="607" type="curve"/>
			<point x="386" y="607" type="line"/>
			<point x="398" y="554"/>
			<point x="409" y="510"/>
			<point x="421" y="458" type="curve"/>
			<point x="541" y="0" type="line"/>
			<point x="588" y="0" type="line"/>
			<point x="739" y="659" type="line"/>
			<point x="696" y="659" type="line"/>
			<point x="610" y="268" type="line"/>
			<point x="595" y="196"/>
			<point x="582" y="125"/>
			<point x="566" y="52" type="curve"/>
			<point x="562" y="52" type="line"/>
			<point x="545" y="125"/>
			<point x="528" y="196"/>
			<point x="510" y="268" type="curve"/>
			<point x="408" y="659" type="line"/>
			<point x="362" y="659" type="line"/>
			<point x="256" y="268" type="line"/>
			<point x="238" y="196"/>
			<point x="221" y="125"/>
			<point x="206" y="52" type="curve"/>
			<point x="202" y="52" type="line"/>
			<point x="186" y="125"/>
			<point x="171" y="196"/>
			<point x="156" y="268" type="curve"/>
			<point x="74" y="659" type="line"/>
			<point x="28" y="659" type="line"/>
		</contour>
	</outline>
	<anchor name="aboveUC" x="384" y="681"/>
	<anchor name="belowLC" x="388" y="-22"/>
</glyph>
<glyph name="X" format="2">
	<unicode hex="0058"/>
	<advance width="479"/>
	<outline>
		<contour>
			<point x="17" y="0" type="line"/>
			<point x="61" y="0" type="line"/>
			<point x="177" y="205" type="line" smooth="yes"/>
			<point x="195" y="237"/>
			<point x="213" y="269"/>
			<point x="234" y="309" type="curve"/>
			<point x="238" y="309" type="line"/>
			<point x="262" y="269"/>
			<point x="281" y="237"/>
			<point x="299" y="205" type="curve" smooth="yes"/>
			<point x="416" y="0" type="line"/>
			<point x="462" y="0" type="line"/>
			<point x="264" y="339" type="line"/>
			<point x="448" y="659" type="line"/>
			<point x="404" y="659" type="line"/>
			<point x="294" y="463" type="line" smooth="yes"/>
			<point x="277" y="433"/>
			<point x="265" y="410"/>
			<point x="245" y="373" type="curve"/>
			<point x="241" y="373" type="line"/>
			<point x="219" y="410"/>
			<point x="205" y="433"/>
			<point x="188" y="463" type="curve" smooth="yes"/>
			<point x="77" y="659" type="line"/>
			<point x="31" y="659" type="line"/>
			<point x="216" y="341" type="line"/>
		</contour>
	</outline>
	<anchor name="aboveUC" x="241" y="681"/>
	<anchor name="belowLC" x="238" y="-22"/>
</glyph>
<glyph name="Y" format="2">
	<unicode hex="0059"/>
	<advance width="447"/>
	<outline>
		<contour>
			<point x="200" y="0" type="line"/>
			<point x="246" y="0" type="line"/>
			<point x="246" y="267" type="line"/>
			<point x="444" y="659" type="line"/>
			<point x="397" y="659" type="line"/>
			<point x="297" y="453" type="line"/>
			<point x="276" y="405"/>
			<point x="251" y="359"/>
			<point x="226" y="310" type="curve"/>
			<point x="222" y="310" type="line"/>
			<point x="196" y="359"/>
			<point x="175" y="405"/>
			<point x="152" y="453" type="curve"/>
			<point x="52" y="659" type="line"/>
			<point x="3" y="659" type="line"/>
			<point x="200" y="267" type="line"/>
		</contour>
	</outline>
	<anchor name="aboveUC" x="223" y="681"/>
	<anchor name="belowLC" x="225" y="-22"/>
</glyph>
<glyph name="Z" format="2">
	<unicode hex="005A"/>
	<advance width="538"/>
	<outline>
		<contour>
			<point x="50" y="0" type="line"/>
			<point x="490" y="0" type="line"/>
			<point x="490" y="37" type="line"/>
			<point x="104" y="37" type="line"/>
			<point x="486" y="635" type="line"/>
			<point x="486" y="659" type="line"/>
			<point x="84" y="659" type="line"/>
			<point x="84" y="622" type="line"/>
			<point x="433" y="622" type="line"/>
			<point x="50" y="25" type="line"/>
		</contour>
	</outline>
	<anchor name="aboveUC" x="278" y="681"/>
	<anchor name="belowLC" x="282" y="-22"/>
</glyph>
<glyph name="bracketleft" format="2">
	<unicode hex="005B"/>
	<advance width="277"/>
	<outline>
		<contour>
			<point x="99" y="-152" type="line"/>
			<point x="256" y="-152" type="line"/>
			<point x="256" y="-125" type="line"/>
			<point x="131" y="-125" type="line"/>
			<point x="131" y="681" type="line"/>
			<point x="256" y="681" type="line"/>
			<point x="256" y="708" type="line"/>
			<point x="99" y="708" type="line"/>
		</contour>
	</outline>
</glyph>
<glyph name="backslash" format="2">
	<unicode hex="005C"/>
	<advance width="358"/>
	<outline>
		<contour>
			<point x="313" y="-160" type="line"/>
			<point x="350" y="-160" type="line"/>
			<point x="41" y="710" type="line"/>
			<point x="4" y="710" type="line"/>
		</contour>
	</outline>
</glyph>
<glyph name="bracketright" format="1">
	<unicode hex="005D"/>
	<advance width="279"/>
	<outline>
		<contour>
			<point x="21" y="-152" type="line"/>
			<point x="181" y="-152" type="line"/>
			<point x="181" y="708" type="line"/>
			<point x="21" y="708" type="line"/>
			<point x="21" y="679" type="line"/>
			<point x="146" y="679" type="line"/>
			<point x="146" y="-123" type="line"/>
			<point x="21" y="-123" type="line"/>
		</contour>
	</outline>
</glyph>
<glyph name="asciicircum" format="2">
	<unicode hex="005E"/>
	<advance width="477"/>
	<outline>
		<contour>
			<point x="66" y="290" type="line"/>
			<point x="107" y="290" type="line"/>
			<point x="185" y="496" type="line"/>
			<point x="237" y="629" type="line"/>
			<point x="241" y="629" type="line"/>
			<point x="292" y="496" type="line"/>
			<point x="371" y="290" type="line"/>
			<point x="411" y="290" type="line"/>
			<point x="261" y="670" type="line"/>
			<point x="217" y="670" type="line"/>
		</contour>
	</outline>
</glyph>
<glyph name="underscore" format="2">
	<unicode hex="005F"/>
	<advance width="500"/>
	<outline>
		<contour>
			<point x="12" y="-116" type="line"/>
			<point x="488" y="-116" type="line"/>
			<point x="488" y="-80" type="line"/>
			<point x="12" y="-80" type="line"/>
		</contour>
	</outline>
</glyph>
<glyph name="grave" format="1">
	<unicode hex="0060"/>
	<advance width="535"/>
	<outline>
		<component base="gravecmb" xOffset="267"/>
		<contour>
			<point name="_aboveLC" x="267" y="504" type="move"/>
		</contour>
	</outline>
</glyph>
<glyph name="a" format="2">
	<unicode hex="0061"/>
	<advance width="490"/>
	<outline>
		<contour>
			<point x="197" y="-12" type="curve" smooth="yes"/>
			<point x="260" y="-12"/>
			<point x="319" y="23"/>
			<point x="368" y="63" type="curve"/>
			<point x="371" y="63" type="line"/>
			<point x="375" y="0" type="line"/>
			<point x="410" y="0" type="line"/>
			<point x="410" y="308" type="line" smooth="yes"/>
			<point x="410" y="409"/>
			<point x="372" y="492"/>
			<point x="259" y="492" type="curve" smooth="yes"/>
			<point x="181" y="492"/>
			<point x="115" y="455"/>
			<point x="82" y="430" type="curve"/>
			<point x="101" y="401" type="line"/>
			<point x="133" y="423"/>
			<point x="189" y="456"/>
			<point x="255" y="456" type="curve" smooth="yes"/>
			<point x="351" y="456"/>
			<point x="371" y="375"/>
			<point x="369" y="300" type="curve"/>
			<point x="155" y="276"/>
			<point x="58" y="226"/>
			<point x="58" y="119" type="curve" smooth="yes"/>
			<point x="58" y="28"/>
			<point x="122" y="-12"/>
		</contour>
		<contour>
			<point x="204" y="24" type="curve" smooth="yes"/>
			<point x="148" y="24"/>
			<point x="100" y="51"/>
			<point x="100" y="121" type="curve" smooth="yes"/>
			<point x="100" y="199"/>
			<point x="169" y="245"/>
			<point x="369" y="268" type="curve"/>
			<point x="369" y="102" type="line"/>
			<point x="309" y="51"/>
			<point x="259" y="24"/>
		</contour>
	</outline>
</glyph>
<glyph name="b" format="2">
	<unicode hex="0062"/>
	<advance width="541"/>
	<outline>
		<contour>
			<point x="279" y="-12" type="curve" smooth="yes"/>
			<point x="392" y="-12"/>
			<point x="491" y="84"/>
			<point x="491" y="247" type="curve" smooth="yes"/>
			<point x="491" y="395"/>
			<point x="427" y="492"/>
			<point x="298" y="492" type="curve" smooth="yes"/>
			<point x="240" y="492"/>
			<point x="181" y="457"/>
			<point x="132" y="416" type="curve"/>
			<point x="134" y="510" type="line"/>
			<point x="134" y="720" type="line"/>
			<point x="93" y="720" type="line"/>
			<point x="93" y="0" type="line"/>
			<point x="127" y="0" type="line"/>
			<point x="132" y="48" type="line"/>
			<point x="134" y="48" type="line"/>
			<point x="180" y="12"/>
			<point x="233" y="-12"/>
		</contour>
		<contour>
			<point x="277" y="25" type="curve" smooth="yes"/>
			<point x="241" y="25"/>
			<point x="187" y="42"/>
			<point x="134" y="87" type="curve"/>
			<point x="134" y="375" type="line"/>
			<point x="191" y="427"/>
			<point x="244" y="455"/>
			<point x="292" y="455" type="curve" smooth="yes"/>
			<point x="405" y="455"/>
			<point x="447" y="366"/>
			<point x="447" y="247" type="curve" smooth="yes"/>
			<point x="447" y="116"/>
			<point x="376" y="25"/>
		</contour>
	</outline>
	<anchor name="aboveUC" x="283" y="729"/>
	<anchor name="belowLC" x="299" y="-22"/>
</glyph>
<glyph name="c" format="2">
	<unicode hex="0063"/>
	<advance width="448"/>
	<outline>
		<contour>
			<point x="269" y="-12" type="curve" smooth="yes"/>
			<point x="330" y="-12"/>
			<point x="382" y="13"/>
			<point x="422" y="52" type="curve"/>
			<point x="401" y="78" type="line"/>
			<point x="368" y="48"/>
			<point x="323" y="25"/>
			<point x="271" y="25" type="curve" smooth="yes"/>
			<point x="165" y="25"/>
			<point x="95" y="111"/>
			<point x="95" y="239" type="curve" smooth="yes"/>
			<point x="95" y="367"/>
			<point x="172" y="455"/>
			<point x="271" y="455" type="curve" smooth="yes"/>
			<point x="321" y="455"/>
			<point x="359" y="435"/>
			<point x="388" y="406" type="curve"/>
			<point x="411" y="432" type="line"/>
			<point x="378" y="464"/>
			<point x="336" y="492"/>
			<point x="270" y="492" type="curve" smooth="yes"/>
			<point x="154" y="492"/>
			<point x="52" y="399"/>
			<point x="52" y="239" type="curve" smooth="yes"/>
			<point x="52" y="80"/>
			<point x="146" y="-12"/>
		</contour>
	</outline>
	<anchor name="aboveLC" x="271" y="504"/>
	<anchor name="baseLC" x="269" y="0"/>
	<anchor name="belowLC" x="269" y="-22"/>
</glyph>
<glyph name="d" format="1">
	<unicode hex="0064"/>
	<advance width="544"/>
	<outline>
		<contour>
			<point x="251" y="-12" type="curve" smooth="yes"/>
			<point x="315" y="-12"/>
			<point x="368" y="23"/>
			<point x="407" y="62" type="curve"/>
			<point x="410" y="62" type="line"/>
			<point x="414" y="0" type="line"/>
			<point x="452" y="0" type="line"/>
			<point x="452" y="719" type="line"/>
			<point x="408" y="719" type="line"/>
			<point x="408" y="521" type="line"/>
			<point x="410" y="433" type="line"/>
			<point x="362" y="470"/>
			<point x="323" y="492"/>
			<point x="265" y="492" type="curve" smooth="yes"/>
			<point x="151" y="492"/>
			<point x="52" y="394"/>
			<point x="52" y="239" type="curve" smooth="yes"/>
			<point x="52" y="77"/>
			<point x="130" y="-12"/>
		</contour>
		<contour>
			<point x="257" y="27" type="curve" smooth="yes"/>
			<point x="155" y="27"/>
			<point x="99" y="112"/>
			<point x="99" y="239" type="curve" smooth="yes"/>
			<point x="99" y="360"/>
			<point x="172" y="453"/>
			<point x="268" y="453" type="curve" smooth="yes"/>
			<point x="315" y="453"/>
			<point x="357" y="436"/>
			<point x="408" y="391" type="curve"/>
			<point x="408" y="106" type="line"/>
			<point x="357" y="55"/>
			<point x="310" y="27"/>
		</contour>
		<contour>
			<point name="aboveUC" x="262" y="729" type="move"/>
		</contour>
		<contour>
			<point name="belowLC" x="272" y="-22" type="move"/>
		</contour>
	</outline>
</glyph>
<glyph name="e" format="2">
	<unicode hex="0065"/>
	<advance width="482"/>
	<outline>
		<contour>
			<point x="274" y="-12" type="curve" smooth="yes"/>
			<point x="344" y="-12"/>
			<point x="387" y="10"/>
			<point x="424" y="35" type="curve"/>
			<point x="407" y="63" type="line"/>
			<point x="373" y="40"/>
			<point x="330" y="24"/>
			<point x="277" y="24" type="curve" smooth="yes"/>
			<point x="174" y="24"/>
			<point x="94" y="107"/>
			<point x="94" y="241" type="curve" smooth="yes"/>
			<point x="94" y="386"/>
			<point x="181" y="456"/>
			<point x="261" y="456" type="curve" smooth="yes"/>
			<point x="348" y="456"/>
			<point x="405" y="394"/>
			<point x="405" y="270" type="curve"/>
			<point x="77" y="270" type="line"/>
			<point x="77" y="234" type="line"/>
			<point x="442" y="234" type="line"/>
			<point x="444" y="247"/>
			<point x="444" y="258"/>
			<point x="444" y="270" type="curve" smooth="yes"/>
			<point x="444" y="411"/>
			<point x="374" y="492"/>
			<point x="261" y="492" type="curve" smooth="yes"/>
			<point x="154" y="492"/>
			<point x="52" y="396"/>
			<point x="52" y="239" type="curve" smooth="yes"/>
			<point x="52" y="82"/>
			<point x="151" y="-12"/>
		</contour>
	</outline>
	<anchor name="aboveLC" x="261" y="504"/>
	<anchor name="baseLC" x="261" y="0"/>
	<anchor name="belowLC" x="261" y="-22"/>
	<anchor name="ogonekLC" x="342" y="0"/>
</glyph>
<glyph name="f" format="2">
	<unicode hex="0066"/>
	<advance width="260"/>
	<outline>
		<contour>
			<point x="99" y="0" type="line"/>
			<point x="140" y="0" type="line"/>
			<point x="140" y="586" type="line" smooth="yes"/>
			<point x="140" y="656"/>
			<point x="164" y="696"/>
			<point x="216" y="696" type="curve" smooth="yes"/>
			<point x="234" y="696"/>
			<point x="253" y="692"/>
			<point x="273" y="684" type="curve"/>
			<point x="285" y="716" type="line"/>
			<point x="265" y="726"/>
			<point x="238" y="732"/>
			<point x="216" y="732" type="curve" smooth="yes"/>
			<point x="142" y="732"/>
			<point x="99" y="684"/>
			<point x="99" y="589" type="curve" smooth="yes"/>
		</contour>
		<contour>
			<point x="33" y="443" type="line"/>
			<point x="252" y="443" type="line"/>
			<point x="252" y="480" type="line"/>
			<point x="100" y="480" type="line"/>
			<point x="33" y="476" type="line"/>
		</contour>
	</outline>
	<anchor name="aboveUC" x="204" y="729"/>
	<anchor name="belowLC" x="121" y="-22"/>
</glyph>
<glyph name="g" format="2">
	<unicode hex="0067"/>
	<advance width="485"/>
	<outline>
		<contour>
			<point x="249" y="-232" type="curve" smooth="yes"/>
			<point x="387" y="-232"/>
			<point x="475" y="-152"/>
			<point x="475" y="-70" type="curve" smooth="yes"/>
			<point x="475" y="5"/>
			<point x="425" y="40"/>
			<point x="317" y="40" type="curve" smooth="yes"/>
			<point x="214" y="40" type="line" smooth="yes"/>
			<point x="142" y="40"/>
			<point x="122" y="68"/>
			<point x="122" y="103" type="curve" smooth="yes"/>
			<point x="122" y="135"/>
			<point x="140" y="156"/>
			<point x="161" y="173" type="curve"/>
			<point x="183" y="160"/>
			<point x="214" y="152"/>
			<point x="241" y="152" type="curve" smooth="yes"/>
			<point x="335" y="152"/>
			<point x="408" y="224"/>
			<point x="408" y="322" type="curve" smooth="yes"/>
			<point x="408" y="374"/>
			<point x="386" y="417"/>
			<point x="354" y="444" type="curve"/>
			<point x="467" y="444" type="line"/>
			<point x="467" y="480" type="line"/>
			<point x="305" y="480" type="line"/>
			<point x="290" y="486"/>
			<point x="267" y="492"/>
			<point x="241" y="492" type="curve" smooth="yes"/>
			<point x="148" y="492"/>
			<point x="73" y="421"/>
			<point x="73" y="323" type="curve" smooth="yes"/>
			<point x="73" y="265"/>
			<point x="104" y="217"/>
			<point x="134" y="191" type="curve"/>
			<point x="134" y="187" type="line"/>
			<point x="113" y="172"/>
			<point x="82" y="142"/>
			<point x="82" y="98" type="curve" smooth="yes"/>
			<point x="82" y="62"/>
			<point x="100" y="36"/>
			<point x="124" y="22" type="curve"/>
			<point x="124" y="18" type="line"/>
			<point x="80" y="-14"/>
			<point x="52" y="-57"/>
			<point x="52" y="-99" type="curve" smooth="yes"/>
			<point x="52" y="-179"/>
			<point x="128" y="-232"/>
		</contour>
		<contour>
			<point x="241" y="186" type="curve" smooth="yes"/>
			<point x="174" y="186"/>
			<point x="115" y="241"/>
			<point x="115" y="323" type="curve" smooth="yes"/>
			<point x="115" y="406"/>
			<point x="172" y="457"/>
			<point x="241" y="457" type="curve" smooth="yes"/>
			<point x="310" y="457"/>
			<point x="367" y="405"/>
			<point x="367" y="323" type="curve" smooth="yes"/>
			<point x="367" y="241"/>
			<point x="308" y="186"/>
		</contour>
		<contour>
			<point x="253" y="-198" type="curve" smooth="yes"/>
			<point x="151" y="-198"/>
			<point x="93" y="-156"/>
			<point x="93" y="-95" type="curve" smooth="yes"/>
			<point x="93" y="-60"/>
			<point x="111" y="-23"/>
			<point x="157" y="8" type="curve"/>
			<point x="182" y="2"/>
			<point x="207" y="0"/>
			<point x="216" y="0" type="curve" smooth="yes"/>
			<point x="320" y="0" type="line" smooth="yes"/>
			<point x="394" y="0"/>
			<point x="432" y="-21"/>
			<point x="432" y="-74" type="curve" smooth="yes"/>
			<point x="432" y="-135"/>
			<point x="363" y="-198"/>
		</contour>
	</outline>
	<anchor name="aboveLC" x="250" y="504"/>
	<anchor name="belowLC" x="250" y="-228"/>
</glyph>
<glyph name="h" format="2">
	<unicode hex="0068"/>
	<advance width="527"/>
	<outline>
		<contour>
			<point x="93" y="0" type="line"/>
			<point x="134" y="0" type="line"/>
			<point x="134" y="363" type="line"/>
			<point x="193" y="424"/>
			<point x="235" y="455"/>
			<point x="293" y="455" type="curve" smooth="yes"/>
			<point x="371" y="455"/>
			<point x="404" y="405"/>
			<point x="404" y="303" type="curve" smooth="yes"/>
			<point x="404" y="0" type="line"/>
			<point x="445" y="0" type="line"/>
			<point x="445" y="308" type="line" smooth="yes"/>
			<point x="445" y="432"/>
			<point x="399" y="492"/>
			<point x="300" y="492" type="curve" smooth="yes"/>
			<point x="234" y="492"/>
			<point x="184" y="454"/>
			<point x="133" y="404" type="curve"/>
			<point x="134" y="510" type="line"/>
			<point x="134" y="720" type="line"/>
			<point x="93" y="720" type="line"/>
		</contour>
	</outline>
	<anchor name="aboveUC" x="283" y="729"/>
	<anchor name="belowLC" x="282" y="-22"/>
</glyph>
<glyph name="i" format="1">
	<unicode hex="0069"/>
	<advance width="229"/>
	<outline>
		<component base="dotlessi"/>
		<component base="dotaccentcmb" xOffset="115"/>
		<contour>
			<point name="ogonekLC" x="136" y="0" type="move"/>
		</contour>
		<contour>
			<point name="aboveLC" x="113" y="678" type="move"/>
		</contour>
		<contour>
			<point name="belowLC" x="113" y="-22" type="move"/>
		</contour>
	</outline>
</glyph>
<glyph name="k" format="2">
	<unicode hex="006B"/>
	<advance width="461"/>
	<outline>
		<contour>
			<point x="93" y="0" type="line"/>
			<point x="134" y="0" type="line"/>
			<point x="134" y="131" type="line"/>
			<point x="243" y="259" type="line"/>
			<point x="404" y="0" type="line"/>
			<point x="450" y="0" type="line"/>
			<point x="267" y="290" type="line"/>
			<point x="423" y="480" type="line"/>
			<point x="375" y="480" type="line"/>
			<point x="136" y="186" type="line"/>
			<point x="134" y="186" type="line"/>
			<point x="134" y="720" type="line"/>
			<point x="93" y="720" type="line"/>
		</contour>
	</outline>
	<anchor name="aboveUC" x="274" y="729"/>
	<anchor name="belowLC" x="263" y="-22"/>
</glyph>
<glyph name="l" format="2">
	<unicode hex="006C"/>
	<advance width="235"/>
	<outline>
		<contour>
			<point x="149" y="-12" type="curve" smooth="yes"/>
			<point x="161" y="-12"/>
			<point x="171" y="-10"/>
			<point x="180" y="-5" type="curve"/>
			<point x="173" y="27" type="line"/>
			<point x="165" y="25"/>
			<point x="161" y="25"/>
			<point x="157" y="25" type="curve" smooth="yes"/>
			<point x="143" y="25"/>
			<point x="134" y="33"/>
			<point x="134" y="56" type="curve" smooth="yes"/>
			<point x="134" y="720" type="line"/>
			<point x="93" y="720" type="line"/>
			<point x="93" y="62" type="line" smooth="yes"/>
			<point x="93" y="11"/>
			<point x="113" y="-12"/>
		</contour>
	</outline>
	<anchor name="aboveUC" x="113" y="729"/>
	<anchor name="belowLC" x="133" y="-22"/>
</glyph>
<glyph name="m" format="2">
	<unicode hex="006D"/>
	<advance width="811"/>
	<outline>
		<contour>
			<point x="93" y="0" type="line"/>
			<point x="134" y="0" type="line"/>
			<point x="134" y="363" type="line"/>
			<point x="188" y="424"/>
			<point x="236" y="455"/>
			<point x="280" y="455" type="curve" smooth="yes"/>
			<point x="354" y="455"/>
			<point x="389" y="405"/>
			<point x="389" y="303" type="curve" smooth="yes"/>
			<point x="389" y="0" type="line"/>
			<point x="430" y="0" type="line"/>
			<point x="430" y="363" type="line"/>
			<point x="483" y="424"/>
			<point x="530" y="455"/>
			<point x="575" y="455" type="curve" smooth="yes"/>
			<point x="650" y="455"/>
			<point x="684" y="405"/>
			<point x="684" y="303" type="curve" smooth="yes"/>
			<point x="684" y="0" type="line"/>
			<point x="725" y="0" type="line"/>
			<point x="725" y="308" type="line" smooth="yes"/>
			<point x="725" y="432"/>
			<point x="677" y="492"/>
			<point x="582" y="492" type="curve" smooth="yes"/>
			<point x="527" y="492"/>
			<point x="474" y="454"/>
			<point x="419" y="393" type="curve"/>
			<point x="402" y="453"/>
			<point x="364" y="492"/>
			<point x="287" y="492" type="curve" smooth="yes"/>
			<point x="233" y="492"/>
			<point x="178" y="454"/>
			<point x="135" y="405" type="curve"/>
			<point x="133" y="405" type="line"/>
			<point x="128" y="480" type="line"/>
			<point x="93" y="480" type="line"/>
		</contour>
	</outline>
	<anchor name="aboveLC" x="413" y="504"/>
	<anchor name="belowLC" x="412" y="-22"/>
</glyph>
<glyph name="n" format="1">
	<unicode hex="006E"/>
	<advance width="532"/>
	<outline>
		<contour>
			<point x="92" y="0" type="line"/>
			<point x="136" y="0" type="line"/>
			<point x="136" y="362" type="line"/>
			<point x="195" y="422"/>
			<point x="236" y="452"/>
			<point x="293" y="452" type="curve" smooth="yes"/>
			<point x="371" y="452"/>
			<point x="403" y="404"/>
			<point x="403" y="302" type="curve" smooth="yes"/>
			<point x="403" y="0" type="line"/>
			<point x="447" y="0" type="line"/>
			<point x="447" y="308" type="line" smooth="yes"/>
			<point x="447" y="432"/>
			<point x="401" y="492"/>
			<point x="302" y="492" type="curve" smooth="yes"/>
			<point x="236" y="492"/>
			<point x="186" y="455"/>
			<point x="137" y="406" type="curve"/>
			<point x="134" y="406" type="line"/>
			<point x="130" y="480" type="line"/>
			<point x="92" y="480" type="line"/>
		</contour>
		<contour>
			<point name="aboveLC" x="284" y="504" type="move"/>
		</contour>
		<contour>
			<point name="belowLC" x="272" y="-22" type="move"/>
		</contour>
	</outline>
</glyph>
<glyph name="o" format="2">
	<unicode hex="006F"/>
	<advance width="534"/>
	<outline>
		<contour>
			<point x="267" y="-12" type="curve" smooth="yes"/>
			<point x="382" y="-12"/>
			<point x="482" y="80"/>
			<point x="482" y="239" type="curve" smooth="yes"/>
			<point x="482" y="399"/>
			<point x="382" y="492"/>
			<point x="267" y="492" type="curve" smooth="yes"/>
			<point x="152" y="492"/>
			<point x="52" y="399"/>
			<point x="52" y="239" type="curve" smooth="yes"/>
			<point x="52" y="80"/>
			<point x="152" y="-12"/>
		</contour>
		<contour>
			<point x="267" y="25" type="curve" smooth="yes"/>
			<point x="169" y="25"/>
			<point x="95" y="111"/>
			<point x="95" y="239" type="curve" smooth="yes"/>
			<point x="95" y="367"/>
			<point x="169" y="455"/>
			<point x="267" y="455" type="curve" smooth="yes"/>
			<point x="365" y="455"/>
			<point x="439" y="367"/>
			<point x="439" y="239" type="curve" smooth="yes"/>
			<point x="439" y="111"/>
			<point x="365" y="25"/>
		</contour>
	</outline>
	<anchor name="aboveLC" x="267" y="504"/>
	<anchor name="belowLC" x="267" y="-22"/>
	<anchor name="hornLC" x="359" y="480"/>
	<anchor name="ogonekLC" x="267" y="0"/>
	<anchor name="aboverightLC" x="459" y="504"/>
</glyph>
<glyph name="p" format="1">
	<unicode hex="0070"/>
	<advance width="544"/>
	<outline>
		<contour>
			<point x="92" y="-217" type="line"/>
			<point x="136" y="-217" type="line"/>
			<point x="136" y="-42" type="line"/>
			<point x="136" y="47" type="line"/>
			<point x="186" y="10"/>
			<point x="235" y="-12"/>
			<point x="280" y="-12" type="curve" smooth="yes"/>
			<point x="393" y="-12"/>
			<point x="492" y="84"/>
			<point x="492" y="247" type="curve" smooth="yes"/>
			<point x="492" y="396"/>
			<point x="428" y="492"/>
			<point x="300" y="492" type="curve" smooth="yes"/>
			<point x="241" y="492"/>
			<point x="184" y="457"/>
			<point x="137" y="420" type="curve"/>
			<point x="134" y="420" type="line"/>
			<point x="130" y="480" type="line"/>
			<point x="92" y="480" type="line"/>
		</contour>
		<contour>
			<point x="278" y="27" type="curve" smooth="yes"/>
			<point x="241" y="27"/>
			<point x="191" y="44"/>
			<point x="136" y="89" type="curve"/>
			<point x="136" y="374" type="line"/>
			<point x="194" y="425"/>
			<point x="245" y="453"/>
			<point x="293" y="453" type="curve" smooth="yes"/>
			<point x="403" y="453"/>
			<point x="445" y="365"/>
			<point x="445" y="247" type="curve" smooth="yes"/>
			<point x="445" y="117"/>
			<point x="375" y="27"/>
		</contour>
		<contour>
			<point name="aboveLC" x="284" y="504" type="move"/>
		</contour>
		<contour>
			<point name="belowLC" x="122" y="-214" type="move"/>
		</contour>
	</outline>
</glyph>
<glyph name="q" format="2">
	<unicode hex="0071"/>
	<advance width="543"/>
	<outline>
		<contour>
			<point x="409" y="-218" type="line"/>
			<point x="450" y="-218" type="line"/>
			<point x="450" y="480" type="line"/>
			<point x="416" y="480" type="line"/>
			<point x="411" y="435" type="line"/>
			<point x="409" y="435" type="line"/>
			<point x="363" y="470"/>
			<point x="323" y="492"/>
			<point x="266" y="492" type="curve" smooth="yes"/>
			<point x="151" y="492"/>
			<point x="53" y="394"/>
			<point x="53" y="239" type="curve" smooth="yes"/>
			<point x="53" y="77"/>
			<point x="131" y="-12"/>
			<point x="251" y="-12" type="curve" smooth="yes"/>
			<point x="315" y="-12"/>
			<point x="368" y="23"/>
			<point x="411" y="64" type="curve"/>
			<point x="409" y="-32" type="line"/>
		</contour>
		<contour>
			<point x="256" y="25" type="curve" smooth="yes"/>
			<point x="153" y="25"/>
			<point x="96" y="110"/>
			<point x="96" y="239" type="curve" smooth="yes"/>
			<point x="96" y="360"/>
			<point x="170" y="455"/>
			<point x="267" y="455" type="curve" smooth="yes"/>
			<point x="315" y="455"/>
			<point x="358" y="438"/>
			<point x="409" y="392" type="curve"/>
			<point x="409" y="105" type="line"/>
			<point x="358" y="53"/>
			<point x="310" y="25"/>
		</contour>
	</outline>
	<anchor name="aboveLC" x="268" y="504"/>
	<anchor name="belowLC" x="421" y="-215"/>
</glyph>
<glyph name="r" format="2">
	<unicode hex="0072"/>
	<advance width="315"/>
	<outline>
		<contour>
			<point x="93" y="0" type="line"/>
			<point x="134" y="0" type="line"/>
			<point x="134" y="328" type="line"/>
			<point x="171" y="419"/>
			<point x="222" y="452"/>
			<point x="266" y="452" type="curve" smooth="yes"/>
			<point x="284" y="452"/>
			<point x="294" y="450"/>
			<point x="307" y="446" type="curve"/>
			<point x="318" y="482" type="line"/>
			<point x="303" y="490"/>
			<point x="288" y="492"/>
			<point x="271" y="492" type="curve" smooth="yes"/>
			<point x="214" y="492"/>
			<point x="167" y="449"/>
			<point x="135" y="390" type="curve"/>
			<point x="133" y="390" type="line"/>
			<point x="128" y="480" type="line"/>
			<point x="93" y="480" type="line"/>
		</contour>
	</outline>
	<anchor name="aboveLC" x="205" y="504"/>
	<anchor name="belowLC" x="112" y="-22"/>
</glyph>
<glyph name="s" format="1">
	<unicode hex="0073"/>
	<advance width="405"/>
	<outline>
		<contour>
			<point x="208" y="-12" type="curve" smooth="yes"/>
			<point x="312" y="-12"/>
			<point x="370" y="51"/>
			<point x="370" y="123" type="curve" smooth="yes"/>
			<point x="370" y="217"/>
			<point x="288" y="242"/>
			<point x="213" y="270" type="curve" smooth="yes"/>
			<point x="156" y="291"/>
			<point x="103" y="312"/>
			<point x="103" y="367" type="curve" smooth="yes"/>
			<point x="103" y="411"/>
			<point x="137" y="454"/>
			<point x="212" y="454" type="curve" smooth="yes"/>
			<point x="260" y="454"/>
			<point x="294" y="435"/>
			<point x="327" y="411" type="curve"/>
			<point x="351" y="442" type="line"/>
			<point x="316" y="471"/>
			<point x="265" y="492"/>
			<point x="213" y="492" type="curve" smooth="yes"/>
			<point x="113" y="492"/>
			<point x="59" y="434"/>
			<point x="59" y="364" type="curve" smooth="yes"/>
			<point x="59" y="282"/>
			<point x="135" y="253"/>
			<point x="208" y="227" type="curve" smooth="yes"/>
			<point x="263" y="207"/>
			<point x="325" y="181"/>
			<point x="325" y="121" type="curve" smooth="yes"/>
			<point x="325" y="70"/>
			<point x="286" y="26"/>
			<point x="211" y="26" type="curve" smooth="yes"/>
			<point x="142" y="26"/>
			<point x="99" y="53"/>
			<point x="58" y="87" type="curve"/>
			<point x="32" y="54" type="line"/>
			<point x="75" y="18"/>
			<point x="137" y="-12"/>
		</contour>
		<contour>
			<point name="aboveLC" x="204" y="504" type="move"/>
		</contour>
		<contour>
			<point name="baseLC" x="213" y="0" type="move"/>
		</contour>
		<contour>
			<point name="belowLC" x="213" y="-22" type="move"/>
		</contour>
	</outline>
</glyph>
<glyph name="t" format="2">
	<unicode hex="0074"/>
	<advance width="312"/>
	<outline>
		<contour>
			<point x="223" y="-8" type="curve" smooth="yes"/>
			<point x="248" y="-8"/>
			<point x="277" y="0"/>
			<point x="303" y="13" type="curve"/>
			<point x="289" y="45" type="line"/>
			<point x="267" y="34"/>
			<point x="247" y="30"/>
			<point x="229" y="30" type="curve" smooth="yes"/>
			<point x="163" y="30"/>
			<point x="148" y="72"/>
			<point x="148" y="133" type="curve" smooth="yes"/>
			<point x="148" y="442" type="line"/>
			<point x="287" y="442" type="line"/>
			<point x="287" y="480" type="line"/>
			<point x="148" y="480" type="line"/>
			<point x="148" y="639" type="line"/>
			<point x="110" y="639" type="line"/>
			<point x="104" y="480" type="line"/>
			<point x="28" y="476" type="line"/>
			<point x="28" y="442" type="line"/>
			<point x="103" y="442" type="line"/>
			<point x="103" y="136" type="line" smooth="yes"/>
			<point x="103" y="50"/>
			<point x="130" y="-8"/>
		</contour>
	</outline>
	<anchor name="aboveLC" x="135" y="635"/>
	<anchor name="aboverightLC" x="272" y="504"/>
	<anchor name="baseLC" x="204" y="0"/>
	<anchor name="belowLC" x="204" y="-22"/>
	<anchor name="center" x="144" y="241"/>
</glyph>
<glyph name="u" format="2">
	<unicode hex="0075"/>
	<advance width="528"/>
	<outline>
		<contour>
			<point x="230" y="-12" type="curve" smooth="yes"/>
			<point x="296" y="-12"/>
			<point x="346" y="25"/>
			<point x="394" y="81" type="curve"/>
			<point x="396" y="81" type="line"/>
			<point x="400" y="0" type="line"/>
			<point x="435" y="0" type="line"/>
			<point x="435" y="480" type="line"/>
			<point x="394" y="480" type="line"/>
			<point x="394" y="125" type="line"/>
			<point x="337" y="56"/>
			<point x="295" y="25"/>
			<point x="237" y="25" type="curve" smooth="yes"/>
			<point x="159" y="25"/>
			<point x="126" y="74"/>
			<point x="126" y="177" type="curve" smooth="yes"/>
			<point x="126" y="480" type="line"/>
			<point x="85" y="480" type="line"/>
			<point x="85" y="172" type="line" smooth="yes"/>
			<point x="85" y="48"/>
			<point x="131" y="-12"/>
		</contour>
	</outline>
	<anchor name="aboveLC" x="262" y="504"/>
	<anchor name="baseLC" x="259" y="0"/>
	<anchor name="belowLC" x="271" y="-22"/>
	<anchor name="hornLC" x="399" y="490"/>
	<anchor name="ogonekLC" x="379" y="0"/>
</glyph>
<glyph name="v" format="2">
	<unicode hex="0076"/>
	<advance width="431"/>
	<outline>
		<contour>
			<point x="193" y="0" type="line"/>
			<point x="241" y="0" type="line"/>
			<point x="419" y="480" type="line"/>
			<point x="377" y="480" type="line"/>
			<point x="268" y="177" type="line" smooth="yes"/>
			<point x="252" y="131"/>
			<point x="235" y="82"/>
			<point x="219" y="39" type="curve"/>
			<point x="215" y="39" type="line"/>
			<point x="199" y="82"/>
			<point x="182" y="131"/>
			<point x="166" y="177" type="curve" smooth="yes"/>
			<point x="57" y="480" type="line"/>
			<point x="12" y="480" type="line"/>
		</contour>
	</outline>
	<anchor name="aboveLC" x="217" y="504"/>
	<anchor name="belowLC" x="217" y="-22"/>
</glyph>
<glyph name="w" format="2">
	<unicode hex="0077"/>
	<advance width="685"/>
	<outline>
		<contour>
			<point x="166" y="0" type="line"/>
			<point x="221" y="0" type="line"/>
			<point x="303" y="296" type="line"/>
			<point x="318" y="342"/>
			<point x="329" y="387"/>
			<point x="340" y="436" type="curve"/>
			<point x="344" y="436" type="line"/>
			<point x="357" y="387"/>
			<point x="367" y="344"/>
			<point x="380" y="298" type="curve"/>
			<point x="464" y="0" type="line"/>
			<point x="523" y="0" type="line"/>
			<point x="661" y="480" type="line"/>
			<point x="616" y="480" type="line"/>
			<point x="531" y="169" type="line"/>
			<point x="519" y="125"/>
			<point x="508" y="85"/>
			<point x="497" y="40" type="curve"/>
			<point x="493" y="40" type="line"/>
			<point x="481" y="85"/>
			<point x="470" y="125"/>
			<point x="458" y="169" type="curve"/>
			<point x="371" y="480" type="line"/>
			<point x="316" y="480" type="line"/>
			<point x="229" y="169" type="line"/>
			<point x="218" y="125"/>
			<point x="206" y="85"/>
			<point x="195" y="40" type="curve"/>
			<point x="191" y="40" type="line"/>
			<point x="181" y="85"/>
			<point x="170" y="125"/>
			<point x="158" y="169" type="curve"/>
			<point x="72" y="480" type="line"/>
			<point x="24" y="480" type="line"/>
		</contour>
	</outline>
	<anchor name="aboveLC" x="342" y="504"/>
	<anchor name="belowLC" x="342" y="-22"/>
</glyph>
<glyph name="x" format="2">
	<unicode hex="0078"/>
	<advance width="403"/>
	<outline>
		<contour>
			<point x="14" y="0" type="line"/>
			<point x="57" y="0" type="line"/>
			<point x="141" y="133" type="line"/>
			<point x="160" y="163"/>
			<point x="178" y="193"/>
			<point x="197" y="221" type="curve"/>
			<point x="201" y="221" type="line"/>
			<point x="220" y="193"/>
			<point x="240" y="163"/>
			<point x="258" y="133" type="curve"/>
			<point x="344" y="0" type="line"/>
			<point x="389" y="0" type="line"/>
			<point x="227" y="247" type="line"/>
			<point x="376" y="480" type="line"/>
			<point x="333" y="480" type="line"/>
			<point x="257" y="356" type="line"/>
			<point x="240" y="330"/>
			<point x="224" y="304"/>
			<point x="207" y="278" type="curve"/>
			<point x="203" y="278" type="line"/>
			<point x="185" y="304"/>
			<point x="167" y="330"/>
			<point x="152" y="356" type="curve"/>
			<point x="73" y="480" type="line"/>
			<point x="28" y="480" type="line"/>
			<point x="177" y="251" type="line"/>
		</contour>
	</outline>
	<anchor name="aboveLC" x="202" y="504"/>
	<anchor name="belowLC" x="202" y="-22"/>
</glyph>
<glyph name="y" format="2">
	<unicode hex="0079"/>
	<advance width="433"/>
	<outline>
		<contour>
			<point x="71" y="-219" type="curve" smooth="yes"/>
			<point x="156" y="-219"/>
			<point x="205" y="-141"/>
			<point x="231" y="-62" type="curve"/>
			<point x="421" y="480" type="line"/>
			<point x="379" y="480" type="line"/>
			<point x="275" y="175" type="line" smooth="yes"/>
			<point x="262" y="135"/>
			<point x="246" y="83"/>
			<point x="231" y="41" type="curve"/>
			<point x="227" y="41" type="line"/>
			<point x="209" y="83"/>
			<point x="190" y="135"/>
			<point x="174" y="175" type="curve" smooth="yes"/>
			<point x="57" y="480" type="line"/>
			<point x="12" y="480" type="line"/>
			<point x="209" y="-10" type="line"/>
			<point x="196" y="-52" type="line" smooth="yes"/>
			<point x="171" y="-126"/>
			<point x="131" y="-181"/>
			<point x="72" y="-181" type="curve" smooth="yes"/>
			<point x="60" y="-181"/>
			<point x="45" y="-178"/>
			<point x="34" y="-174" type="curve"/>
			<point x="23" y="-209" type="line"/>
			<point x="36" y="-215"/>
			<point x="54" y="-219"/>
		</contour>
	</outline>
	<anchor name="aboveLC" x="228" y="504"/>
	<anchor name="belowLC" x="183" y="-237"/>
</glyph>
<glyph name="z" format="2">
	<unicode hex="007A"/>
	<advance width="404"/>
	<outline>
		<contour>
			<point x="27" y="0" type="line"/>
			<point x="378" y="0" type="line"/>
			<point x="378" y="39" type="line"/>
			<point x="85" y="39" type="line"/>
			<point x="368" y="457" type="line"/>
			<point x="368" y="480" type="line"/>
			<point x="58" y="480" type="line"/>
			<point x="58" y="442" type="line"/>
			<point x="311" y="442" type="line"/>
			<point x="27" y="24" type="line"/>
		</contour>
	</outline>
	<anchor name="aboveLC" x="223" y="504"/>
	<anchor name="belowLC" x="214" y="-22"/>
	<anchor name="center" x="204" y="241"/>
</glyph>
<glyph name="braceleft" format="2">
	<unicode hex="007B"/>
	<advance width="277"/>
	<outline>
		<contour>
			<point x="223" y="-152" type="curve" smooth="yes"/>
			<point x="256" y="-152" type="line"/>
			<point x="256" y="-125" type="line"/>
			<point x="226" y="-125" type="line" smooth="yes"/>
			<point x="164" y="-125"/>
			<point x="148" y="-91"/>
			<point x="148" y="-20" type="curve" smooth="yes"/>
			<point x="148" y="45"/>
			<point x="154" y="100"/>
			<point x="154" y="173" type="curve" smooth="yes"/>
			<point x="154" y="229"/>
			<point x="143" y="264"/>
			<point x="103" y="276" type="curve"/>
			<point x="103" y="280" type="line"/>
			<point x="143" y="292"/>
			<point x="154" y="326"/>
			<point x="154" y="383" type="curve" smooth="yes"/>
			<point x="154" y="456"/>
			<point x="148" y="511"/>
			<point x="148" y="576" type="curve" smooth="yes"/>
			<point x="148" y="647"/>
			<point x="164" y="681"/>
			<point x="226" y="681" type="curve" smooth="yes"/>
			<point x="256" y="681" type="line"/>
			<point x="256" y="708" type="line"/>
			<point x="223" y="708" type="line" smooth="yes"/>
			<point x="150" y="708"/>
			<point x="113" y="681"/>
			<point x="113" y="580" type="curve" smooth="yes"/>
			<point x="113" y="507"/>
			<point x="122" y="444"/>
			<point x="122" y="372" type="curve" smooth="yes"/>
			<point x="122" y="333"/>
			<point x="105" y="293"/>
			<point x="36" y="293" type="curve"/>
			<point x="36" y="263" type="line"/>
			<point x="105" y="263"/>
			<point x="122" y="223"/>
			<point x="122" y="182" type="curve" smooth="yes"/>
			<point x="122" y="112"/>
			<point x="113" y="49"/>
			<point x="113" y="-24" type="curve" smooth="yes"/>
			<point x="113" y="-125"/>
			<point x="150" y="-152"/>
		</contour>
	</outline>
</glyph>
<glyph name="braceright" format="2">
	<unicode hex="007D"/>
	<advance width="277"/>
	<outline>
		<contour>
			<point x="21" y="-152" type="line"/>
			<point x="54" y="-152" type="line" smooth="yes"/>
			<point x="127" y="-152"/>
			<point x="164" y="-125"/>
			<point x="164" y="-24" type="curve" smooth="yes"/>
			<point x="164" y="49"/>
			<point x="155" y="112"/>
			<point x="155" y="182" type="curve" smooth="yes"/>
			<point x="155" y="223"/>
			<point x="172" y="263"/>
			<point x="241" y="263" type="curve"/>
			<point x="241" y="293" type="line"/>
			<point x="172" y="293"/>
			<point x="155" y="333"/>
			<point x="155" y="372" type="curve" smooth="yes"/>
			<point x="155" y="444"/>
			<point x="164" y="507"/>
			<point x="164" y="580" type="curve" smooth="yes"/>
			<point x="164" y="681"/>
			<point x="127" y="708"/>
			<point x="54" y="708" type="curve" smooth="yes"/>
			<point x="21" y="708" type="line"/>
			<point x="21" y="681" type="line"/>
			<point x="51" y="681" type="line" smooth="yes"/>
			<point x="113" y="681"/>
			<point x="129" y="647"/>
			<point x="129" y="576" type="curve" smooth="yes"/>
			<point x="129" y="511"/>
			<point x="123" y="456"/>
			<point x="123" y="383" type="curve" smooth="yes"/>
			<point x="123" y="326"/>
			<point x="134" y="292"/>
			<point x="174" y="280" type="curve"/>
			<point x="174" y="276" type="line"/>
			<point x="134" y="264"/>
			<point x="123" y="229"/>
			<point x="123" y="173" type="curve" smooth="yes"/>
			<point x="123" y="100"/>
			<point x="129" y="45"/>
			<point x="129" y="-20" type="curve" smooth="yes"/>
			<point x="129" y="-91"/>
			<point x="113" y="-125"/>
			<point x="51" y="-125" type="curve" smooth="yes"/>
			<point x="21" y="-125" type="line"/>
		</contour>
	</outline>
</glyph>
<glyph name="asciitilde" format="2">
	<unicode hex="007E"/>
	<advance width="477"/>
	<outline>
		<contour>
			<point x="328" y="267" type="curve" smooth="yes"/>
			<point x="367" y="267"/>
			<point x="408" y="293"/>
			<point x="437" y="348" type="curve"/>
			<point x="409" y="366" type="line"/>
			<point x="386" y="319"/>
			<point x="360" y="302"/>
			<point x="330" y="302" type="curve" smooth="yes"/>
			<point x="272" y="302"/>
			<point x="226" y="393"/>
			<point x="149" y="393" type="curve" smooth="yes"/>
			<point x="110" y="393"/>
			<point x="69" y="367"/>
			<point x="41" y="311" type="curve"/>
			<point x="68" y="294" type="line"/>
			<point x="92" y="341"/>
			<point x="117" y="358"/>
			<point x="147" y="358" type="curve" smooth="yes"/>
			<point x="205" y="358"/>
			<point x="252" y="267"/>
		</contour>
	</outline>
</glyph>
<glyph name="exclamdown" format="2">
	<unicode hex="00A1"/>
	<advance width="257"/>
	<outline>
		<contour>
			<point x="107" y="-190" type="line"/>
			<point x="150" y="-190" type="line"/>
			<point x="149" y="-122" type="line"/>
			<point x="144" y="302" type="line"/>
			<point x="113" y="302" type="line"/>
			<point x="107" y="-122" type="line"/>
		</contour>
		<contour>
			<point x="128" y="404" type="curve" smooth="yes"/>
			<point x="149" y="404"/>
			<point x="169" y="420"/>
			<point x="169" y="449" type="curve" smooth="yes"/>
			<point x="169" y="475"/>
			<point x="149" y="492"/>
			<point x="128" y="492" type="curve" smooth="yes"/>
			<point x="107" y="492"/>
			<point x="87" y="475"/>
			<point x="87" y="449" type="curve" smooth="yes"/>
			<point x="87" y="420"/>
			<point x="107" y="404"/>
		</contour>
	</outline>
</glyph>
<glyph name="cent" format="2">
	<unicode hex="00A2"/>
	<advance width="477"/>
	<outline>
		<contour>
			<point x="280" y="81" type="curve" smooth="yes"/>
			<point x="342" y="81"/>
			<point x="393" y="108"/>
			<point x="434" y="145" type="curve"/>
			<point x="412" y="172" type="line"/>
			<point x="379" y="142"/>
			<point x="334" y="117"/>
			<point x="282" y="117" type="curve" smooth="yes"/>
			<point x="174" y="117"/>
			<point x="104" y="195"/>
			<point x="104" y="312" type="curve" smooth="yes"/>
			<point x="104" y="428"/>
			<point x="181" y="506"/>
			<point x="282" y="506" type="curve" smooth="yes"/>
			<point x="330" y="506"/>
			<point x="368" y="485"/>
			<point x="399" y="456" type="curve"/>
			<point x="422" y="482" type="line"/>
			<point x="390" y="513"/>
			<point x="347" y="542"/>
			<point x="282" y="542" type="curve" smooth="yes"/>
			<point x="164" y="542"/>
			<point x="62" y="461"/>
			<point x="62" y="312" type="curve" smooth="yes"/>
			<point x="62" y="164"/>
			<point x="155" y="81"/>
		</contour>
		<contour>
			<point x="254" y="-27" type="line"/>
			<point x="287" y="-27" type="line"/>
			<point x="287" y="652" type="line"/>
			<point x="254" y="652" type="line"/>
		</contour>
	</outline>
</glyph>
<glyph name="sterling" format="1">
	<unicode hex="00A3"/>
	<advance width="479"/>
	<outline>
		<contour>
			<point x="57" y="0" type="line"/>
			<point x="428" y="0" type="line"/>
			<point x="428" y="40" type="line"/>
			<point x="133" y="40" type="line"/>
			<point x="133" y="44" type="line"/>
			<point x="179" y="88"/>
			<point x="205" y="138"/>
			<point x="205" y="221" type="curve" smooth="yes"/>
			<point x="205" y="323"/>
			<point x="157" y="395"/>
			<point x="157" y="481" type="curve" smooth="yes"/>
			<point x="157" y="554"/>
			<point x="200" y="612"/>
			<point x="282" y="612" type="curve" smooth="yes"/>
			<point x="335" y="612"/>
			<point x="369" y="586"/>
			<point x="397" y="553" type="curve"/>
			<point x="426" y="580" type="line"/>
			<point x="396" y="618"/>
			<point x="351" y="651"/>
			<point x="282" y="651" type="curve" smooth="yes"/>
			<point x="177" y="651"/>
			<point x="112" y="586"/>
			<point x="112" y="481" type="curve" smooth="yes"/>
			<point x="112" y="392"/>
			<point x="163" y="312"/>
			<point x="163" y="221" type="curve" smooth="yes"/>
			<point x="163" y="144"/>
			<point x="131" y="69"/>
			<point x="57" y="27" type="curve"/>
		</contour>
		<contour>
			<point x="54" y="293" type="line"/>
			<point x="354" y="293" type="line"/>
			<point x="354" y="329" type="line"/>
			<point x="120" y="329" type="line"/>
			<point x="54" y="326" type="line"/>
		</contour>
	</outline>
</glyph>
<glyph name="currency" format="2">
	<unicode hex="00A4"/>
	<advance width="477"/>
	<outline>
		<contour>
			<point x="56" y="115" type="line"/>
			<point x="121" y="183" type="line"/>
			<point x="153" y="153"/>
			<point x="195" y="137"/>
			<point x="239" y="137" type="curve" smooth="yes"/>
			<point x="282" y="137"/>
			<point x="324" y="153"/>
			<point x="355" y="183" type="curve"/>
			<point x="421" y="115" type="line"/>
			<point x="446" y="142" type="line"/>
			<point x="381" y="209" type="line"/>
			<point x="404" y="241"/>
			<point x="419" y="281"/>
			<point x="419" y="328" type="curve" smooth="yes"/>
			<point x="419" y="377"/>
			<point x="404" y="418"/>
			<point x="380" y="450" type="curve"/>
			<point x="446" y="518" type="line"/>
			<point x="421" y="545" type="line"/>
			<point x="355" y="476" type="line"/>
			<point x="323" y="505"/>
			<point x="282" y="521"/>
			<point x="239" y="521" type="curve" smooth="yes"/>
			<point x="195" y="521"/>
			<point x="153" y="505"/>
			<point x="122" y="476" type="curve"/>
			<point x="56" y="545" type="line"/>
			<point x="31" y="518" type="line"/>
			<point x="96" y="450" type="line"/>
			<point x="73" y="418"/>
			<point x="59" y="377"/>
			<point x="59" y="328" type="curve" smooth="yes"/>
			<point x="59" y="281"/>
			<point x="73" y="241"/>
			<point x="96" y="209" type="curve"/>
			<point x="31" y="142" type="line"/>
		</contour>
		<contour>
			<point x="239" y="172" type="curve" smooth="yes"/>
			<point x="163" y="172"/>
			<point x="100" y="236"/>
			<point x="100" y="328" type="curve" smooth="yes"/>
			<point x="100" y="421"/>
			<point x="163" y="486"/>
			<point x="239" y="486" type="curve" smooth="yes"/>
			<point x="314" y="486"/>
			<point x="377" y="421"/>
			<point x="377" y="328" type="curve" smooth="yes"/>
			<point x="377" y="236"/>
			<point x="314" y="172"/>
		</contour>
	</outline>
</glyph>
<glyph name="yen" format="2">
	<unicode hex="00A5"/>
	<advance width="477"/>
	<outline>
		<contour>
			<point x="217" y="0" type="line"/>
			<point x="258" y="0" type="line"/>
			<point x="258" y="160" type="line"/>
			<point x="426" y="160" type="line"/>
			<point x="426" y="193" type="line"/>
			<point x="258" y="193" type="line"/>
			<point x="258" y="270" type="line"/>
			<point x="426" y="270" type="line"/>
			<point x="426" y="303" type="line"/>
			<point x="272" y="303" type="line"/>
			<point x="447" y="640" type="line"/>
			<point x="404" y="640" type="line"/>
			<point x="309" y="444" type="line"/>
			<point x="286" y="400"/>
			<point x="266" y="356"/>
			<point x="241" y="306" type="curve"/>
			<point x="237" y="306" type="line"/>
			<point x="213" y="356"/>
			<point x="192" y="400"/>
			<point x="170" y="444" type="curve" smooth="yes"/>
			<point x="75" y="640" type="line"/>
			<point x="30" y="640" type="line"/>
			<point x="203" y="303" type="line"/>
			<point x="50" y="303" type="line"/>
			<point x="50" y="270" type="line"/>
			<point x="217" y="270" type="line"/>
			<point x="217" y="193" type="line"/>
			<point x="50" y="193" type="line"/>
			<point x="50" y="160" type="line"/>
			<point x="217" y="160" type="line"/>
		</contour>
	</outline>
</glyph>
<glyph name="brokenbar" format="2">
	<unicode hex="00A6"/>
	<advance width="225"/>
	<outline>
		<contour>
			<point x="95" y="278" type="line"/>
			<point x="129" y="278" type="line"/>
			<point x="129" y="750" type="line"/>
			<point x="95" y="750" type="line"/>
		</contour>
		<contour>
			<point x="95" y="-250" type="line"/>
			<point x="129" y="-250" type="line"/>
			<point x="129" y="220" type="line"/>
			<point x="95" y="220" type="line"/>
		</contour>
	</outline>
</glyph>
<glyph name="section" format="2">
	<unicode hex="00A7"/>
	<advance width="477"/>
	<outline>
		<contour>
			<point x="233" y="-51" type="curve" smooth="yes"/>
			<point x="308" y="-51"/>
			<point x="374" y="0"/>
			<point x="374" y="72" type="curve" smooth="yes"/>
			<point x="374" y="241"/>
			<point x="89" y="203"/>
			<point x="89" y="356" type="curve" smooth="yes"/>
			<point x="89" y="410"/>
			<point x="124" y="437"/>
			<point x="173" y="464" type="curve"/>
			<point x="156" y="492" type="line"/>
			<point x="98" y="464"/>
			<point x="51" y="424"/>
			<point x="51" y="353" type="curve" smooth="yes"/>
			<point x="51" y="171"/>
			<point x="334" y="207"/>
			<point x="334" y="70" type="curve" smooth="yes"/>
			<point x="334" y="24"/>
			<point x="295" y="-16"/>
			<point x="233" y="-16" type="curve" smooth="yes"/>
			<point x="171" y="-16"/>
			<point x="135" y="6"/>
			<point x="101" y="38" type="curve"/>
			<point x="73" y="11" type="line"/>
			<point x="112" y="-25"/>
			<point x="164" y="-51"/>
		</contour>
		<contour>
			<point x="315" y="143" type="line"/>
			<point x="378" y="174"/>
			<point x="427" y="206"/>
			<point x="427" y="284" type="curve" smooth="yes"/>
			<point x="427" y="470"/>
			<point x="146" y="435"/>
			<point x="146" y="567" type="curve" smooth="yes"/>
			<point x="146" y="606"/>
			<point x="173" y="645"/>
			<point x="241" y="645" type="curve" smooth="yes"/>
			<point x="292" y="645"/>
			<point x="324" y="625"/>
			<point x="356" y="599" type="curve"/>
			<point x="379" y="628" type="line"/>
			<point x="343" y="658"/>
			<point x="295" y="681"/>
			<point x="241" y="681" type="curve" smooth="yes"/>
			<point x="149" y="681"/>
			<point x="106" y="621"/>
			<point x="106" y="565" type="curve" smooth="yes"/>
			<point x="106" y="402"/>
			<point x="388" y="438"/>
			<point x="388" y="281" type="curve" smooth="yes"/>
			<point x="388" y="221"/>
			<point x="353" y="198"/>
			<point x="295" y="173" type="curve"/>
		</contour>
	</outline>
</glyph>
<glyph name="dieresis" format="1">
	<unicode hex="00A8"/>
	<advance width="535"/>
	<outline>
		<component base="dieresiscmb" xOffset="267"/>
		<contour>
			<point name="_aboveLC" x="267" y="504" type="move"/>
		</contour>
	</outline>
</glyph>
<glyph name="copyright" format="2">
	<unicode hex="00A9"/>
	<advance width="741"/>
	<outline>
		<contour>
			<point x="371" y="-12" type="curve" smooth="yes"/>
			<point x="543" y="-12"/>
			<point x="690" y="120"/>
			<point x="690" y="322" type="curve" smooth="yes"/>
			<point x="690" y="523"/>
			<point x="543" y="652"/>
			<point x="371" y="652" type="curve" smooth="yes"/>
			<point x="198" y="652"/>
			<point x="51" y="523"/>
			<point x="51" y="322" type="curve" smooth="yes"/>
			<point x="51" y="120"/>
			<point x="198" y="-12"/>
		</contour>
		<contour>
			<point x="371" y="19" type="curve" smooth="yes"/>
			<point x="217" y="19"/>
			<point x="86" y="141"/>
			<point x="86" y="322" type="curve" smooth="yes"/>
			<point x="86" y="502"/>
			<point x="217" y="622"/>
			<point x="371" y="622" type="curve" smooth="yes"/>
			<point x="524" y="622"/>
			<point x="655" y="502"/>
			<point x="655" y="322" type="curve" smooth="yes"/>
			<point x="655" y="141"/>
			<point x="524" y="19"/>
		</contour>
		<contour>
			<point x="376" y="124" type="curve" smooth="yes"/>
			<point x="440" y="124"/>
			<point x="477" y="148"/>
			<point x="511" y="185" type="curve"/>
			<point x="489" y="209" type="line"/>
			<point x="458" y="179"/>
			<point x="431" y="161"/>
			<point x="378" y="161" type="curve" smooth="yes"/>
			<point x="297" y="161"/>
			<point x="244" y="219"/>
			<point x="244" y="313" type="curve" smooth="yes"/>
			<point x="244" y="408"/>
			<point x="302" y="472"/>
			<point x="380" y="472" type="curve" smooth="yes"/>
			<point x="420" y="472"/>
			<point x="453" y="457"/>
			<point x="478" y="428" type="curve"/>
			<point x="502" y="451" type="line"/>
			<point x="474" y="485"/>
			<point x="434" y="509"/>
			<point x="381" y="509" type="curve" smooth="yes"/>
			<point x="286" y="509"/>
			<point x="201" y="435"/>
			<point x="201" y="313" type="curve" smooth="yes"/>
			<point x="201" y="193"/>
			<point x="279" y="124"/>
		</contour>
	</outline>
</glyph>
<glyph name="logicalnot" format="2">
	<unicode hex="00AC"/>
	<advance width="477"/>
	<outline>
		<contour>
			<point x="404" y="110" type="line"/>
			<point x="443" y="110" type="line"/>
			<point x="443" y="348" type="line"/>
			<point x="34" y="348" type="line"/>
			<point x="34" y="312" type="line"/>
			<point x="404" y="312" type="line"/>
		</contour>
	</outline>
</glyph>
<glyph name="registered" format="2">
	<unicode hex="00AE"/>
	<advance width="399"/>
	<outline>
		<contour>
			<point x="199" y="325" type="curve" smooth="yes"/>
			<point x="298" y="325"/>
			<point x="381" y="401"/>
			<point x="381" y="518" type="curve" smooth="yes"/>
			<point x="381" y="634"/>
			<point x="298" y="712"/>
			<point x="199" y="712" type="curve" smooth="yes"/>
			<point x="100" y="712"/>
			<point x="18" y="634"/>
			<point x="18" y="518" type="curve" smooth="yes"/>
			<point x="18" y="401"/>
			<point x="100" y="325"/>
		</contour>
		<contour>
			<point x="199" y="353" type="curve" smooth="yes"/>
			<point x="115" y="353"/>
			<point x="48" y="422"/>
			<point x="48" y="518" type="curve" smooth="yes"/>
			<point x="48" y="613"/>
			<point x="115" y="684"/>
			<point x="199" y="684" type="curve" smooth="yes"/>
			<point x="283" y="684"/>
			<point x="350" y="613"/>
			<point x="350" y="518" type="curve" smooth="yes"/>
			<point x="350" y="422"/>
			<point x="283" y="353"/>
		</contour>
		<contour>
			<point x="132" y="418" type="line"/>
			<point x="163" y="418" type="line"/>
			<point x="163" y="494" type="line"/>
			<point x="211" y="494" type="line"/>
			<point x="250" y="418" type="line"/>
			<point x="286" y="418" type="line"/>
			<point x="237" y="505" type="line"/>
			<point x="259" y="511"/>
			<point x="277" y="535"/>
			<point x="277" y="561" type="curve" smooth="yes"/>
			<point x="277" y="610"/>
			<point x="239" y="625"/>
			<point x="200" y="625" type="curve" smooth="yes"/>
			<point x="132" y="625" type="line"/>
		</contour>
		<contour>
			<point x="163" y="521" type="line"/>
			<point x="163" y="597" type="line"/>
			<point x="195" y="597" type="line" smooth="yes"/>
			<point x="232" y="597"/>
			<point x="244" y="582"/>
			<point x="244" y="558" type="curve" smooth="yes"/>
			<point x="244" y="532"/>
			<point x="223" y="521"/>
			<point x="192" y="521" type="curve" smooth="yes"/>
		</contour>
	</outline>
</glyph>
<glyph name="macron" format="1">
	<unicode hex="00AF"/>
	<advance width="535"/>
	<outline>
		<component base="macroncmb" xOffset="267"/>
		<contour>
			<point name="_aboveLC" x="267" y="504" type="move"/>
		</contour>
	</outline>
</glyph>
<glyph name="degree" format="2">
	<unicode hex="00B0"/>
	<advance width="310"/>
	<outline>
		<contour>
			<point x="155" y="449" type="curve" smooth="yes"/>
			<point x="213" y="449"/>
			<point x="268" y="492"/>
			<point x="268" y="566" type="curve" smooth="yes"/>
			<point x="268" y="640"/>
			<point x="213" y="684"/>
			<point x="155" y="684" type="curve" smooth="yes"/>
			<point x="97" y="684"/>
			<point x="42" y="640"/>
			<point x="42" y="566" type="curve" smooth="yes"/>
			<point x="42" y="492"/>
			<point x="97" y="449"/>
		</contour>
		<contour>
			<point x="155" y="479" type="curve" smooth="yes"/>
			<point x="108" y="479"/>
			<point x="74" y="516"/>
			<point x="74" y="566" type="curve" smooth="yes"/>
			<point x="74" y="617"/>
			<point x="108" y="654"/>
			<point x="155" y="654" type="curve" smooth="yes"/>
			<point x="202" y="654"/>
			<point x="236" y="617"/>
			<point x="236" y="566" type="curve" smooth="yes"/>
			<point x="236" y="516"/>
			<point x="202" y="479"/>
		</contour>
	</outline>
</glyph>
<glyph name="plusminus" format="2">
	<unicode hex="00B1"/>
	<advance width="477"/>
	<outline>
		<contour>
			<point x="219" y="107" type="line"/>
			<point x="258" y="107" type="line"/>
			<point x="258" y="310" type="line"/>
			<point x="443" y="310" type="line"/>
			<point x="443" y="345" type="line"/>
			<point x="258" y="345" type="line"/>
			<point x="258" y="550" type="line"/>
			<point x="219" y="550" type="line"/>
			<point x="219" y="345" type="line"/>
			<point x="34" y="345" type="line"/>
			<point x="34" y="310" type="line"/>
			<point x="219" y="310" type="line"/>
		</contour>
		<contour>
			<point x="34" y="0" type="line"/>
			<point x="443" y="0" type="line"/>
			<point x="443" y="35" type="line"/>
			<point x="34" y="35" type="line"/>
		</contour>
	</outline>
</glyph>
<glyph name="acute" format="1">
	<unicode hex="00B4"/>
	<advance width="535"/>
	<outline>
		<component base="acutecmb" xOffset="267"/>
		<contour>
			<point name="_aboveLC" x="267" y="504" type="move"/>
		</contour>
	</outline>
</glyph>
<glyph name="mu" format="2">
	<unicode hex="00B5"/>
	<unicode hex="03BC"/>
	<advance width="541"/>
	<outline>
		<contour>
			<point x="93" y="-180" type="line"/>
			<point x="134" y="-180" type="line"/>
			<point x="130" y="-99"/>
			<point x="130" y="-60"/>
			<point x="130" y="50" type="curve"/>
			<point x="157" y="0"/>
			<point x="195" y="-12"/>
			<point x="244" y="-12" type="curve" smooth="yes"/>
			<point x="303" y="-12"/>
			<point x="355" y="20"/>
			<point x="397" y="90" type="curve"/>
			<point x="399" y="90" type="line"/>
			<point x="399" y="18"/>
			<point x="414" y="-12"/>
			<point x="460" y="-12" type="curve"/>
			<point x="478" y="-12"/>
			<point x="491" y="-8"/>
			<point x="501" y="-3" type="curve"/>
			<point x="494" y="31" type="line"/>
			<point x="482" y="27"/>
			<point x="475" y="25"/>
			<point x="466" y="25" type="curve" smooth="yes"/>
			<point x="449" y="25"/>
			<point x="436" y="36"/>
			<point x="436" y="61" type="curve" smooth="yes"/>
			<point x="436" y="199"/>
			<point x="438" y="338"/>
			<point x="439" y="480" type="curve"/>
			<point x="398" y="480" type="line"/>
			<point x="398" y="138" type="line"/>
			<point x="340" y="39"/>
			<point x="292" y="25"/>
			<point x="241" y="25" type="curve" smooth="yes"/>
			<point x="165" y="25"/>
			<point x="134" y="82"/>
			<point x="134" y="177" type="curve" smooth="yes"/>
			<point x="134" y="480" type="line"/>
			<point x="93" y="480" type="line"/>
		</contour>
	</outline>
</glyph>
<glyph name="paragraph" format="2">
	<unicode hex="00B6"/>
	<advance width="511"/>
	<outline>
		<contour>
			<point x="372" y="-80" type="line"/>
			<point x="415" y="-80" type="line"/>
			<point x="415" y="659" type="line"/>
			<point x="372" y="659" type="line"/>
		</contour>
		<contour>
			<point x="291" y="245" type="curve" smooth="yes"/>
			<point x="318" y="245" type="line"/>
			<point x="318" y="659" type="line"/>
			<point x="274" y="659" type="line" smooth="yes"/>
			<point x="138" y="659"/>
			<point x="42" y="602"/>
			<point x="42" y="452" type="curve" smooth="yes"/>
			<point x="42" y="303"/>
			<point x="143" y="245"/>
		</contour>
	</outline>
</glyph>
<glyph name="questiondown" format="2">
	<unicode hex="00BF"/>
	<advance width="401"/>
	<outline>
		<contour>
			<point x="205" y="-202" type="curve" smooth="yes"/>
			<point x="274" y="-202"/>
			<point x="325" y="-168"/>
			<point x="364" y="-125" type="curve"/>
			<point x="338" y="-102" type="line"/>
			<point x="305" y="-142"/>
			<point x="257" y="-166"/>
			<point x="208" y="-166" type="curve" smooth="yes"/>
			<point x="129" y="-166"/>
			<point x="93" y="-109"/>
			<point x="93" y="-47" type="curve" smooth="yes"/>
			<point x="93" y="77"/>
			<point x="259" y="135"/>
			<point x="237" y="302" type="curve"/>
			<point x="200" y="302" type="line"/>
			<point x="219" y="149"/>
			<point x="51" y="86"/>
			<point x="51" y="-50" type="curve" smooth="yes"/>
			<point x="51" y="-136"/>
			<point x="108" y="-202"/>
		</contour>
		<contour>
			<point x="215" y="404" type="curve" smooth="yes"/>
			<point x="236" y="404"/>
			<point x="256" y="420"/>
			<point x="256" y="449" type="curve" smooth="yes"/>
			<point x="256" y="475"/>
			<point x="236" y="492"/>
			<point x="215" y="492" type="curve" smooth="yes"/>
			<point x="194" y="492"/>
			<point x="174" y="475"/>
			<point x="174" y="449" type="curve" smooth="yes"/>
			<point x="174" y="420"/>
			<point x="194" y="404"/>
		</contour>
	</outline>
</glyph>
<glyph name="AE" format="2">
	<unicode hex="00C6"/>
	<advance width="808"/>
	<outline>
		<contour>
			<point x="22" y="0" type="line"/>
			<point x="68" y="0" type="line"/>
			<point x="282" y="389" type="line"/>
			<point x="324" y="468"/>
			<point x="367" y="547"/>
			<point x="407" y="622" type="curve"/>
			<point x="411" y="622" type="line"/>
			<point x="411" y="0" type="line"/>
			<point x="761" y="0" type="line"/>
			<point x="761" y="37" type="line"/>
			<point x="454" y="37" type="line"/>
			<point x="454" y="332" type="line"/>
			<point x="701" y="332" type="line"/>
			<point x="701" y="369" type="line"/>
			<point x="454" y="369" type="line"/>
			<point x="454" y="622" type="line"/>
			<point x="751" y="622" type="line"/>
			<point x="751" y="659" type="line"/>
			<point x="388" y="659" type="line"/>
		</contour>
		<contour>
			<point x="171" y="219" type="line"/>
			<point x="444" y="219" type="line"/>
			<point x="444" y="255" type="line"/>
			<point x="171" y="255" type="line"/>
		</contour>
	</outline>
	<anchor name="aboveUC" x="576" y="681"/>
</glyph>
<glyph name="Eth" format="2">
	<unicode hex="00D0"/>
	<advance width="624"/>
	<outline>
		<contour>
			<point x="37" y="331" type="line"/>
			<point x="325" y="331" type="line"/>
			<point x="325" y="366" type="line"/>
			<point x="120" y="366" type="line"/>
			<point x="37" y="364" type="line"/>
		</contour>
		<component base="D" xOffset="20"/>
	</outline>
</glyph>
<glyph name="multiply" format="2">
	<unicode hex="00D7"/>
	<advance width="477"/>
	<outline>
		<contour>
			<point x="77" y="136" type="line"/>
			<point x="239" y="305" type="line"/>
			<point x="401" y="136" type="line"/>
			<point x="426" y="162" type="line"/>
			<point x="264" y="330" type="line"/>
			<point x="426" y="497" type="line"/>
			<point x="401" y="524" type="line"/>
			<point x="239" y="355" type="line"/>
			<point x="77" y="524" type="line"/>
			<point x="52" y="497" type="line"/>
			<point x="214" y="330" type="line"/>
			<point x="52" y="162" type="line"/>
		</contour>
	</outline>
</glyph>
<glyph name="Oslash" format="2">
	<unicode hex="00D8"/>
	<advance width="651"/>
	<outline>
		<contour>
			<point x="84" y="-22" type="line"/>
			<point x="593" y="661" type="line"/>
			<point x="565" y="682" type="line"/>
			<point x="56" y="-2" type="line"/>
		</contour>
		<component base="O" xOffset="4"/>
	</outline>
</glyph>
<glyph name="Thorn" format="2">
	<unicode hex="00DE"/>
	<advance width="562"/>
	<outline>
		<contour>
			<point x="98" y="0" type="line"/>
			<point x="141" y="0" type="line"/>
			<point x="141" y="167" type="line"/>
			<point x="276" y="167" type="line" smooth="yes"/>
			<point x="423" y="167"/>
			<point x="510" y="230"/>
			<point x="510" y="358" type="curve" smooth="yes"/>
			<point x="510" y="493"/>
			<point x="423" y="541"/>
			<point x="276" y="541" type="curve" smooth="yes"/>
			<point x="141" y="541" type="line"/>
			<point x="141" y="659" type="line"/>
			<point x="98" y="659" type="line"/>
		</contour>
		<contour>
			<point x="141" y="204" type="line"/>
			<point x="141" y="505" type="line"/>
			<point x="264" y="505" type="line" smooth="yes"/>
			<point x="400" y="505"/>
			<point x="466" y="470"/>
			<point x="466" y="358" type="curve" smooth="yes"/>
			<point x="466" y="249"/>
			<point x="401" y="204"/>
			<point x="264" y="204" type="curve" smooth="yes"/>
		</contour>
	</outline>
</glyph>
<glyph name="germandbls" format="2">
	<unicode hex="00DF"/>
	<advance width="540"/>
	<outline>
		<contour>
			<point x="366" y="-12" type="curve" smooth="yes"/>
			<point x="450" y="-12"/>
			<point x="510" y="47"/>
			<point x="510" y="127" type="curve" smooth="yes"/>
			<point x="510" y="295"/>
			<point x="300" y="260"/>
			<point x="300" y="377" type="curve" smooth="yes"/>
			<point x="300" y="458"/>
			<point x="399" y="493"/>
			<point x="399" y="597" type="curve" smooth="yes"/>
			<point x="399" y="672"/>
			<point x="347" y="730"/>
			<point x="262" y="730" type="curve" smooth="yes"/>
			<point x="160" y="730"/>
			<point x="93" y="656"/>
			<point x="93" y="533" type="curve" smooth="yes"/>
			<point x="93" y="0" type="line"/>
			<point x="134" y="0" type="line"/>
			<point x="134" y="519" type="line" smooth="yes"/>
			<point x="134" y="639"/>
			<point x="184" y="694"/>
			<point x="260" y="694" type="curve" smooth="yes"/>
			<point x="324" y="694"/>
			<point x="357" y="651"/>
			<point x="357" y="593" type="curve" smooth="yes"/>
			<point x="357" y="503"/>
			<point x="258" y="471"/>
			<point x="258" y="374" type="curve" smooth="yes"/>
			<point x="258" y="229"/>
			<point x="468" y="265"/>
			<point x="468" y="124" type="curve" smooth="yes"/>
			<point x="468" y="73"/>
			<point x="434" y="24"/>
			<point x="365" y="24" type="curve" smooth="yes"/>
			<point x="323" y="24"/>
			<point x="287" y="35"/>
			<point x="251" y="67" type="curve"/>
			<point x="230" y="39" type="line"/>
			<point x="267" y="4"/>
			<point x="313" y="-12"/>
		</contour>
	</outline>
</glyph>
<glyph name="ae" format="2">
	<unicode hex="00E6"/>
	<advance width="776"/>
	<outline>
		<contour>
			<point x="197" y="-12" type="curve" smooth="yes"/>
			<point x="258" y="-12"/>
			<point x="337" y="26"/>
			<point x="400" y="88" type="curve"/>
			<point x="435" y="38"/>
			<point x="485" y="-12"/>
			<point x="572" y="-12" type="curve" smooth="yes"/>
			<point x="643" y="-12"/>
			<point x="682" y="8"/>
			<point x="719" y="35" type="curve"/>
			<point x="702" y="63" type="line"/>
			<point x="668" y="37"/>
			<point x="628" y="24"/>
			<point x="576" y="24" type="curve" smooth="yes"/>
			<point x="478" y="24"/>
			<point x="403" y="112"/>
			<point x="403" y="234" type="curve"/>
			<point x="736" y="234" type="line"/>
			<point x="738" y="246"/>
			<point x="739" y="258"/>
			<point x="739" y="270" type="curve" smooth="yes"/>
			<point x="739" y="411"/>
			<point x="673" y="492"/>
			<point x="561" y="492" type="curve" smooth="yes"/>
			<point x="490" y="492"/>
			<point x="428" y="444"/>
			<point x="393" y="370" type="curve"/>
			<point x="377" y="444"/>
			<point x="331" y="492"/>
			<point x="253" y="492" type="curve" smooth="yes"/>
			<point x="181" y="492"/>
			<point x="115" y="455"/>
			<point x="82" y="430" type="curve"/>
			<point x="101" y="401" type="line"/>
			<point x="133" y="423"/>
			<point x="189" y="456"/>
			<point x="249" y="456" type="curve" smooth="yes"/>
			<point x="345" y="456"/>
			<point x="365" y="375"/>
			<point x="364" y="300" type="curve"/>
			<point x="157" y="277"/>
			<point x="58" y="226"/>
			<point x="58" y="118" type="curve" smooth="yes"/>
			<point x="58" y="28"/>
			<point x="122" y="-12"/>
		</contour>
		<contour>
			<point x="204" y="24" type="curve" smooth="yes"/>
			<point x="148" y="24"/>
			<point x="100" y="51"/>
			<point x="100" y="121" type="curve" smooth="yes"/>
			<point x="100" y="199"/>
			<point x="173" y="245"/>
			<point x="363" y="268" type="curve"/>
			<point x="364" y="241" type="line" smooth="yes"/>
			<point x="364" y="195"/>
			<point x="371" y="148"/>
			<point x="385" y="118" type="curve"/>
			<point x="330" y="58"/>
			<point x="256" y="24"/>
		</contour>
		<contour>
			<point x="403" y="268" type="line"/>
			<point x="413" y="378"/>
			<point x="480" y="456"/>
			<point x="560" y="456" type="curve" smooth="yes"/>
			<point x="647" y="456"/>
			<point x="700" y="392"/>
			<point x="700" y="268" type="curve"/>
		</contour>
	</outline>
</glyph>
<glyph name="eth" format="2">
	<unicode hex="00F0"/>
	<advance width="535"/>
	<outline>
		<contour>
			<point x="267" y="-12" type="curve" smooth="yes"/>
			<point x="386" y="-12"/>
			<point x="468" y="91"/>
			<point x="468" y="252" type="curve" smooth="yes"/>
			<point x="468" y="511"/>
			<point x="328" y="640"/>
			<point x="172" y="724" type="curve"/>
			<point x="154" y="695" type="line"/>
			<point x="302" y="609"/>
			<point x="426" y="506"/>
			<point x="426" y="251" type="curve" smooth="yes"/>
			<point x="426" y="125"/>
			<point x="377" y="25"/>
			<point x="267" y="25" type="curve" smooth="yes"/>
			<point x="177" y="25"/>
			<point x="102" y="105"/>
			<point x="102" y="219" type="curve" smooth="yes"/>
			<point x="102" y="319"/>
			<point x="159" y="406"/>
			<point x="269" y="406" type="curve" smooth="yes"/>
			<point x="321" y="406"/>
			<point x="375" y="388"/>
			<point x="429" y="307" type="curve"/>
			<point x="429" y="348" type="line"/>
			<point x="388" y="410"/>
			<point x="331" y="441"/>
			<point x="268" y="441" type="curve" smooth="yes"/>
			<point x="144" y="441"/>
			<point x="60" y="350"/>
			<point x="60" y="219" type="curve" smooth="yes"/>
			<point x="60" y="75"/>
			<point x="161" y="-12"/>
		</contour>
		<contour>
			<point x="158" y="516" type="line"/>
			<point x="467" y="676" type="line"/>
			<point x="452" y="703" type="line"/>
			<point x="144" y="542" type="line"/>
		</contour>
	</outline>
	<anchor name="aboveUC" x="273" y="729"/>
	<anchor name="belowLC" x="270" y="-22"/>
</glyph>
<glyph name="divide" format="2">
	<unicode hex="00F7"/>
	<advance width="477"/>
	<outline>
		<contour>
			<point x="34" y="312" type="line"/>
			<point x="443" y="312" type="line"/>
			<point x="443" y="348" type="line"/>
			<point x="34" y="348" type="line"/>
		</contour>
		<contour>
			<point x="239" y="110" type="curve" smooth="yes"/>
			<point x="259" y="110"/>
			<point x="275" y="126"/>
			<point x="275" y="150" type="curve" smooth="yes"/>
			<point x="275" y="172"/>
			<point x="259" y="188"/>
			<point x="239" y="188" type="curve" smooth="yes"/>
			<point x="218" y="188"/>
			<point x="202" y="172"/>
			<point x="202" y="150" type="curve" smooth="yes"/>
			<point x="202" y="126"/>
			<point x="218" y="110"/>
		</contour>
		<contour>
			<point x="239" y="470" type="curve" smooth="yes"/>
			<point x="259" y="470"/>
			<point x="275" y="486"/>
			<point x="275" y="510" type="curve" smooth="yes"/>
			<point x="275" y="532"/>
			<point x="259" y="548"/>
			<point x="239" y="548" type="curve" smooth="yes"/>
			<point x="218" y="548"/>
			<point x="202" y="532"/>
			<point x="202" y="510" type="curve" smooth="yes"/>
			<point x="202" y="486"/>
			<point x="218" y="470"/>
		</contour>
	</outline>
</glyph>
<glyph name="oslash" format="1">
	<unicode hex="00F8"/>
	<advance width="535"/>
	<outline>
		<contour>
			<point x="267" y="-12" type="curve" smooth="yes"/>
			<point x="383" y="-12"/>
			<point x="483" y="80"/>
			<point x="483" y="239" type="curve" smooth="yes"/>
			<point x="483" y="400"/>
			<point x="383" y="492"/>
			<point x="267" y="492" type="curve" smooth="yes"/>
			<point x="152" y="492"/>
			<point x="52" y="400"/>
			<point x="52" y="239" type="curve" smooth="yes"/>
			<point x="52" y="80"/>
			<point x="152" y="-12"/>
		</contour>
		<contour>
			<point x="267" y="26" type="curve" smooth="yes"/>
			<point x="170" y="26"/>
			<point x="97" y="112"/>
			<point x="97" y="240" type="curve" smooth="yes"/>
			<point x="97" y="366"/>
			<point x="170" y="454"/>
			<point x="267" y="454" type="curve" smooth="yes"/>
			<point x="365" y="454"/>
			<point x="438" y="367"/>
			<point x="438" y="238" type="curve" smooth="yes"/>
			<point x="438" y="112"/>
			<point x="364" y="26"/>
		</contour>
		<contour>
			<point x="72" y="-22" type="line"/>
			<point x="489" y="480" type="line"/>
			<point x="463" y="501" type="line"/>
			<point x="46" y="-1" type="line"/>
		</contour>
		<contour>
			<point name="aboveLC" x="267" y="504" type="move"/>
		</contour>
	</outline>
</glyph>
<glyph name="thorn" format="2">
	<unicode hex="00FE"/>
	<advance width="543"/>
	<outline>
		<contour>
			<point x="93" y="-218" type="line"/>
			<point x="134" y="-218" type="line"/>
			<point x="134" y="-42" type="line"/>
			<point x="134" y="47" type="line"/>
			<point x="184" y="10"/>
			<point x="233" y="-12"/>
			<point x="279" y="-12" type="curve" smooth="yes"/>
			<point x="392" y="-12"/>
			<point x="491" y="84"/>
			<point x="491" y="247" type="curve" smooth="yes"/>
			<point x="491" y="395"/>
			<point x="427" y="492"/>
			<point x="298" y="492" type="curve" smooth="yes"/>
			<point x="239" y="492"/>
			<point x="182" y="457"/>
			<point x="134" y="420" type="curve"/>
			<point x="134" y="512" type="line"/>
			<point x="134" y="720" type="line"/>
			<point x="93" y="720" type="line"/>
		</contour>
		<contour>
			<point x="277" y="25" type="curve" smooth="yes"/>
			<point x="241" y="25"/>
			<point x="189" y="42"/>
			<point x="134" y="87" type="curve"/>
			<point x="134" y="375" type="line"/>
			<point x="193" y="427"/>
			<point x="244" y="455"/>
			<point x="292" y="455" type="curve" smooth="yes"/>
			<point x="405" y="455"/>
			<point x="447" y="366"/>
			<point x="447" y="247" type="curve" smooth="yes"/>
			<point x="447" y="116"/>
			<point x="376" y="25"/>
		</contour>
	</outline>
	<anchor name="aboveUC" x="270" y="729"/>
	<anchor name="belowLC" x="122" y="-216"/>
</glyph>
<glyph name="Aogonek" format="2">
	<unicode hex="0104"/>
	<advance width="525"/>
	<outline>
		<contour>
			<point x="489" y="-204" type="curve" smooth="yes"/>
			<point x="510" y="-204"/>
			<point x="538" y="-194"/>
			<point x="553" y="-181" type="curve"/>
			<point x="537" y="-156" type="line"/>
			<point x="523" y="-165"/>
			<point x="511" y="-170"/>
			<point x="493" y="-170" type="curve" smooth="yes"/>
			<point x="468" y="-170"/>
			<point x="443" y="-152"/>
			<point x="443" y="-117" type="curve" smooth="yes"/>
			<point x="443" y="-75"/>
			<point x="475" y="-28"/>
			<point x="517" y="0" type="curve"/>
			<point x="283" y="659" type="line"/>
			<point x="241" y="659" type="line"/>
			<point x="8" y="0" type="line"/>
			<point x="52" y="0" type="line"/>
			<point x="187" y="390" type="line" smooth="yes"/>
			<point x="214" y="468"/>
			<point x="237" y="537"/>
			<point x="260" y="618" type="curve"/>
			<point x="264" y="618" type="line"/>
			<point x="288" y="537"/>
			<point x="311" y="468"/>
			<point x="338" y="390" type="curve" smooth="yes"/>
			<point x="471" y="0" type="line"/>
			<point x="477" y="0" type="line"/>
			<point x="441" y="-25"/>
			<point x="406" y="-73"/>
			<point x="406" y="-123" type="curve" smooth="yes"/>
			<point x="406" y="-177"/>
			<point x="443" y="-204"/>
		</contour>
		<contour>
			<point x="114" y="228" type="line"/>
			<point x="409" y="228" type="line"/>
			<point x="409" y="265" type="line"/>
			<point x="114" y="265" type="line"/>
		</contour>
	</outline>
	<anchor name="aboveUC" x="262" y="681"/>
</glyph>
<glyph name="aogonek" format="2">
	<unicode hex="0105"/>
	<advance width="490"/>
	<outline>
		<contour>
			<point x="380" y="-213" type="curve" smooth="yes"/>
			<point x="411" y="-213"/>
			<point x="437" y="-199"/>
			<point x="454" y="-184" type="curve"/>
			<point x="438" y="-159" type="line"/>
			<point x="421" y="-172"/>
			<point x="406" y="-178"/>
			<point x="385" y="-178" type="curve" smooth="yes"/>
			<point x="356" y="-178"/>
			<point x="328" y="-161"/>
			<point x="328" y="-120" type="curve" smooth="yes"/>
			<point x="328" y="-78"/>
			<point x="365" y="-27"/>
			<point x="410" y="0" type="curve"/>
			<point x="410" y="308" type="line" smooth="yes"/>
			<point x="410" y="409"/>
			<point x="372" y="492"/>
			<point x="259" y="492" type="curve" smooth="yes"/>
			<point x="181" y="492"/>
			<point x="115" y="455"/>
			<point x="82" y="430" type="curve"/>
			<point x="101" y="400" type="line"/>
			<point x="133" y="423"/>
			<point x="189" y="455"/>
			<point x="255" y="455" type="curve" smooth="yes"/>
			<point x="350" y="455"/>
			<point x="370" y="375"/>
			<point x="369" y="300" type="curve"/>
			<point x="155" y="276"/>
			<point x="58" y="226"/>
			<point x="58" y="118" type="curve" smooth="yes"/>
			<point x="58" y="28"/>
			<point x="122" y="-12"/>
			<point x="197" y="-12" type="curve" smooth="yes"/>
			<point x="260" y="-12"/>
			<point x="319" y="23"/>
			<point x="368" y="63" type="curve"/>
			<point x="370" y="63" type="line"/>
			<point x="375" y="7" type="line"/>
			<point x="331" y="-24"/>
			<point x="291" y="-75"/>
			<point x="291" y="-125" type="curve" smooth="yes"/>
			<point x="291" y="-186"/>
			<point x="330" y="-213"/>
		</contour>
		<contour>
			<point x="204" y="24" type="curve" smooth="yes"/>
			<point x="148" y="24"/>
			<point x="100" y="51"/>
			<point x="100" y="121" type="curve" smooth="yes"/>
			<point x="100" y="199"/>
			<point x="168" y="244"/>
			<point x="369" y="268" type="curve"/>
			<point x="369" y="102" type="line"/>
			<point x="308" y="51"/>
			<point x="259" y="24"/>
		</contour>
	</outline>
	<anchor name="aboveLC" x="261" y="504"/>
</glyph>
<glyph name="dcroat" format="2">
	<unicode hex="0111"/>
	<advance width="543"/>
	<outline>
		<contour>
			<point x="251" y="-12" type="curve" smooth="yes"/>
			<point x="316" y="-12"/>
			<point x="369" y="23"/>
			<point x="408" y="62" type="curve"/>
			<point x="410" y="62" type="line"/>
			<point x="415" y="0" type="line"/>
			<point x="450" y="0" type="line"/>
			<point x="450" y="720" type="line"/>
			<point x="409" y="720" type="line"/>
			<point x="409" y="488" type="line"/>
			<point x="412" y="399" type="line"/>
			<point x="363" y="436"/>
			<point x="324" y="458"/>
			<point x="266" y="458" type="curve" smooth="yes"/>
			<point x="151" y="458"/>
			<point x="53" y="366"/>
			<point x="53" y="222" type="curve" smooth="yes"/>
			<point x="53" y="71"/>
			<point x="131" y="-12"/>
		</contour>
		<contour>
			<point x="256" y="24" type="curve" smooth="yes"/>
			<point x="153" y="24"/>
			<point x="96" y="104"/>
			<point x="96" y="222" type="curve" smooth="yes"/>
			<point x="96" y="333"/>
			<point x="170" y="422"/>
			<point x="267" y="422" type="curve" smooth="yes"/>
			<point x="315" y="422"/>
			<point x="358" y="405"/>
			<point x="409" y="359" type="curve"/>
			<point x="409" y="105" type="line"/>
			<point x="358" y="53"/>
			<point x="310" y="24"/>
		</contour>
		<contour>
			<point x="239" y="578" type="line"/>
			<point x="449" y="578" type="line"/>
			<point x="525" y="583" type="line"/>
			<point x="525" y="614" type="line"/>
			<point x="239" y="614" type="line"/>
		</contour>
	</outline>
</glyph>
<glyph name="Eogonek" format="2">
	<unicode hex="0118"/>
	<advance width="514"/>
	<outline>
		<contour>
			<point x="415" y="-215" type="curve" smooth="yes"/>
			<point x="446" y="-215"/>
			<point x="474" y="-201"/>
			<point x="491" y="-186" type="curve"/>
			<point x="475" y="-160" type="line"/>
			<point x="458" y="-174"/>
			<point x="442" y="-180"/>
			<point x="420" y="-180" type="curve" smooth="yes"/>
			<point x="390" y="-180"/>
			<point x="362" y="-163"/>
			<point x="362" y="-122" type="curve" smooth="yes"/>
			<point x="362" y="-62"/>
			<point x="427" y="0"/>
			<point x="464" y="0" type="curve" smooth="yes"/>
			<point x="467" y="0" type="line"/>
			<point x="467" y="37" type="line"/>
			<point x="141" y="37" type="line"/>
			<point x="141" y="332" type="line"/>
			<point x="406" y="332" type="line"/>
			<point x="406" y="369" type="line"/>
			<point x="141" y="369" type="line"/>
			<point x="141" y="622" type="line"/>
			<point x="457" y="622" type="line"/>
			<point x="457" y="659" type="line"/>
			<point x="98" y="659" type="line"/>
			<point x="98" y="0" type="line"/>
			<point x="403" y="0" type="line"/>
			<point x="360" y="-27"/>
			<point x="323" y="-73"/>
			<point x="323" y="-128" type="curve" smooth="yes"/>
			<point x="323" y="-188"/>
			<point x="365" y="-215"/>
		</contour>
	</outline>
	<anchor name="aboveUC" x="290" y="681"/>
</glyph>
<glyph name="eogonek" format="2">
	<unicode hex="0119"/>
	<advance width="482"/>
	<outline>
		<contour>
			<point x="357" y="-213" type="curve" smooth="yes"/>
			<point x="388" y="-213"/>
			<point x="413" y="-199"/>
			<point x="430" y="-184" type="curve"/>
			<point x="415" y="-159" type="line"/>
			<point x="397" y="-172"/>
			<point x="383" y="-178"/>
			<point x="362" y="-178" type="curve" smooth="yes"/>
			<point x="332" y="-178"/>
			<point x="305" y="-161"/>
			<point x="305" y="-120" type="curve" smooth="yes"/>
			<point x="305" y="-71"/>
			<point x="349" y="-10"/>
			<point x="424" y="35" type="curve"/>
			<point x="407" y="63" type="line"/>
			<point x="373" y="40"/>
			<point x="330" y="24"/>
			<point x="277" y="24" type="curve" smooth="yes"/>
			<point x="168" y="24"/>
			<point x="96" y="112"/>
			<point x="95" y="234" type="curve"/>
			<point x="442" y="234" type="line"/>
			<point x="444" y="247"/>
			<point x="444" y="258"/>
			<point x="444" y="270" type="curve" smooth="yes"/>
			<point x="444" y="412"/>
			<point x="374" y="492"/>
			<point x="261" y="492" type="curve" smooth="yes"/>
			<point x="154" y="492"/>
			<point x="52" y="396"/>
			<point x="52" y="239" type="curve" smooth="yes"/>
			<point x="52" y="82"/>
			<point x="151" y="-12"/>
			<point x="273" y="-12" type="curve" smooth="yes"/>
			<point x="296" y="-12"/>
			<point x="317" y="-10"/>
			<point x="337" y="-3" type="curve"/>
			<point x="307" y="-29"/>
			<point x="268" y="-72"/>
			<point x="268" y="-125" type="curve" smooth="yes"/>
			<point x="268" y="-186"/>
			<point x="307" y="-213"/>
		</contour>
		<contour>
			<point x="95" y="270" type="line"/>
			<point x="105" y="386"/>
			<point x="179" y="456"/>
			<point x="261" y="456" type="curve" smooth="yes"/>
			<point x="348" y="456"/>
			<point x="405" y="394"/>
			<point x="405" y="270" type="curve"/>
		</contour>
	</outline>
	<anchor name="aboveLC" x="261" y="504"/>
</glyph>
<glyph name="Hbar" format="2">
	<unicode hex="0126"/>
	<advance width="670"/>
	<outline>
		<contour>
			<point x="37" y="494" type="line"/>
			<point x="633" y="494" type="line"/>
			<point x="633" y="529" type="line"/>
			<point x="119" y="529" type="line"/>
			<point x="37" y="525" type="line"/>
		</contour>
		<component base="H" xOffset="20"/>
	</outline>
</glyph>
<glyph name="hbar" format="2">
	<unicode hex="0127"/>
	<advance width="546"/>
	<outline>
		<contour>
			<point x="110" y="0" type="line"/>
			<point x="154" y="0" type="line"/>
			<point x="154" y="328" type="line"/>
			<point x="213" y="388"/>
			<point x="254" y="419"/>
			<point x="311" y="419" type="curve" smooth="yes"/>
			<point x="389" y="419"/>
			<point x="421" y="370"/>
			<point x="421" y="268" type="curve" smooth="yes"/>
			<point x="421" y="0" type="line"/>
			<point x="465" y="0" type="line"/>
			<point x="465" y="274" type="line" smooth="yes"/>
			<point x="465" y="398"/>
			<point x="419" y="458"/>
			<point x="320" y="458" type="curve" smooth="yes"/>
			<point x="254" y="458"/>
			<point x="204" y="421"/>
			<point x="154" y="371" type="curve"/>
			<point x="154" y="477" type="line"/>
			<point x="154" y="719" type="line"/>
			<point x="110" y="719" type="line"/>
		</contour>
		<contour>
			<point x="19" y="577" type="line"/>
			<point x="344" y="577" type="line"/>
			<point x="344" y="615" type="line"/>
			<point x="111" y="615" type="line"/>
			<point x="19" y="610" type="line"/>
		</contour>
	</outline>
</glyph>
<glyph name="Iogonek" format="2">
	<unicode hex="012E"/>
	<advance width="239"/>
	<outline>
		<contour>
			<point x="126" y="-215" type="curve" smooth="yes"/>
			<point x="156" y="-215"/>
			<point x="184" y="-201"/>
			<point x="201" y="-186" type="curve"/>
			<point x="185" y="-160" type="line"/>
			<point x="168" y="-174"/>
			<point x="152" y="-180"/>
			<point x="131" y="-180" type="curve" smooth="yes"/>
			<point x="101" y="-180"/>
			<point x="72" y="-163"/>
			<point x="72" y="-122" type="curve" smooth="yes"/>
			<point x="72" y="-79"/>
			<point x="105" y="-36"/>
			<point x="141" y="0" type="curve"/>
			<point x="141" y="659" type="line"/>
			<point x="98" y="659" type="line"/>
			<point x="98" y="0" type="line"/>
			<point x="105" y="0" type="line"/>
			<point x="69" y="-35"/>
			<point x="34" y="-77"/>
			<point x="34" y="-128" type="curve" smooth="yes"/>
			<point x="34" y="-188"/>
			<point x="75" y="-215"/>
		</contour>
	</outline>
	<anchor name="aboveUC" x="119" y="681"/>
</glyph>
<glyph name="iogonek" format="1">
	<unicode hex="012F"/>
	<advance width="229"/>
	<outline>
		<contour>
			<point x="118" y="-203" type="curve" smooth="yes"/>
			<point x="139" y="-203"/>
			<point x="168" y="-193"/>
			<point x="183" y="-180" type="curve"/>
			<point x="167" y="-154" type="line"/>
			<point x="153" y="-164"/>
			<point x="141" y="-168"/>
			<point x="124" y="-168" type="curve" smooth="yes"/>
			<point x="99" y="-168"/>
			<point x="75" y="-151"/>
			<point x="75" y="-116" type="curve" smooth="yes"/>
			<point x="75" y="-73"/>
			<point x="104" y="-34"/>
			<point x="136" y="0" type="curve"/>
			<point x="136" y="480" type="line"/>
			<point x="92" y="480" type="line"/>
			<point x="92" y="0" type="line"/>
			<point x="99" y="0" type="line"/>
			<point x="70" y="-32"/>
			<point x="37" y="-71"/>
			<point x="37" y="-122" type="curve" smooth="yes"/>
			<point x="37" y="-176"/>
			<point x="72" y="-203"/>
		</contour>
		<contour>
			<point x="113" y="596" type="curve" smooth="yes"/>
			<point x="135" y="596"/>
			<point x="154" y="612"/>
			<point x="154" y="635" type="curve" smooth="yes"/>
			<point x="154" y="660"/>
			<point x="135" y="675"/>
			<point x="113" y="675" type="curve" smooth="yes"/>
			<point x="92" y="675"/>
			<point x="73" y="660"/>
			<point x="73" y="635" type="curve" smooth="yes"/>
			<point x="73" y="612"/>
			<point x="92" y="596"/>
		</contour>
	</outline>
</glyph>
<glyph name="dotlessi" format="2">
	<unicode hex="0131"/>
	<advance width="229"/>
	<outline>
		<contour>
			<point x="92" y="0" type="line"/>
			<point x="136" y="0" type="line"/>
			<point x="136" y="480" type="line"/>
			<point x="92" y="480" type="line"/>
		</contour>
	</outline>
	<anchor name="aboveLC" x="115" y="504"/>
	<anchor name="belowLC" x="113" y="-22"/>
	<anchor name="ogonekLC" x="104" y="0"/>
</glyph>
<glyph name="IJ" format="2">
	<unicode hex="0132"/>
	<advance width="477"/>
	<outline>
		<contour>
			<point x="98" y="0" type="line"/>
			<point x="141" y="0" type="line"/>
			<point x="141" y="659" type="line"/>
			<point x="98" y="659" type="line"/>
		</contour>
		<contour>
			<point x="272" y="-155" type="curve" smooth="yes"/>
			<point x="344" y="-155"/>
			<point x="379" y="-110"/>
			<point x="379" y="-16" type="curve" smooth="yes"/>
			<point x="379" y="659" type="line"/>
			<point x="336" y="659" type="line"/>
			<point x="336" y="-10" type="line" smooth="yes"/>
			<point x="336" y="-71"/>
			<point x="326" y="-115"/>
			<point x="272" y="-115" type="curve" smooth="yes"/>
			<point x="252" y="-115"/>
			<point x="233" y="-109"/>
			<point x="221" y="-105" type="curve"/>
			<point x="211" y="-143" type="line"/>
			<point x="226" y="-149"/>
			<point x="250" y="-155"/>
		</contour>
	</outline>
</glyph>
<glyph name="kgreenlandic" format="2">
	<unicode hex="0138"/>
	<advance width="461"/>
	<outline>
		<contour>
			<point x="93" y="0" type="line"/>
			<point x="134" y="0" type="line"/>
			<point x="134" y="131" type="line"/>
			<point x="243" y="259" type="line"/>
			<point x="404" y="0" type="line"/>
			<point x="450" y="0" type="line"/>
			<point x="267" y="290" type="line"/>
			<point x="423" y="480" type="line"/>
			<point x="375" y="480" type="line"/>
			<point x="136" y="185" type="line"/>
			<point x="134" y="185" type="line"/>
			<point x="134" y="480" type="line"/>
			<point x="93" y="480" type="line"/>
		</contour>
	</outline>
</glyph>
<glyph name="Lslash" format="2">
	<unicode hex="0141"/>
	<advance width="475"/>
	<outline>
		<contour>
			<point x="17" y="228" type="line"/>
			<point x="117" y="270" type="line"/>
			<point x="141" y="278" type="line"/>
			<point x="369" y="377" type="line"/>
			<point x="353" y="411" type="line"/>
			<point x="141" y="320" type="line"/>
			<point x="117" y="312" type="line"/>
			<point x="2" y="263" type="line"/>
		</contour>
		<component base="L" xOffset="12"/>
	</outline>
	<anchor name="aboveUC" x="136" y="681"/>
	<anchor name="belowLC" x="293" y="-22"/>
</glyph>
<glyph name="lslash" format="2">
	<unicode hex="0142"/>
	<advance width="260"/>
	<outline>
		<contour>
			<point x="14" y="344" type="line"/>
			<point x="115" y="396" type="line"/>
			<point x="138" y="405" type="line"/>
			<point x="249" y="462" type="line"/>
			<point x="233" y="492" type="line"/>
			<point x="138" y="443" type="line"/>
			<point x="115" y="434" type="line"/>
			<point x="-1" y="375" type="line"/>
		</contour>
		<component base="l" xOffset="12"/>
	</outline>
	<anchor name="aboveUC" x="125" y="729"/>
	<anchor name="belowLC" x="145" y="-22"/>
</glyph>
<glyph name="Eng" format="2">
	<unicode hex="014A"/>
	<advance width="615"/>
	<outline>
		<contour>
			<point x="403" y="-12" type="curve" smooth="yes"/>
			<point x="488" y="-12"/>
			<point x="560" y="73"/>
			<point x="560" y="337" type="curve" smooth="yes"/>
			<point x="560" y="583"/>
			<point x="462" y="671"/>
			<point x="331" y="671" type="curve" smooth="yes"/>
			<point x="259" y="671"/>
			<point x="187" y="623"/>
			<point x="140" y="571" type="curve"/>
			<point x="140" y="659" type="line"/>
			<point x="98" y="659" type="line"/>
			<point x="98" y="0" type="line"/>
			<point x="141" y="0" type="line"/>
			<point x="141" y="525" type="line"/>
			<point x="185" y="582"/>
			<point x="265" y="632"/>
			<point x="325" y="632" type="curve" smooth="yes"/>
			<point x="437" y="632"/>
			<point x="515" y="565"/>
			<point x="515" y="337" type="curve" smooth="yes"/>
			<point x="515" y="104"/>
			<point x="462" y="30"/>
			<point x="400" y="30" type="curve" smooth="yes"/>
			<point x="376" y="30"/>
			<point x="360" y="34"/>
			<point x="345" y="41" type="curve"/>
			<point x="331" y="1" type="line"/>
			<point x="349" y="-8"/>
			<point x="379" y="-12"/>
		</contour>
	</outline>
	<anchor name="aboveUC" x="333" y="681"/>
	<anchor name="belowLC" x="312" y="-22"/>
</glyph>
<glyph name="eng" format="2">
	<unicode hex="014B"/>
	<advance width="530"/>
	<outline>
		<contour>
			<point x="340" y="-230" type="curve" smooth="yes"/>
			<point x="412" y="-230"/>
			<point x="445" y="-186"/>
			<point x="445" y="-92" type="curve" smooth="yes"/>
			<point x="445" y="308" type="line" smooth="yes"/>
			<point x="445" y="432"/>
			<point x="399" y="492"/>
			<point x="300" y="492" type="curve" smooth="yes"/>
			<point x="234" y="492"/>
			<point x="184" y="454"/>
			<point x="135" y="405" type="curve"/>
			<point x="133" y="405" type="line"/>
			<point x="128" y="480" type="line"/>
			<point x="93" y="480" type="line"/>
			<point x="93" y="0" type="line"/>
			<point x="134" y="0" type="line"/>
			<point x="134" y="363" type="line"/>
			<point x="193" y="424"/>
			<point x="235" y="455"/>
			<point x="293" y="455" type="curve" smooth="yes"/>
			<point x="371" y="455"/>
			<point x="404" y="405"/>
			<point x="404" y="303" type="curve" smooth="yes"/>
			<point x="404" y="-89" type="line" smooth="yes"/>
			<point x="404" y="-150"/>
			<point x="394" y="-194"/>
			<point x="339" y="-194" type="curve" smooth="yes"/>
			<point x="322" y="-194"/>
			<point x="301" y="-189"/>
			<point x="288" y="-185" type="curve"/>
			<point x="279" y="-216" type="line"/>
			<point x="293" y="-224"/>
			<point x="319" y="-230"/>
		</contour>
	</outline>
	<anchor name="aboveLC" x="283" y="504"/>
	<anchor name="belowLC" x="272" y="-216"/>
</glyph>
<glyph name="OE" format="2">
	<unicode hex="0152"/>
	<advance width="832"/>
	<outline>
		<contour>
			<point x="367" y="0" type="curve" smooth="yes"/>
			<point x="785" y="0" type="line"/>
			<point x="785" y="37" type="line"/>
			<point x="479" y="37" type="line"/>
			<point x="479" y="332" type="line"/>
			<point x="725" y="332" type="line"/>
			<point x="725" y="369" type="line"/>
			<point x="479" y="369" type="line"/>
			<point x="479" y="622" type="line"/>
			<point x="775" y="622" type="line"/>
			<point x="775" y="659" type="line"/>
			<point x="367" y="659" type="line" smooth="yes"/>
			<point x="159" y="659"/>
			<point x="55" y="530"/>
			<point x="55" y="332" type="curve" smooth="yes"/>
			<point x="55" y="133"/>
			<point x="159" y="0"/>
		</contour>
		<contour>
			<point x="372" y="37" type="line" smooth="yes"/>
			<point x="185" y="37"/>
			<point x="100" y="159"/>
			<point x="100" y="332" type="curve" smooth="yes"/>
			<point x="100" y="504"/>
			<point x="185" y="623"/>
			<point x="372" y="623" type="curve" smooth="yes"/>
			<point x="436" y="623" type="line"/>
			<point x="436" y="37" type="line"/>
		</contour>
	</outline>
	<anchor name="aboveUC" x="534" y="681"/>
</glyph>
<glyph name="oe" format="2">
	<unicode hex="0153"/>
	<advance width="849"/>
	<outline>
		<contour>
			<point x="262" y="-12" type="curve" smooth="yes"/>
			<point x="347" y="-12"/>
			<point x="414" y="36"/>
			<point x="450" y="130" type="curve"/>
			<point x="485" y="44"/>
			<point x="556" y="-12"/>
			<point x="642" y="-12" type="curve" smooth="yes"/>
			<point x="712" y="-12"/>
			<point x="754" y="10"/>
			<point x="792" y="35" type="curve"/>
			<point x="775" y="63" type="line"/>
			<point x="740" y="39"/>
			<point x="697" y="24"/>
			<point x="645" y="24" type="curve" smooth="yes"/>
			<point x="546" y="24"/>
			<point x="470" y="112"/>
			<point x="470" y="234" type="curve"/>
			<point x="809" y="234" type="line"/>
			<point x="811" y="247"/>
			<point x="812" y="258"/>
			<point x="812" y="270" type="curve" smooth="yes"/>
			<point x="812" y="411"/>
			<point x="742" y="492"/>
			<point x="630" y="492" type="curve"/>
			<point x="552" y="492"/>
			<point x="484" y="436"/>
			<point x="450" y="347" type="curve"/>
			<point x="416" y="443"/>
			<point x="340" y="492"/>
			<point x="263" y="492" type="curve" smooth="yes"/>
			<point x="151" y="492"/>
			<point x="52" y="399"/>
			<point x="52" y="239" type="curve" smooth="yes"/>
			<point x="52" y="80"/>
			<point x="151" y="-12"/>
		</contour>
		<contour>
			<point x="263" y="24" type="curve" smooth="yes"/>
			<point x="167" y="24"/>
			<point x="95" y="111"/>
			<point x="95" y="239" type="curve" smooth="yes"/>
			<point x="95" y="367"/>
			<point x="167" y="455"/>
			<point x="263" y="455" type="curve" smooth="yes"/>
			<point x="360" y="455"/>
			<point x="431" y="367"/>
			<point x="431" y="239" type="curve" smooth="yes"/>
			<point x="431" y="111"/>
			<point x="360" y="24"/>
		</contour>
		<contour>
			<point x="470" y="268" type="line"/>
			<point x="480" y="379"/>
			<point x="549" y="456"/>
			<point x="629" y="456" type="curve" smooth="yes"/>
			<point x="716" y="456"/>
			<point x="773" y="392"/>
			<point x="773" y="268" type="curve"/>
		</contour>
	</outline>
	<anchor name="aboveLC" x="448" y="504"/>
	<anchor name="belowLC" x="448" y="-22"/>
</glyph>
<glyph name="Tbar" format="2">
	<unicode hex="0166"/>
	<advance width="523"/>
	<outline>
		<contour>
			<point x="113" y="329" type="line"/>
			<point x="410" y="329" type="line"/>
			<point x="410" y="364" type="line"/>
			<point x="198" y="364" type="line"/>
			<point x="113" y="362" type="line"/>
		</contour>
		<component base="T"/>
	</outline>
</glyph>
<glyph name="tbar" format="1">
	<unicode hex="0167"/>
	<advance width="312"/>
	<outline>
		<contour>
			<point x="28" y="236" type="line"/>
			<point x="287" y="236" type="line"/>
			<point x="287" y="269" type="line"/>
			<point x="104" y="269" type="line"/>
			<point x="28" y="265" type="line"/>
		</contour>
		<component base="t"/>
	</outline>
</glyph>
<glyph name="Uogonek" format="1">
	<unicode hex="0172"/>
	<advance width="634"/>
	<outline>
		<contour>
			<point x="328" y="-205" type="curve" smooth="yes"/>
			<point x="350" y="-205"/>
			<point x="378" y="-194"/>
			<point x="394" y="-181" type="curve"/>
			<point x="377" y="-154" type="line"/>
			<point x="364" y="-164"/>
			<point x="352" y="-168"/>
			<point x="334" y="-168" type="curve" smooth="yes"/>
			<point x="309" y="-168"/>
			<point x="284" y="-151"/>
			<point x="284" y="-116" type="curve" smooth="yes"/>
			<point x="284" y="-74"/>
			<point x="316" y="-19"/>
			<point x="360" y="-10" type="curve" smooth="yes"/>
			<point x="472" y="12"/>
			<point x="539" y="89"/>
			<point x="539" y="253" type="curve" smooth="yes"/>
			<point x="539" y="659" type="line"/>
			<point x="496" y="659" type="line"/>
			<point x="496" y="258" type="line" smooth="yes"/>
			<point x="496" y="83"/>
			<point x="411" y="30"/>
			<point x="316" y="30" type="curve" smooth="yes"/>
			<point x="223" y="30"/>
			<point x="141" y="83"/>
			<point x="141" y="258" type="curve" smooth="yes"/>
			<point x="141" y="659" type="line"/>
			<point x="95" y="659" type="line"/>
			<point x="95" y="253" type="line" smooth="yes"/>
			<point x="95" y="47"/>
			<point x="203" y="-12"/>
			<point x="316" y="-12" type="curve"/>
			<point x="315" y="4" type="line"/>
			<point x="277" y="-26"/>
			<point x="244" y="-72"/>
			<point x="244" y="-123" type="curve" smooth="yes"/>
			<point x="244" y="-178"/>
			<point x="282" y="-205"/>
		</contour>
		<contour>
			<point name="aboveUC" x="316" y="681" type="move"/>
		</contour>
	</outline>
</glyph>
<glyph name="uogonek" format="2">
	<unicode hex="0173"/>
	<advance width="528"/>
	<outline>
		<contour>
			<point x="405" y="-213" type="curve" smooth="yes"/>
			<point x="436" y="-213"/>
			<point x="462" y="-199"/>
			<point x="479" y="-184" type="curve"/>
			<point x="463" y="-159" type="line"/>
			<point x="446" y="-172"/>
			<point x="432" y="-178"/>
			<point x="410" y="-178" type="curve" smooth="yes"/>
			<point x="381" y="-178"/>
			<point x="353" y="-161"/>
			<point x="353" y="-120" type="curve" smooth="yes"/>
			<point x="353" y="-78"/>
			<point x="390" y="-27"/>
			<point x="435" y="0" type="curve"/>
			<point x="435" y="480" type="line"/>
			<point x="394" y="480" type="line"/>
			<point x="394" y="125" type="line"/>
			<point x="337" y="56"/>
			<point x="295" y="25"/>
			<point x="237" y="25" type="curve" smooth="yes"/>
			<point x="158" y="25"/>
			<point x="126" y="74"/>
			<point x="126" y="177" type="curve" smooth="yes"/>
			<point x="126" y="480" type="line"/>
			<point x="85" y="480" type="line"/>
			<point x="85" y="172" type="line" smooth="yes"/>
			<point x="85" y="48"/>
			<point x="131" y="-12"/>
			<point x="230" y="-12" type="curve" smooth="yes"/>
			<point x="296" y="-12"/>
			<point x="346" y="25"/>
			<point x="394" y="81" type="curve"/>
			<point x="396" y="81" type="line"/>
			<point x="400" y="7" type="line"/>
			<point x="356" y="-24"/>
			<point x="316" y="-75"/>
			<point x="316" y="-125" type="curve" smooth="yes"/>
			<point x="316" y="-186"/>
			<point x="356" y="-213"/>
		</contour>
	</outline>
	<anchor name="aboveLC" x="261" y="502"/>
</glyph>
<glyph name="longs" format="1">
	<unicode hex="017F"/>
	<advance width="245"/>
	<outline>
		<contour>
			<point x="99" y="0" type="line"/>
			<point x="143" y="0" type="line"/>
			<point x="143" y="584" type="line" smooth="yes"/>
			<point x="143" y="654"/>
			<point x="167" y="693"/>
			<point x="218" y="693" type="curve" smooth="yes"/>
			<point x="236" y="693"/>
			<point x="256" y="689"/>
			<point x="276" y="679" type="curve"/>
			<point x="288" y="715" type="line"/>
			<point x="266" y="725"/>
			<point x="240" y="731"/>
			<point x="218" y="731" type="curve" smooth="yes"/>
			<point x="142" y="731"/>
			<point x="99" y="682"/>
			<point x="99" y="587" type="curve" smooth="yes"/>
		</contour>
		<contour>
			<point x="33" y="442" type="line"/>
			<point x="127" y="442" type="line"/>
			<point x="127" y="480" type="line"/>
			<point x="100" y="480" type="line"/>
			<point x="33" y="476" type="line"/>
		</contour>
	</outline>
</glyph>
<glyph name="bstroke" format="1">
	<unicode hex="0180"/>
	<advance width="528"/>
	<outline>
		<contour>
			<point x="280" y="-12" type="curve" smooth="yes"/>
			<point x="393" y="-12"/>
			<point x="492" y="78"/>
			<point x="492" y="230" type="curve" smooth="yes"/>
			<point x="492" y="368"/>
			<point x="428" y="458"/>
			<point x="300" y="458" type="curve" smooth="yes"/>
			<point x="241" y="458"/>
			<point x="183" y="424"/>
			<point x="134" y="383" type="curve"/>
			<point x="136" y="477" type="line"/>
			<point x="136" y="719" type="line"/>
			<point x="92" y="719" type="line"/>
			<point x="92" y="0" type="line"/>
			<point x="129" y="0" type="line"/>
			<point x="134" y="49" type="line"/>
			<point x="136" y="49" type="line"/>
			<point x="181" y="12"/>
			<point x="234" y="-12"/>
		</contour>
		<contour>
			<point x="278" y="27" type="curve" smooth="yes"/>
			<point x="241" y="27"/>
			<point x="189" y="44"/>
			<point x="136" y="89" type="curve"/>
			<point x="136" y="340" type="line"/>
			<point x="193" y="391"/>
			<point x="245" y="419"/>
			<point x="293" y="419" type="curve" smooth="yes"/>
			<point x="403" y="419"/>
			<point x="445" y="337"/>
			<point x="445" y="230" type="curve" smooth="yes"/>
			<point x="445" y="111"/>
			<point x="375" y="27"/>
		</contour>
		<contour>
			<point x="15" y="581" type="line"/>
			<point x="326" y="581" type="line"/>
			<point x="326" y="614" type="line"/>
			<point x="93" y="614" type="line"/>
			<point x="15" y="610" type="line"/>
		</contour>
	</outline>
</glyph>
<glyph name="Bhook" format="2">
	<unicode hex="0181"/>
	<advance width="715"/>
	<outline>
		<contour>
			<point x="263" y="0" type="line"/>
			<point x="426" y="0" type="line" smooth="yes"/>
			<point x="575" y="0"/>
			<point x="671" y="65"/>
			<point x="671" y="192" type="curve" smooth="yes"/>
			<point x="671" y="283"/>
			<point x="614" y="337"/>
			<point x="528" y="351" type="curve"/>
			<point x="528" y="355" type="line"/>
			<point x="594" y="375"/>
			<point x="630" y="433"/>
			<point x="630" y="504" type="curve" smooth="yes"/>
			<point x="630" y="619"/>
			<point x="533" y="671"/>
			<point x="366" y="671" type="curve" smooth="yes"/>
			<point x="147" y="671"/>
			<point x="47" y="575"/>
			<point x="47" y="441" type="curve" smooth="yes"/>
			<point x="47" y="351"/>
			<point x="89" y="296"/>
			<point x="157" y="264" type="curve"/>
			<point x="180" y="299" type="line"/>
			<point x="121" y="331"/>
			<point x="92" y="371"/>
			<point x="92" y="442" type="curve" smooth="yes"/>
			<point x="92" y="549"/>
			<point x="175" y="630"/>
			<point x="355" y="630" type="curve" smooth="yes"/>
			<point x="375" y="630" type="line" smooth="yes"/>
			<point x="512" y="630"/>
			<point x="584" y="594"/>
			<point x="584" y="500" type="curve" smooth="yes"/>
			<point x="584" y="418"/>
			<point x="530" y="369"/>
			<point x="394" y="369" type="curve" smooth="yes"/>
			<point x="309" y="369" type="line"/>
			<point x="309" y="651" type="line"/>
			<point x="263" y="651" type="line"/>
		</contour>
		<contour>
			<point x="309" y="38" type="line"/>
			<point x="309" y="331" type="line"/>
			<point x="414" y="331" type="line" smooth="yes"/>
			<point x="548" y="331"/>
			<point x="625" y="286"/>
			<point x="625" y="191" type="curve" smooth="yes"/>
			<point x="625" y="86"/>
			<point x="545" y="38"/>
			<point x="414" y="38" type="curve" smooth="yes"/>
		</contour>
	</outline>
	<anchor name="aboveUC" x="428" y="681"/>
	<anchor name="belowLC" x="447" y="-22"/>
</glyph>
<glyph name="Oopen" format="2">
	<unicode hex="0186"/>
	<advance width="564"/>
	<outline>
		<contour>
			<point x="245" y="-12" type="curve" smooth="yes"/>
			<point x="404" y="-12"/>
			<point x="510" y="113"/>
			<point x="510" y="331" type="curve" smooth="yes"/>
			<point x="510" y="549"/>
			<point x="402" y="671"/>
			<point x="247" y="671" type="curve" smooth="yes"/>
			<point x="166" y="671"/>
			<point x="97" y="637"/>
			<point x="57" y="592" type="curve"/>
			<point x="83" y="562" type="line"/>
			<point x="123" y="605"/>
			<point x="182" y="629"/>
			<point x="246" y="629" type="curve" smooth="yes"/>
			<point x="378" y="629"/>
			<point x="461" y="520"/>
			<point x="461" y="337" type="curve" smooth="yes"/>
			<point x="461" y="139"/>
			<point x="379" y="30"/>
			<point x="243" y="30" type="curve" smooth="yes"/>
			<point x="169" y="30"/>
			<point x="113" y="55"/>
			<point x="65" y="109" type="curve"/>
			<point x="38" y="82" type="line"/>
			<point x="91" y="22"/>
			<point x="154" y="-12"/>
		</contour>
	</outline>
	<anchor name="aboveUC" x="260" y="681"/>
	<anchor name="baseLC" x="250" y="0"/>
	<anchor name="belowLC" x="250" y="-22"/>
</glyph>
<glyph name="Dhook" format="1">
	<unicode hex="018A"/>
	<advance width="751"/>
	<outline>
		<contour>
			<point x="263" y="0" type="line"/>
			<point x="389" y="0" type="line" smooth="yes"/>
			<point x="588" y="0"/>
			<point x="687" y="134"/>
			<point x="687" y="339" type="curve" smooth="yes"/>
			<point x="687" y="542"/>
			<point x="589" y="671"/>
			<point x="356" y="671" type="curve" smooth="yes"/>
			<point x="144" y="671"/>
			<point x="47" y="576"/>
			<point x="47" y="441" type="curve" smooth="yes"/>
			<point x="47" y="351"/>
			<point x="89" y="297"/>
			<point x="157" y="264" type="curve"/>
			<point x="180" y="299" type="line"/>
			<point x="121" y="331"/>
			<point x="92" y="371"/>
			<point x="92" y="442" type="curve" smooth="yes"/>
			<point x="92" y="549"/>
			<point x="172" y="629"/>
			<point x="348" y="629" type="curve" smooth="yes"/>
			<point x="356" y="629" type="line" smooth="yes"/>
			<point x="562" y="629"/>
			<point x="639" y="512"/>
			<point x="639" y="339" type="curve" smooth="yes"/>
			<point x="639" y="162"/>
			<point x="559" y="39"/>
			<point x="384" y="39" type="curve" smooth="yes"/>
			<point x="309" y="39" type="line"/>
			<point x="309" y="651" type="line"/>
			<point x="263" y="651" type="line"/>
		</contour>
		<contour>
			<point name="aboveUC" x="410" y="679" type="move"/>
		</contour>
		<contour>
			<point name="belowLC" x="430" y="-20" type="move"/>
		</contour>
	</outline>
</glyph>
<glyph name="Schwa" format="2">
	<unicode hex="018F"/>
	<advance width="647"/>
	<outline>
		<contour>
			<point x="321" y="-12" type="curve" smooth="yes"/>
			<point x="486" y="-12"/>
			<point x="592" y="115"/>
			<point x="592" y="332" type="curve" smooth="yes"/>
			<point x="592" y="548"/>
			<point x="496" y="671"/>
			<point x="325" y="671" type="curve" smooth="yes"/>
			<point x="244" y="671"/>
			<point x="175" y="639"/>
			<point x="132" y="597" type="curve"/>
			<point x="157" y="569" type="line"/>
			<point x="196" y="609"/>
			<point x="259" y="635"/>
			<point x="326" y="635" type="curve" smooth="yes"/>
			<point x="472" y="635"/>
			<point x="549" y="523"/>
			<point x="549" y="332" type="curve" smooth="yes"/>
			<point x="549" y="140"/>
			<point x="464" y="25"/>
			<point x="322" y="25" type="curve" smooth="yes"/>
			<point x="196" y="25"/>
			<point x="108" y="132"/>
			<point x="106" y="300" type="curve"/>
			<point x="556" y="300" type="line"/>
			<point x="556" y="336" type="line"/>
			<point x="63" y="336" type="line"/>
			<point x="63" y="330"/>
			<point x="63" y="322"/>
			<point x="63" y="316" type="curve" smooth="yes"/>
			<point x="63" y="124"/>
			<point x="156" y="-12"/>
		</contour>
	</outline>
	<anchor name="aboveUC" x="339" y="681"/>
	<anchor name="belowLC" x="338" y="-22"/>
</glyph>
<glyph name="Eopen" format="2">
	<unicode hex="0190"/>
	<advance width="545"/>
	<outline>
		<contour>
			<point x="287" y="-12" type="curve" smooth="yes"/>
			<point x="383" y="-12"/>
			<point x="445" y="14"/>
			<point x="503" y="80" type="curve"/>
			<point x="477" y="106" type="line"/>
			<point x="420" y="48"/>
			<point x="368" y="30"/>
			<point x="289" y="30" type="curve" smooth="yes"/>
			<point x="183" y="30"/>
			<point x="92" y="85"/>
			<point x="92" y="183" type="curve" smooth="yes"/>
			<point x="92" y="284"/>
			<point x="172" y="331"/>
			<point x="303" y="331" type="curve" smooth="yes"/>
			<point x="370" y="331" type="line"/>
			<point x="370" y="369" type="line"/>
			<point x="316" y="369" type="line" smooth="yes"/>
			<point x="186" y="369"/>
			<point x="128" y="415"/>
			<point x="128" y="504" type="curve" smooth="yes"/>
			<point x="128" y="584"/>
			<point x="196" y="629"/>
			<point x="290" y="629" type="curve" smooth="yes"/>
			<point x="351" y="629"/>
			<point x="407" y="603"/>
			<point x="443" y="564" type="curve"/>
			<point x="469" y="593" type="line"/>
			<point x="430" y="636"/>
			<point x="364" y="671"/>
			<point x="289" y="671" type="curve" smooth="yes"/>
			<point x="177" y="671"/>
			<point x="82" y="613"/>
			<point x="82" y="508" type="curve" smooth="yes"/>
			<point x="82" y="430"/>
			<point x="126" y="378"/>
			<point x="190" y="355" type="curve"/>
			<point x="190" y="351" type="line"/>
			<point x="113" y="336"/>
			<point x="46" y="281"/>
			<point x="46" y="183" type="curve" smooth="yes"/>
			<point x="46" y="58"/>
			<point x="154" y="-12"/>
		</contour>
	</outline>
	<anchor name="aboveUC" x="281" y="681"/>
	<anchor name="baseLC" x="281" y="0"/>
	<anchor name="belowLC" x="281" y="-22"/>
</glyph>
<glyph name="florin" format="2">
	<unicode hex="0192"/>
	<advance width="260"/>
	<outline>
		<contour>
			<point x="35" y="-230" type="curve" smooth="yes"/>
			<point x="107" y="-230"/>
			<point x="140" y="-186"/>
			<point x="140" y="-92" type="curve" smooth="yes"/>
			<point x="140" y="586" type="line" smooth="yes"/>
			<point x="140" y="656"/>
			<point x="164" y="696"/>
			<point x="216" y="696" type="curve" smooth="yes"/>
			<point x="234" y="696"/>
			<point x="253" y="692"/>
			<point x="273" y="684" type="curve"/>
			<point x="285" y="716" type="line"/>
			<point x="265" y="726"/>
			<point x="238" y="732"/>
			<point x="216" y="732" type="curve" smooth="yes"/>
			<point x="142" y="732"/>
			<point x="99" y="684"/>
			<point x="99" y="589" type="curve" smooth="yes"/>
			<point x="99" y="-89" type="line" smooth="yes"/>
			<point x="99" y="-150"/>
			<point x="89" y="-194"/>
			<point x="34" y="-194" type="curve" smooth="yes"/>
			<point x="17" y="-194"/>
			<point x="-4" y="-189"/>
			<point x="-16" y="-185" type="curve"/>
			<point x="-26" y="-216" type="line"/>
			<point x="-12" y="-224"/>
			<point x="14" y="-230"/>
		</contour>
		<contour>
			<point x="33" y="443" type="line"/>
			<point x="252" y="443" type="line"/>
			<point x="252" y="480" type="line"/>
			<point x="100" y="480" type="line"/>
			<point x="33" y="476" type="line"/>
		</contour>
	</outline>
	<anchor name="aboveUC" x="204" y="729"/>
	<anchor name="belowLC" x="55" y="-216"/>
</glyph>
<glyph name="Ghook" format="2">
	<unicode hex="0193"/>
	<advance width="605"/>
	<outline>
		<contour>
			<point x="338" y="-12" type="curve" smooth="yes"/>
			<point x="424" y="-12"/>
			<point x="492" y="19"/>
			<point x="533" y="63" type="curve"/>
			<point x="533" y="324" type="line"/>
			<point x="331" y="324" type="line"/>
			<point x="331" y="285" type="line"/>
			<point x="489" y="285" type="line"/>
			<point x="489" y="80" type="line"/>
			<point x="457" y="48"/>
			<point x="401" y="30"/>
			<point x="341" y="30" type="curve" smooth="yes"/>
			<point x="191" y="30"/>
			<point x="103" y="148"/>
			<point x="103" y="331" type="curve" smooth="yes"/>
			<point x="103" y="514"/>
			<point x="196" y="629"/>
			<point x="347" y="629" type="curve" smooth="yes"/>
			<point x="419" y="629"/>
			<point x="465" y="607"/>
			<point x="499" y="580" type="curve"/>
			<point x="526" y="611" type="line"/>
			<point x="498" y="653"/>
			<point x="482" y="668"/>
			<point x="482" y="702" type="curve" smooth="yes"/>
			<point x="482" y="730"/>
			<point x="501" y="757"/>
			<point x="537" y="757" type="curve" smooth="yes"/>
			<point x="551" y="757"/>
			<point x="563" y="753"/>
			<point x="575" y="747" type="curve"/>
			<point x="587" y="779" type="line"/>
			<point x="570" y="789"/>
			<point x="555" y="795"/>
			<point x="532" y="795" type="curve" smooth="yes"/>
			<point x="483" y="795"/>
			<point x="442" y="764"/>
			<point x="442" y="711" type="curve" smooth="yes"/>
			<point x="442" y="687"/>
			<point x="448" y="665"/>
			<point x="484" y="619" type="curve"/>
			<point x="492" y="632" type="line"/>
			<point x="444" y="660"/>
			<point x="399" y="671"/>
			<point x="346" y="671" type="curve" smooth="yes"/>
			<point x="172" y="671"/>
			<point x="55" y="540"/>
			<point x="55" y="331" type="curve" smooth="yes"/>
			<point x="55" y="121"/>
			<point x="168" y="-12"/>
		</contour>
	</outline>
	<anchor name="aboveUC" x="296" y="681"/>
	<anchor name="belowLC" x="343" y="-22"/>
</glyph>
<glyph name="Gammalatin" format="2">
	<unicode hex="0194"/>
	<advance width="491"/>
	<outline>
		<contour>
			<point x="243" y="-231" type="curve" smooth="yes"/>
			<point x="307" y="-231"/>
			<point x="336" y="-191"/>
			<point x="336" y="-134" type="curve" smooth="yes"/>
			<point x="336" y="-86"/>
			<point x="307" y="-29"/>
			<point x="264" y="55" type="curve"/>
			<point x="265" y="10" type="line"/>
			<point x="487" y="659" type="line"/>
			<point x="440" y="659" type="line"/>
			<point x="314" y="286" type="line" smooth="yes"/>
			<point x="287" y="205"/>
			<point x="272" y="148"/>
			<point x="245" y="65" type="curve"/>
			<point x="241" y="65" type="line"/>
			<point x="214" y="148"/>
			<point x="197" y="205"/>
			<point x="171" y="286" type="curve" smooth="yes"/>
			<point x="53" y="659" type="line"/>
			<point x="4" y="659" type="line"/>
			<point x="219" y="10" type="line"/>
			<point x="221" y="56" type="line"/>
			<point x="178" y="-29"/>
			<point x="149" y="-86"/>
			<point x="149" y="-134" type="curve" smooth="yes"/>
			<point x="149" y="-191"/>
			<point x="179" y="-231"/>
		</contour>
		<contour>
			<point x="243" y="-195" type="curve" smooth="yes"/>
			<point x="207" y="-195"/>
			<point x="193" y="-169"/>
			<point x="193" y="-136" type="curve" smooth="yes"/>
			<point x="193" y="-96"/>
			<point x="212" y="-48"/>
			<point x="241" y="4" type="curve"/>
			<point x="245" y="4" type="line"/>
			<point x="274" y="-48"/>
			<point x="293" y="-96"/>
			<point x="293" y="-136" type="curve" smooth="yes"/>
			<point x="293" y="-169"/>
			<point x="279" y="-195"/>
		</contour>
	</outline>
	<anchor name="aboveUC" x="245" y="681"/>
	<anchor name="belowLC" x="245" y="-218"/>
</glyph>
<glyph name="Istroke" format="2">
	<unicode hex="0197"/>
	<advance width="271"/>
	<outline>
		<contour>
			<point x="37" y="333" type="line"/>
			<point x="234" y="333" type="line"/>
			<point x="234" y="368" type="line"/>
			<point x="120" y="368" type="line"/>
			<point x="37" y="364" type="line"/>
		</contour>
		<component base="I" xOffset="20"/>
	</outline>
	<anchor name="aboveUC" x="139" y="681"/>
	<anchor name="belowLC" x="139" y="-22"/>
</glyph>
<glyph name="lbar" format="2">
	<unicode hex="019A"/>
	<advance width="263"/>
	<outline>
		<contour>
			<point x="10" y="380" type="line"/>
			<point x="240" y="380" type="line"/>
			<point x="240" y="418" type="line"/>
			<point x="105" y="418" type="line"/>
			<point x="10" y="414" type="line"/>
		</contour>
		<component base="l" xOffset="13"/>
	</outline>
	<anchor name="aboveUC" x="127" y="731"/>
	<anchor name="belowLC" x="147" y="-22"/>
</glyph>
<glyph name="lambdastroke" format="2">
	<unicode hex="019B"/>
	<advance width="436"/>
	<outline>
		<contour>
			<point x="54" y="484" type="line"/>
			<point x="364" y="646" type="line"/>
			<point x="349" y="673" type="line"/>
			<point x="39" y="511" type="line"/>
		</contour>
		<component base="lambda.latin"/>
	</outline>
	<anchor name="aboveUC" x="184" y="731"/>
	<anchor name="belowLC" x="216" y="-22"/>
</glyph>
<glyph name="Ohorn" format="2">
	<unicode hex="01A0"/>
	<advance width="651"/>
	<outline>
		<contour>
			<point x="485" y="614" type="line"/>
			<point x="549" y="630"/>
			<point x="592" y="668"/>
			<point x="592" y="730" type="curve" smooth="yes"/>
			<point x="592" y="754"/>
			<point x="585" y="778"/>
			<point x="573" y="800" type="curve"/>
			<point x="535" y="781" type="line"/>
			<point x="545" y="764"/>
			<point x="549" y="744"/>
			<point x="549" y="728" type="curve" smooth="yes"/>
			<point x="549" y="680"/>
			<point x="518" y="649"/>
			<point x="451" y="639" type="curve"/>
		</contour>
		<component base="O" xOffset="4"/>
	</outline>
	<anchor name="aboveUC" x="329" y="681"/>
	<anchor name="belowLC" x="324" y="-22"/>
</glyph>
<glyph name="ohorn" format="2">
	<unicode hex="01A1"/>
	<advance width="534"/>
	<outline>
		<contour>
			<point x="389" y="445" type="line"/>
			<point x="441" y="460"/>
			<point x="499" y="493"/>
			<point x="499" y="572" type="curve" smooth="yes"/>
			<point x="499" y="595"/>
			<point x="490" y="619"/>
			<point x="478" y="640" type="curve"/>
			<point x="444" y="621" type="line"/>
			<point x="453" y="605"/>
			<point x="458" y="586"/>
			<point x="458" y="569" type="curve" smooth="yes"/>
			<point x="458" y="511"/>
			<point x="423" y="480"/>
			<point x="354" y="469" type="curve"/>
		</contour>
		<component base="o"/>
	</outline>
	<anchor name="aboveLC" x="267" y="504"/>
	<anchor name="belowLC" x="267" y="-22"/>
</glyph>
<glyph name="Uhorn" format="2">
	<unicode hex="01AF"/>
	<advance width="644"/>
	<outline>
		<contour>
			<point x="538" y="634" type="line"/>
			<point x="591" y="648"/>
			<point x="643" y="678"/>
			<point x="643" y="750" type="curve" smooth="yes"/>
			<point x="643" y="774"/>
			<point x="636" y="798"/>
			<point x="623" y="820" type="curve"/>
			<point x="586" y="801" type="line"/>
			<point x="596" y="784"/>
			<point x="600" y="764"/>
			<point x="600" y="748" type="curve" smooth="yes"/>
			<point x="600" y="695"/>
			<point x="571" y="668"/>
			<point x="505" y="659" type="curve"/>
		</contour>
		<component base="U"/>
	</outline>
	<anchor name="aboveUC" x="318" y="681"/>
	<anchor name="belowLC" x="316" y="-22"/>
</glyph>
<glyph name="uhorn" format="2">
	<unicode hex="01B0"/>
	<advance width="528"/>
	<outline>
		<contour>
			<point x="435" y="457" type="line"/>
			<point x="475" y="471"/>
			<point x="526" y="501"/>
			<point x="526" y="582" type="curve" smooth="yes"/>
			<point x="526" y="605"/>
			<point x="520" y="628"/>
			<point x="505" y="650" type="curve"/>
			<point x="472" y="631" type="line"/>
			<point x="481" y="615"/>
			<point x="486" y="595"/>
			<point x="486" y="579" type="curve" smooth="yes"/>
			<point x="486" y="519"/>
			<point x="453" y="490"/>
			<point x="400" y="480" type="curve"/>
		</contour>
		<component base="u"/>
	</outline>
	<anchor name="aboveLC" x="262" y="504"/>
	<anchor name="belowLC" x="273" y="-22"/>
</glyph>
<glyph name="clickalveolar" format="1">
	<unicode hex="01C2"/>
	<advance width="341"/>
	<outline>
		<contour>
			<point x="30" y="265" type="line"/>
			<point x="311" y="265" type="line"/>
			<point x="311" y="301" type="line"/>
			<point x="108" y="301" type="line"/>
			<point x="30" y="297" type="line"/>
		</contour>
		<contour>
			<point x="30" y="418" type="line"/>
			<point x="311" y="418" type="line"/>
			<point x="311" y="454" type="line"/>
			<point x="108" y="454" type="line"/>
			<point x="30" y="450" type="line"/>
		</contour>
		<component base="l.a" xOffset="63"/>
		<contour>
			<point name="aboveUC" x="177" y="729" type="move"/>
		</contour>
		<contour>
			<point name="belowLC" x="177" y="-22" type="move"/>
		</contour>
	</outline>
</glyph>
<glyph name="clickretroflex" format="2">
	<unicode hex="01C3"/>
	<advance width="248"/>
	<outline>
		<contour>
			<point x="109" y="178" type="line"/>
			<point x="139" y="178" type="line"/>
			<point x="145" y="601" type="line"/>
			<point x="146" y="720" type="line"/>
			<point x="102" y="720" type="line"/>
			<point x="103" y="601" type="line"/>
		</contour>
		<contour>
			<point x="124" y="-12" type="curve" smooth="yes"/>
			<point x="145" y="-12"/>
			<point x="165" y="4"/>
			<point x="165" y="31" type="curve" smooth="yes"/>
			<point x="165" y="60"/>
			<point x="145" y="76"/>
			<point x="124" y="76" type="curve" smooth="yes"/>
			<point x="103" y="76"/>
			<point x="83" y="60"/>
			<point x="83" y="31" type="curve" smooth="yes"/>
			<point x="83" y="4"/>
			<point x="103" y="-12"/>
		</contour>
	</outline>
	<anchor name="aboveUC" x="124" y="729"/>
	<anchor name="belowLC" x="124" y="-22"/>
</glyph>
<glyph name="Gstroke" format="2">
	<unicode hex="01E4"/>
	<advance width="650"/>
	<outline>
		<contour>
			<point x="338" y="-12" type="curve" smooth="yes"/>
			<point x="424" y="-12"/>
			<point x="492" y="19"/>
			<point x="533" y="63" type="curve"/>
			<point x="533" y="324" type="line"/>
			<point x="489" y="324" type="line"/>
			<point x="489" y="80" type="line"/>
			<point x="457" y="48"/>
			<point x="401" y="30"/>
			<point x="341" y="30" type="curve" smooth="yes"/>
			<point x="191" y="30"/>
			<point x="103" y="148"/>
			<point x="103" y="331" type="curve" smooth="yes"/>
			<point x="103" y="514"/>
			<point x="196" y="629"/>
			<point x="347" y="629" type="curve" smooth="yes"/>
			<point x="419" y="629"/>
			<point x="465" y="599"/>
			<point x="499" y="562" type="curve"/>
			<point x="526" y="592" type="line"/>
			<point x="491" y="629"/>
			<point x="435" y="671"/>
			<point x="346" y="671" type="curve" smooth="yes"/>
			<point x="172" y="671"/>
			<point x="55" y="540"/>
			<point x="55" y="331" type="curve" smooth="yes"/>
			<point x="55" y="121"/>
			<point x="168" y="-12"/>
		</contour>
		<contour>
			<point x="331" y="191" type="line"/>
			<point x="624" y="191" type="line"/>
			<point x="624" y="229" type="line"/>
			<point x="491" y="229" type="line"/>
			<point x="331" y="224" type="line"/>
		</contour>
	</outline>
	<anchor name="aboveUC" x="343" y="681"/>
	<anchor name="belowLC" x="343" y="-22"/>
	<guideline x="331" y="245" angle="90" identifier="LLk1mopjqD"/>
</glyph>
<glyph name="gstroke" format="2">
	<unicode hex="01E5"/>
	<advance width="565"/>
	<outline>
		<contour>
			<point x="278" y="235" type="line"/>
			<point x="539" y="235" type="line"/>
			<point x="539" y="273" type="line"/>
			<point x="408" y="273" type="line"/>
			<point x="278" y="268" type="line"/>
		</contour>
		<component base="gscript"/>
	</outline>
	<anchor name="aboveLC" x="272" y="504"/>
	<anchor name="belowLC" x="273" y="-218"/>
</glyph>
<glyph name="Oogonek" format="2">
	<unicode hex="01EA"/>
	<advance width="651"/>
	<outline>
		<contour>
			<point x="338" y="-215" type="curve" smooth="yes"/>
			<point x="369" y="-215"/>
			<point x="397" y="-201"/>
			<point x="414" y="-186" type="curve"/>
			<point x="398" y="-160" type="line"/>
			<point x="381" y="-174"/>
			<point x="365" y="-180"/>
			<point x="343" y="-180" type="curve" smooth="yes"/>
			<point x="313" y="-180"/>
			<point x="285" y="-163"/>
			<point x="285" y="-122" type="curve" smooth="yes"/>
			<point x="285" y="-89"/>
			<point x="310" y="-31"/>
			<point x="402" y="0" type="curve" smooth="yes"/>
			<point x="505" y="33"/>
			<point x="596" y="139"/>
			<point x="596" y="332" type="curve" smooth="yes"/>
			<point x="596" y="540"/>
			<point x="484" y="671"/>
			<point x="326" y="671" type="curve" smooth="yes"/>
			<point x="168" y="671"/>
			<point x="55" y="540"/>
			<point x="55" y="332" type="curve" smooth="yes"/>
			<point x="55" y="123"/>
			<point x="168" y="-12"/>
			<point x="326" y="-12" type="curve"/>
			<point x="343" y="4" type="line"/>
			<point x="273" y="-30"/>
			<point x="246" y="-89"/>
			<point x="246" y="-128" type="curve" smooth="yes"/>
			<point x="246" y="-188"/>
			<point x="288" y="-215"/>
		</contour>
		<contour>
			<point x="326" y="27" type="curve" smooth="yes"/>
			<point x="191" y="27"/>
			<point x="100" y="147"/>
			<point x="100" y="332" type="curve" smooth="yes"/>
			<point x="100" y="516"/>
			<point x="191" y="632"/>
			<point x="326" y="632" type="curve" smooth="yes"/>
			<point x="461" y="632"/>
			<point x="551" y="516"/>
			<point x="551" y="332" type="curve" smooth="yes"/>
			<point x="551" y="147"/>
			<point x="461" y="27"/>
		</contour>
	</outline>
	<anchor name="aboveUC" x="324" y="681"/>
</glyph>
<glyph name="oogonek" format="2">
	<unicode hex="01EB"/>
	<advance width="535"/>
	<outline>
		<contour>
			<point x="281" y="-213" type="curve" smooth="yes"/>
			<point x="312" y="-213"/>
			<point x="338" y="-199"/>
			<point x="356" y="-184" type="curve"/>
			<point x="340" y="-157" type="line"/>
			<point x="322" y="-170"/>
			<point x="308" y="-176"/>
			<point x="287" y="-176" type="curve" smooth="yes"/>
			<point x="258" y="-176"/>
			<point x="231" y="-159"/>
			<point x="231" y="-119" type="curve" smooth="yes"/>
			<point x="231" y="-75"/>
			<point x="259" y="-28"/>
			<point x="336" y="-1" type="curve" smooth="yes"/>
			<point x="409" y="27"/>
			<point x="483" y="107"/>
			<point x="483" y="239" type="curve" smooth="yes"/>
			<point x="483" y="400"/>
			<point x="383" y="492"/>
			<point x="267" y="492" type="curve" smooth="yes"/>
			<point x="152" y="492"/>
			<point x="52" y="400"/>
			<point x="52" y="239" type="curve" smooth="yes"/>
			<point x="52" y="80"/>
			<point x="152" y="-12"/>
			<point x="267" y="-12" type="curve"/>
			<point x="281" y="4" type="line"/>
			<point x="218" y="-27"/>
			<point x="191" y="-84"/>
			<point x="191" y="-125" type="curve" smooth="yes"/>
			<point x="191" y="-186"/>
			<point x="231" y="-213"/>
		</contour>
		<contour>
			<point x="267" y="27" type="curve" smooth="yes"/>
			<point x="170" y="27"/>
			<point x="98" y="113"/>
			<point x="98" y="239" type="curve" smooth="yes"/>
			<point x="98" y="366"/>
			<point x="170" y="453"/>
			<point x="267" y="453" type="curve" smooth="yes"/>
			<point x="364" y="453"/>
			<point x="437" y="366"/>
			<point x="437" y="239" type="curve" smooth="yes"/>
			<point x="437" y="113"/>
			<point x="364" y="27"/>
		</contour>
	</outline>
	<anchor name="aboveLC" x="267" y="504"/>
</glyph>
<glyph name="Wynn" format="2">
	<unicode hex="01F7"/>
	<advance width="549"/>
	<outline>
		<contour>
			<point x="97" y="-144" type="line"/>
			<point x="143" y="-144" type="line"/>
			<point x="143" y="-2" type="line"/>
			<point x="414" y="157"/>
			<point x="502" y="317"/>
			<point x="502" y="465" type="curve" smooth="yes"/>
			<point x="502" y="616"/>
			<point x="427" y="671"/>
			<point x="328" y="671" type="curve" smooth="yes"/>
			<point x="255" y="671"/>
			<point x="189" y="622"/>
			<point x="143" y="571" type="curve"/>
			<point x="143" y="659" type="line"/>
			<point x="97" y="659" type="line"/>
		</contour>
		<contour>
			<point x="143" y="43" type="curve"/>
			<point x="143" y="523" type="line"/>
			<point x="186" y="578"/>
			<point x="263" y="629"/>
			<point x="321" y="629" type="curve" smooth="yes"/>
			<point x="397" y="629"/>
			<point x="455" y="590"/>
			<point x="455" y="465" type="curve" smooth="yes"/>
			<point x="455" y="339"/>
			<point x="387" y="196"/>
		</contour>
	</outline>
	<anchor name="aboveUC" x="304" y="681"/>
	<anchor name="belowLC" x="125" y="-146"/>
</glyph>
<glyph name="Yogh" format="2">
	<unicode hex="021C"/>
	<advance width="488"/>
	<outline>
		<contour>
			<point x="111" y="-156" type="line"/>
			<point x="343" y="-54"/>
			<point x="443" y="54"/>
			<point x="443" y="177" type="curve" smooth="yes"/>
			<point x="443" y="282"/>
			<point x="368" y="339"/>
			<point x="254" y="328" type="curve"/>
			<point x="351" y="391"/>
			<point x="401" y="446"/>
			<point x="401" y="527" type="curve" smooth="yes"/>
			<point x="401" y="617"/>
			<point x="342" y="671"/>
			<point x="251" y="671" type="curve" smooth="yes"/>
			<point x="154" y="671"/>
			<point x="98" y="629"/>
			<point x="30" y="554" type="curve"/>
			<point x="56" y="528" type="line"/>
			<point x="122" y="595"/>
			<point x="171" y="629"/>
			<point x="246" y="629" type="curve" smooth="yes"/>
			<point x="312" y="629"/>
			<point x="354" y="589"/>
			<point x="354" y="521" type="curve" smooth="yes"/>
			<point x="354" y="450"/>
			<point x="314" y="397"/>
			<point x="129" y="291" type="curve"/>
			<point x="148" y="261" type="line"/>
			<point x="190" y="287"/>
			<point x="229" y="293"/>
			<point x="267" y="293" type="curve" smooth="yes"/>
			<point x="345" y="293"/>
			<point x="395" y="249"/>
			<point x="395" y="174" type="curve" smooth="yes"/>
			<point x="395" y="84"/>
			<point x="317" y="-20"/>
			<point x="92" y="-120" type="curve"/>
		</contour>
	</outline>
	<anchor name="aboveUC" x="242" y="681"/>
	<anchor name="belowLC" x="245" y="-146"/>
</glyph>
<glyph name="yogh" format="2">
	<unicode hex="021D"/>
	<advance width="419"/>
	<outline>
		<contour>
			<point x="83" y="-229" type="line"/>
			<point x="290" y="-140"/>
			<point x="378" y="-45"/>
			<point x="378" y="61" type="curve" smooth="yes"/>
			<point x="378" y="153"/>
			<point x="313" y="200"/>
			<point x="211" y="196" type="curve"/>
			<point x="296" y="252"/>
			<point x="341" y="297"/>
			<point x="341" y="366" type="curve" smooth="yes"/>
			<point x="341" y="444"/>
			<point x="289" y="492"/>
			<point x="211" y="492" type="curve" smooth="yes"/>
			<point x="127" y="492"/>
			<point x="75" y="456"/>
			<point x="12" y="390" type="curve"/>
			<point x="35" y="366" type="line"/>
			<point x="94" y="425"/>
			<point x="138" y="454"/>
			<point x="204" y="454" type="curve" smooth="yes"/>
			<point x="260" y="454"/>
			<point x="296" y="420"/>
			<point x="296" y="361" type="curve" smooth="yes"/>
			<point x="296" y="299"/>
			<point x="260" y="254"/>
			<point x="98" y="160" type="curve"/>
			<point x="116" y="133" type="line"/>
			<point x="153" y="155"/>
			<point x="187" y="161"/>
			<point x="219" y="161" type="curve" smooth="yes"/>
			<point x="288" y="161"/>
			<point x="333" y="123"/>
			<point x="333" y="59" type="curve" smooth="yes"/>
			<point x="333" y="-21"/>
			<point x="264" y="-110"/>
			<point x="67" y="-197" type="curve"/>
		</contour>
	</outline>
	<anchor name="aboveLC" x="203" y="504"/>
	<anchor name="belowLC" x="214" y="-218"/>
</glyph>
<glyph name="Nlong" format="2">
	<unicode hex="0220"/>
	<advance width="639"/>
	<outline>
		<contour>
			<point x="498" y="-187" type="line"/>
			<point x="544" y="-187" type="line"/>
			<point x="544" y="384" type="line" smooth="yes"/>
			<point x="544" y="594"/>
			<point x="467" y="671"/>
			<point x="333" y="671" type="curve" smooth="yes"/>
			<point x="261" y="671"/>
			<point x="189" y="624"/>
			<point x="143" y="571" type="curve"/>
			<point x="143" y="659" type="line"/>
			<point x="97" y="659" type="line"/>
			<point x="97" y="0" type="line"/>
			<point x="143" y="0" type="line"/>
			<point x="143" y="523" type="line"/>
			<point x="187" y="580"/>
			<point x="266" y="629"/>
			<point x="326" y="629" type="curve" smooth="yes"/>
			<point x="436" y="629"/>
			<point x="498" y="573"/>
			<point x="498" y="382" type="curve" smooth="yes"/>
		</contour>
	</outline>
	<anchor name="aboveUC" x="334" y="681"/>
	<anchor name="belowLC" x="312" y="-202"/>
</glyph>
<glyph name="dotlessj" format="2">
	<unicode hex="0237"/>
	<advance width="227"/>
	<outline>
		<contour>
			<point x="29" y="-230" type="curve" smooth="yes"/>
			<point x="101" y="-230"/>
			<point x="134" y="-186"/>
			<point x="134" y="-92" type="curve" smooth="yes"/>
			<point x="134" y="480" type="line"/>
			<point x="93" y="480" type="line"/>
			<point x="93" y="-89" type="line" smooth="yes"/>
			<point x="93" y="-150"/>
			<point x="83" y="-194"/>
			<point x="28" y="-194" type="curve" smooth="yes"/>
			<point x="11" y="-194"/>
			<point x="-10" y="-189"/>
			<point x="-22" y="-185" type="curve"/>
			<point x="-32" y="-216" type="line"/>
			<point x="-17" y="-224"/>
			<point x="9" y="-230"/>
		</contour>
	</outline>
	<anchor name="aboveLC" x="115" y="504"/>
	<anchor name="belowLC" x="53" y="-216"/>
</glyph>
<glyph name="Astroke" format="2">
	<unicode hex="023A"/>
	<advance width="526"/>
	<outline>
		<contour>
			<point x="160" y="-23" type="line"/>
			<point x="393" y="675" type="line"/>
			<point x="363" y="682" type="line"/>
			<point x="130" y="-16" type="line"/>
		</contour>
		<component base="A"/>
	</outline>
	<anchor name="aboveUC" x="263" y="681"/>
	<anchor name="belowLC" x="263" y="-22"/>
</glyph>
<glyph name="Cstroke" format="2">
	<unicode hex="023B"/>
	<advance width="564"/>
	<outline>
		<contour>
			<point x="200" y="-23" type="line"/>
			<point x="434" y="675" type="line"/>
			<point x="404" y="682" type="line"/>
			<point x="171" y="-16" type="line"/>
		</contour>
		<component base="C"/>
	</outline>
	<anchor name="aboveUC" x="323" y="681"/>
	<anchor name="belowLC" x="341" y="-22"/>
</glyph>
<glyph name="cstroke" format="2">
	<unicode hex="023C"/>
	<advance width="449"/>
	<outline>
		<contour>
			<point x="141" y="-24" type="line"/>
			<point x="403" y="492" type="line"/>
			<point x="376" y="504" type="line"/>
			<point x="113" y="-12" type="line"/>
		</contour>
		<component base="c"/>
	</outline>
	<anchor name="aboveLC" x="271" y="504"/>
	<anchor name="belowLC" x="269" y="-22"/>
</glyph>
<glyph name="Lbar" format="2">
	<unicode hex="023D"/>
	<advance width="484"/>
	<outline>
		<contour>
			<point x="37" y="333" type="line"/>
			<point x="360" y="333" type="line"/>
			<point x="360" y="371" type="line"/>
			<point x="120" y="371" type="line"/>
			<point x="37" y="368" type="line"/>
		</contour>
		<component base="L" xOffset="21"/>
	</outline>
	<anchor name="aboveUC" x="145" y="681"/>
	<anchor name="belowLC" x="302" y="-22"/>
</glyph>
<glyph name="Tstroke" format="2">
	<unicode hex="023E"/>
	<advance width="524"/>
	<outline>
		<contour>
			<point x="53" y="-23" type="line"/>
			<point x="507" y="666" type="line"/>
			<point x="481" y="682" type="line"/>
			<point x="26" y="-7" type="line"/>
		</contour>
		<component base="T"/>
	</outline>
	<anchor name="aboveUC" x="262" y="681"/>
	<anchor name="belowLC" x="262" y="-22"/>
</glyph>
<glyph name="Glottalstop" format="2">
	<unicode hex="0241"/>
	<advance width="450"/>
	<outline>
		<contour>
			<point x="182" y="0" type="line"/>
			<point x="225" y="0" type="line"/>
			<point x="225" y="253" type="line"/>
			<point x="351" y="303"/>
			<point x="425" y="378"/>
			<point x="425" y="488" type="curve" smooth="yes"/>
			<point x="425" y="607"/>
			<point x="332" y="671"/>
			<point x="213" y="671" type="curve" smooth="yes"/>
			<point x="115" y="671"/>
			<point x="44" y="627"/>
			<point x="0" y="584" type="curve"/>
			<point x="27" y="555" type="line"/>
			<point x="67" y="595"/>
			<point x="133" y="632"/>
			<point x="213" y="632" type="curve" smooth="yes"/>
			<point x="319" y="632"/>
			<point x="380" y="575"/>
			<point x="380" y="489" type="curve" smooth="yes"/>
			<point x="380" y="398"/>
			<point x="327" y="329"/>
			<point x="182" y="277" type="curve"/>
		</contour>
	</outline>
	<anchor name="aboveUC" x="224" y="681"/>
	<anchor name="belowLC" x="203" y="-22"/>
</glyph>
<glyph name="Bstroke" format="2">
	<unicode hex="0243"/>
	<advance width="586"/>
	<outline>
		<contour>
			<point x="111" y="0" type="line"/>
			<point x="300" y="0" type="line" smooth="yes"/>
			<point x="450" y="0"/>
			<point x="545" y="66"/>
			<point x="545" y="193" type="curve" smooth="yes"/>
			<point x="545" y="285"/>
			<point x="484" y="338"/>
			<point x="387" y="353" type="curve"/>
			<point x="387" y="357" type="line"/>
			<point x="465" y="377"/>
			<point x="504" y="431"/>
			<point x="504" y="500" type="curve" smooth="yes"/>
			<point x="504" y="608"/>
			<point x="420" y="659"/>
			<point x="288" y="659" type="curve" smooth="yes"/>
			<point x="111" y="659" type="line"/>
		</contour>
		<contour>
			<point x="154" y="370" type="line"/>
			<point x="154" y="624" type="line"/>
			<point x="274" y="624" type="line" smooth="yes"/>
			<point x="397" y="624"/>
			<point x="462" y="588"/>
			<point x="462" y="502" type="curve" smooth="yes"/>
			<point x="462" y="414"/>
			<point x="406" y="370"/>
			<point x="269" y="370" type="curve" smooth="yes"/>
		</contour>
		<contour>
			<point x="154" y="36" type="line"/>
			<point x="154" y="334" type="line"/>
			<point x="288" y="334" type="line" smooth="yes"/>
			<point x="425" y="334"/>
			<point x="503" y="288"/>
			<point x="503" y="192" type="curve" smooth="yes"/>
			<point x="503" y="84"/>
			<point x="421" y="36"/>
			<point x="288" y="36" type="curve" smooth="yes"/>
		</contour>
		<contour>
			<point x="33" y="176" type="line"/>
			<point x="321" y="176" type="line"/>
			<point x="321" y="211" type="line"/>
			<point x="112" y="211" type="line"/>
			<point x="33" y="209" type="line"/>
		</contour>
	</outline>
</glyph>
<glyph name="Ubar" format="2">
	<unicode hex="0244"/>
	<advance width="674"/>
	<outline>
		<contour>
			<point x="37" y="333" type="line"/>
			<point x="638" y="333" type="line"/>
			<point x="638" y="371" type="line"/>
			<point x="120" y="371" type="line"/>
			<point x="37" y="366" type="line"/>
		</contour>
		<component base="U" xOffset="21"/>
	</outline>
	<anchor name="aboveUC" x="337" y="681"/>
	<anchor name="belowLC" x="337" y="-22"/>
</glyph>
<glyph name="Jstroke" format="2">
	<unicode hex="0248"/>
	<advance width="482"/>
	<outline>
		<contour>
			<point x="173" y="335" type="line"/>
			<point x="457" y="335" type="line"/>
			<point x="457" y="373" type="line"/>
			<point x="260" y="373" type="line"/>
			<point x="173" y="369" type="line"/>
		</contour>
		<component base="J"/>
	</outline>
	<anchor name="aboveUC" x="340" y="681"/>
	<anchor name="belowLC" x="243" y="-22"/>
</glyph>
<glyph name="aturned" format="2">
	<unicode hex="0250"/>
	<advance width="499"/>
	<outline>
		<contour>
			<point x="266" y="-12" type="curve" smooth="yes"/>
			<point x="334" y="-12"/>
			<point x="400" y="25"/>
			<point x="434" y="50" type="curve"/>
			<point x="414" y="81" type="line"/>
			<point x="382" y="59"/>
			<point x="326" y="27"/>
			<point x="270" y="27" type="curve" smooth="yes"/>
			<point x="153" y="27"/>
			<point x="127" y="111"/>
			<point x="129" y="179" type="curve"/>
			<point x="342" y="204"/>
			<point x="438" y="259"/>
			<point x="438" y="371" type="curve" smooth="yes"/>
			<point x="438" y="454"/>
			<point x="380" y="492"/>
			<point x="310" y="492" type="curve" smooth="yes"/>
			<point x="245" y="492"/>
			<point x="180" y="459"/>
			<point x="129" y="408" type="curve"/>
			<point x="127" y="408" type="line"/>
			<point x="122" y="480" type="line"/>
			<point x="84" y="480" type="line"/>
			<point x="84" y="183" type="line" smooth="yes"/>
			<point x="84" y="76"/>
			<point x="129" y="-12"/>
		</contour>
		<contour>
			<point x="129" y="213" type="curve"/>
			<point x="129" y="365" type="line"/>
			<point x="192" y="429"/>
			<point x="248" y="454"/>
			<point x="301" y="454" type="curve" smooth="yes"/>
			<point x="351" y="454"/>
			<point x="393" y="430"/>
			<point x="393" y="367" type="curve" smooth="yes"/>
			<point x="393" y="286"/>
			<point x="326" y="238"/>
		</contour>
	</outline>
	<anchor name="aboveLC" x="272" y="504"/>
	<anchor name="belowLC" x="271" y="-22"/>
	<anchor name="ogonekLC" x="271" y="0"/>
</glyph>
<glyph name="alphalatin" format="2">
	<unicode hex="0251"/>
	<advance width="551"/>
	<outline>
		<contour>
			<point x="251" y="-12" type="curve" smooth="yes"/>
			<point x="315" y="-12"/>
			<point x="369" y="23"/>
			<point x="408" y="63" type="curve"/>
			<point x="410" y="63" type="line"/>
			<point x="412" y="10"/>
			<point x="433" y="-8"/>
			<point x="466" y="-8" type="curve" smooth="yes"/>
			<point x="478" y="-8"/>
			<point x="492" y="-4"/>
			<point x="497" y="-2" type="curve"/>
			<point x="490" y="33" type="line"/>
			<point x="482" y="31"/>
			<point x="478" y="31"/>
			<point x="474" y="31" type="curve" smooth="yes"/>
			<point x="462" y="31"/>
			<point x="452" y="41"/>
			<point x="452" y="62" type="curve" smooth="yes"/>
			<point x="452" y="480" type="line"/>
			<point x="413" y="480" type="line"/>
			<point x="410" y="434" type="line"/>
			<point x="408" y="434" type="line"/>
			<point x="363" y="471"/>
			<point x="323" y="492"/>
			<point x="266" y="492" type="curve" smooth="yes"/>
			<point x="151" y="492"/>
			<point x="52" y="394"/>
			<point x="52" y="239" type="curve" smooth="yes"/>
			<point x="52" y="77"/>
			<point x="130" y="-12"/>
		</contour>
		<contour>
			<point x="257" y="27" type="curve" smooth="yes"/>
			<point x="155" y="27"/>
			<point x="99" y="112"/>
			<point x="99" y="239" type="curve" smooth="yes"/>
			<point x="99" y="360"/>
			<point x="172" y="453"/>
			<point x="268" y="453" type="curve" smooth="yes"/>
			<point x="315" y="453"/>
			<point x="357" y="436"/>
			<point x="408" y="391" type="curve"/>
			<point x="408" y="106" type="line"/>
			<point x="357" y="55"/>
			<point x="310" y="27"/>
		</contour>
	</outline>
	<anchor name="aboveLC" x="272" y="504"/>
	<anchor name="belowLC" x="273" y="-22"/>
</glyph>
<glyph name="alphalatinturned" format="1">
	<unicode hex="0252"/>
	<advance width="551"/>
	<outline>
		<contour>
			<point x="287" y="-12" type="curve" smooth="yes"/>
			<point x="401" y="-12"/>
			<point x="499" y="84"/>
			<point x="499" y="247" type="curve" smooth="yes"/>
			<point x="499" y="396"/>
			<point x="436" y="492"/>
			<point x="307" y="492" type="curve" smooth="yes"/>
			<point x="247" y="492"/>
			<point x="190" y="457"/>
			<point x="143" y="417" type="curve"/>
			<point x="141" y="417" type="line"/>
			<point x="139" y="475"/>
			<point x="119" y="492"/>
			<point x="85" y="492" type="curve" smooth="yes"/>
			<point x="71" y="492"/>
			<point x="63" y="490"/>
			<point x="54" y="487" type="curve"/>
			<point x="62" y="451" type="line"/>
			<point x="71" y="453"/>
			<point x="75" y="453"/>
			<point x="79" y="453" type="curve" smooth="yes"/>
			<point x="91" y="453"/>
			<point x="99" y="443"/>
			<point x="99" y="422" type="curve" smooth="yes"/>
			<point x="99" y="0" type="line"/>
			<point x="138" y="0" type="line"/>
			<point x="141" y="46" type="line"/>
			<point x="143" y="46" type="line"/>
			<point x="192" y="10"/>
			<point x="242" y="-12"/>
		</contour>
		<contour>
			<point x="285" y="27" type="curve" smooth="yes"/>
			<point x="249" y="27"/>
			<point x="198" y="44"/>
			<point x="144" y="89" type="curve"/>
			<point x="144" y="374" type="line"/>
			<point x="202" y="425"/>
			<point x="252" y="453"/>
			<point x="300" y="453" type="curve" smooth="yes"/>
			<point x="411" y="453"/>
			<point x="453" y="365"/>
			<point x="453" y="247" type="curve" smooth="yes"/>
			<point x="453" y="117"/>
			<point x="383" y="27"/>
		</contour>
		<contour>
			<point name="aboveLC" x="301" y="504" type="move"/>
		</contour>
		<contour>
			<point name="belowLC" x="289" y="-22" type="move"/>
		</contour>
	</outline>
</glyph>
<glyph name="bhook" format="2">
	<unicode hex="0253"/>
	<advance width="543"/>
	<outline>
		<contour>
			<point x="279" y="-12" type="curve" smooth="yes"/>
			<point x="392" y="-12"/>
			<point x="491" y="84"/>
			<point x="491" y="246" type="curve" smooth="yes"/>
			<point x="491" y="394"/>
			<point x="427" y="490"/>
			<point x="298" y="490" type="curve" smooth="yes"/>
			<point x="240" y="490"/>
			<point x="181" y="456"/>
			<point x="132" y="414" type="curve"/>
			<point x="134" y="557" type="line"/>
			<point x="134" y="639"/>
			<point x="166" y="696"/>
			<point x="239" y="696" type="curve" smooth="yes"/>
			<point x="257" y="696"/>
			<point x="277" y="692"/>
			<point x="297" y="682" type="curve"/>
			<point x="310" y="716" type="line"/>
			<point x="288" y="726"/>
			<point x="261" y="732"/>
			<point x="239" y="732" type="curve" smooth="yes"/>
			<point x="147" y="732"/>
			<point x="93" y="668"/>
			<point x="93" y="560" type="curve"/>
			<point x="93" y="0" type="line"/>
			<point x="127" y="0" type="line"/>
			<point x="132" y="45" type="line"/>
			<point x="134" y="45" type="line"/>
			<point x="180" y="10"/>
			<point x="233" y="-12"/>
		</contour>
		<contour>
			<point x="277" y="25" type="curve" smooth="yes"/>
			<point x="241" y="25"/>
			<point x="187" y="42"/>
			<point x="134" y="87" type="curve"/>
			<point x="134" y="373" type="line"/>
			<point x="191" y="425"/>
			<point x="244" y="453"/>
			<point x="292" y="453" type="curve" smooth="yes"/>
			<point x="405" y="453"/>
			<point x="447" y="364"/>
			<point x="447" y="246" type="curve" smooth="yes"/>
			<point x="447" y="115"/>
			<point x="376" y="25"/>
		</contour>
	</outline>
	<anchor name="aboveUC" x="283" y="729"/>
	<anchor name="belowLC" x="299" y="-22"/>
</glyph>
<glyph name="oopen" format="2">
	<unicode hex="0254"/>
	<advance width="448"/>
	<outline>
		<contour>
			<point x="179" y="-12" type="curve" smooth="yes"/>
			<point x="300" y="-12"/>
			<point x="396" y="80"/>
			<point x="396" y="239" type="curve" smooth="yes"/>
			<point x="396" y="401"/>
			<point x="298" y="492"/>
			<point x="190" y="492" type="curve" smooth="yes"/>
			<point x="115" y="492"/>
			<point x="73" y="464"/>
			<point x="37" y="432" type="curve"/>
			<point x="62" y="403" type="line"/>
			<point x="95" y="434"/>
			<point x="131" y="455"/>
			<point x="187" y="455" type="curve" smooth="yes"/>
			<point x="279" y="455"/>
			<point x="353" y="368"/>
			<point x="353" y="239" type="curve" smooth="yes"/>
			<point x="353" y="111"/>
			<point x="281" y="25"/>
			<point x="177" y="25" type="curve" smooth="yes"/>
			<point x="125" y="25"/>
			<point x="81" y="50"/>
			<point x="47" y="81" type="curve"/>
			<point x="26" y="52" type="line"/>
			<point x="66" y="15"/>
			<point x="118" y="-12"/>
		</contour>
	</outline>
	<anchor name="aboveLC" x="202" y="504"/>
	<anchor name="baseLC" x="201" y="0"/>
	<anchor name="belowLC" x="201" y="-22"/>
</glyph>
<glyph name="ccurl" format="2">
	<unicode hex="0255"/>
	<advance width="449"/>
	<outline>
		<contour>
			<point x="111" y="-67" type="line"/>
			<point x="164" y="58"/>
			<point x="247" y="138"/>
			<point x="339" y="138" type="curve" smooth="yes"/>
			<point x="374" y="138"/>
			<point x="389" y="124"/>
			<point x="389" y="102" type="curve" smooth="yes"/>
			<point x="389" y="56"/>
			<point x="338" y="24"/>
			<point x="273" y="24" type="curve" smooth="yes"/>
			<point x="174" y="24"/>
			<point x="94" y="111"/>
			<point x="94" y="239" type="curve" smooth="yes"/>
			<point x="94" y="367"/>
			<point x="171" y="456"/>
			<point x="271" y="456" type="curve" smooth="yes"/>
			<point x="320" y="456"/>
			<point x="359" y="435"/>
			<point x="388" y="406" type="curve"/>
			<point x="411" y="432" type="line"/>
			<point x="378" y="464"/>
			<point x="336" y="492"/>
			<point x="270" y="492" type="curve" smooth="yes"/>
			<point x="154" y="492"/>
			<point x="52" y="400"/>
			<point x="52" y="239" type="curve" smooth="yes"/>
			<point x="52" y="80"/>
			<point x="154" y="-12"/>
			<point x="272" y="-12" type="curve" smooth="yes"/>
			<point x="364" y="-12"/>
			<point x="426" y="38"/>
			<point x="426" y="98" type="curve" smooth="yes"/>
			<point x="426" y="138"/>
			<point x="401" y="172"/>
			<point x="340" y="172" type="curve" smooth="yes"/>
			<point x="234" y="172"/>
			<point x="136" y="84"/>
			<point x="80" y="-54" type="curve"/>
		</contour>
	</outline>
</glyph>
<glyph name="dtail" format="2">
	<unicode hex="0256"/>
	<advance width="543"/>
	<outline>
		<contour>
			<point x="504" y="-230" type="curve" smooth="yes"/>
			<point x="522" y="-230"/>
			<point x="545" y="-224"/>
			<point x="555" y="-218" type="curve"/>
			<point x="546" y="-185" type="line"/>
			<point x="536" y="-189"/>
			<point x="520" y="-194"/>
			<point x="505" y="-194" type="curve" smooth="yes"/>
			<point x="462" y="-194"/>
			<point x="450" y="-154"/>
			<point x="450" y="-95" type="curve"/>
			<point x="450" y="732" type="line"/>
			<point x="409" y="732" type="line"/>
			<point x="409" y="521" type="line"/>
			<point x="411" y="432" type="line"/>
			<point x="363" y="470"/>
			<point x="324" y="492"/>
			<point x="266" y="492" type="curve" smooth="yes"/>
			<point x="151" y="492"/>
			<point x="53" y="394"/>
			<point x="53" y="239" type="curve" smooth="yes"/>
			<point x="53" y="77"/>
			<point x="131" y="-12"/>
			<point x="251" y="-12" type="curve" smooth="yes"/>
			<point x="315" y="-12"/>
			<point x="368" y="23"/>
			<point x="411" y="64" type="curve"/>
			<point x="409" y="-102" type="line"/>
			<point x="409" y="-191"/>
			<point x="440" y="-230"/>
		</contour>
		<contour>
			<point x="256" y="25" type="curve" smooth="yes"/>
			<point x="153" y="25"/>
			<point x="96" y="110"/>
			<point x="96" y="239" type="curve" smooth="yes"/>
			<point x="96" y="360"/>
			<point x="170" y="455"/>
			<point x="267" y="455" type="curve" smooth="yes"/>
			<point x="315" y="455"/>
			<point x="358" y="438"/>
			<point x="409" y="392" type="curve"/>
			<point x="409" y="105" type="line"/>
			<point x="358" y="53"/>
			<point x="310" y="25"/>
		</contour>
	</outline>
	<anchor name="aboveUC" x="262" y="729"/>
	<anchor name="belowLC" x="272" y="-216"/>
</glyph>
